<?xml version="1.0" encoding="UTF-8"?>
<svg id="_레이어_2" data-name="레이어_2" xmlns="http://www.w3.org/2000/svg" viewBox="0 0 41.47 31.5">
  <g id="_레이어_3" data-name="레이어_3">
    <g>
      <path d="M14.84,14.13c0,.43.02.86.02,1.28,0,.17.03.33.11.48.05.15.14.29.26.4.11.12.25.21.4.26.15.08.31.11.48.11l.33-.04c.21-.06.4-.17.55-.32.22-.24.37-.55.37-.88,0-.43-.02-.86-.02-1.28,0-.17-.03-.33-.11-.48-.05-.15-.14-.29-.26-.4-.11-.12-.25-.21-.4-.26-.15-.08-.31-.11-.48-.11l-.33.04c-.21.06-.4.17-.55.32-.22.24-.37.55-.37.88h0Z" fill="#22251c"/>
      <path d="M24.06,13.81c0,.21.01.43.01.64,0,.17.03.33.11.48.05.15.14.29.26.4.11.12.25.21.4.26.15.08.31.11.48.11l.33-.04c.21-.06.4-.17.55-.32l.2-.25c.11-.19.17-.41.17-.63,0-.21-.01-.43-.01-.64,0-.17-.03-.33-.11-.48-.05-.15-.14-.29-.26-.4-.11-.12-.25-.21-.4-.26-.15-.08-.31-.11-.48-.11l-.33.04c-.21.06-.4.17-.55.32l-.2.25c-.11.19-.17.41-.17.63h0Z" fill="#22251c"/>
      <path d="M19.45,22.89c.53.06,1.06.12,1.6.11s1.02-.1,1.53-.15c.55-.05,1.11-.08,1.65-.2.49-.11.94-.32,1.41-.48.62-.21,1.09-.87.87-1.54-.2-.61-.88-1.1-1.54-.87-.43.15-.86.34-1.31.45-.13.03-.28.07-.42.08.23-.01.02,0-.09,0-.23.02-.46.04-.69.06-.49.05-.98.13-1.48.14s-1.03-.05-1.54-.11c-.65-.07-1.28.63-1.25,1.25.03.74.55,1.17,1.25,1.25h0Z" fill="#22251c"/>
      <path d="M21.09,6.26C18.76,2.97,15.03.56,10.91.42c-2.01-.07-4.39.41-6.08,1.53-1.48.98-2.59,2.52-3.42,4.07C.5,7.72-.07,9.67,0,11.62c.08,2.13.98,4.08,1.89,5.97s1.94,3.63,3.36,5.15c1.31,1.4,2.51,2.91,4.06,4.05,3.33,2.46,7.71,3.63,11.67,4.59,1.38.33,2.86,0,4.01-.82,1.48-1.05,2.99-1.79,4.63-2.55,1.96-.9,3.41-2.21,4.88-3.76s2.96-2.9,4.2-4.61,1.93-3.65,2.31-5.74.73-4.35.1-6.44-2.05-3.6-3.73-4.85S33.69.18,31.48.02s-4.41.84-6.32,1.9c-2.13,1.18-4.26,2.4-6.03,4.09-1.17,1.11.6,2.88,1.77,1.77,1.27-1.2,2.71-2.06,4.21-2.93s3.15-1.92,4.93-2.25c2.9-.55,6.59,1.87,8.1,4.27.94,1.49.94,3.23.72,4.92s-.53,3.6-1.36,5.17-2.04,2.88-3.28,4.09-2.39,2.68-3.82,3.7c-1.22.88-2.66,1.35-3.99,2-1.15.56-2.09,1.51-3.22,2.04-1.25.58-2.82-.12-4.06-.44-1.7-.43-3.31-1.06-4.91-1.76-1.52-.66-3.04-1.38-4.27-2.51s-2.32-2.37-3.37-3.61-1.73-2.54-2.41-3.92c-.82-1.68-1.69-3.45-1.65-5.37s.78-3.59,1.81-5.13,2.25-2.39,4.06-2.84c4.03-1,8.21,1.03,10.55,4.32.92,1.3,3.09.05,2.16-1.26Z" fill="#22251c"/>
    </g>
  </g>
</svg>