<?xml version="1.0" encoding="UTF-8"?>
<svg id="_레이어_2" data-name="레이어_2" xmlns="http://www.w3.org/2000/svg" viewBox="0 0 20.77 19.61">
  <g id="_레이어_3" data-name="레이어_3">
    <g>
      <path d="M17.89,17.1c-3.93,0-7.86.02-11.79-.12-1.04-.04-2.12.04-3.16-.05-.51-.05-.38-.05-.38-.59,0-.58,0-1.15.02-1.73.04-2.05.1-4.09.08-6.14,0-.85-.04-1.7-.06-2.55-.01-.42-.02-.84-.03-1.26,0-.54-.16-1.34,0-1.86.21-.65,2.15-.28,2.76-.25.78.04,1.55.11,2.33.15,2.12.11,4.24.06,6.36.07.87,0,1.74,0,2.61,0,.4,0,1.18-.16,1.53.07.14.09.07.07.06.37-.01.35,0,.7,0,1.05,0,2.28.01,4.57,0,6.85,0,.99-.02,1.98-.04,2.97,0,.52.26,2.96-.31,3.01-1.59.13-1.61,2.64,0,2.5,1.41-.12,2.61-1.04,2.77-2.52.13-1.19.03-2.44.05-3.64.04-2.39.03-4.78.03-7.17,0-1.2.11-2.45-.02-3.64-.16-1.46-1.44-2.29-2.82-2.36-2.28-.12-4.61-.02-6.89-.02S6.35.05,4.02,0C2.54-.03,1.16.06.39,1.54-.21,2.69.05,4.27.09,5.53c.06,2.39.11,4.78.04,7.18-.03,1.05-.06,2.1-.07,3.16-.01,1.43.16,2.83,1.7,3.38,1.26.45,2.91.18,4.25.23,1.22.04,2.43.08,3.65.09,2.74.01,5.48.03,8.23.04,1.61,0,1.61-2.5,0-2.5Z" fill="#787d6f"/>
      <g>
        <path d="M10.14,7.72c-1.07-1.63-3.7-1.89-4.47-.55-.5.85-.4,2.98.93,4.42.75.81,2.16,1.15,3.93,1.66,3.01-.64,4-1.53,4.41-3.94s-1.98-4.47-4.79-1.59Z" fill="#787d6f"/>
        <path d="M11.22,7.09c-.74-1.08-1.85-1.79-3.15-1.97-1.14-.16-2.4.09-3.18,1.01-.82.97-.85,2.35-.61,3.54.26,1.32,1.01,2.62,2.13,3.38.51.35,1.11.58,1.69.78.68.23,1.39.47,2.09.62.67.14,1.54-.18,2.17-.4.51-.17,1.01-.38,1.47-.66,1.8-1.11,2.75-3.56,2.28-5.62-.29-1.24-1.25-2.33-2.51-2.62-1.66-.38-3.21.55-4.34,1.68s.63,2.91,1.77,1.77c.26-.26.5-.49.81-.68.13-.09.27-.16.42-.23-.17.08.22-.07.27-.09.07-.02.39-.05.1-.03.14,0,.27,0,.41,0-.31-.02-.03.01.04.03.13.05.12.04-.04-.03.06.03.11.05.16.08.05.03.1.06.15.1-.12-.1-.14-.11-.07-.05.08.07.15.15.23.23-.21-.23.03.06.07.13.04.07.12.33.03.05.04.13.07.25.11.38.08.28,0-.23.01.07,0,.14,0,.28,0,.42-.01.15-.01.14,0,0,0,.06-.02.11-.03.17-.06.26-.11.52-.18.77-.03.09-.06.18-.09.28-.05.13-.04.12.02-.04-.02.06-.05.11-.08.16-.1.18-.2.35-.31.52.19-.27.04-.05-.02,0-.08.08-.17.16-.25.24-.16.17.2-.12-.06.05-.09.06-.18.12-.27.17-.11.07-.23.12-.35.18-.29.15.24-.08-.09.04-.6.22-1.2.38-1.82.52h.66c-.7-.2-1.41-.38-2.09-.62-.13-.04-.25-.09-.38-.14-.14-.06-.16-.06-.05-.02-.06-.02-.11-.05-.17-.08-.12-.06-.24-.12-.36-.2-.03-.02-.3-.23-.1-.06-.77-.66-1.07-1.63-1.06-2.51,0-.11.01-.21.02-.32-.02.33.03-.07.04-.14.02-.09.14-.32-.02-.02.04-.07.08-.14.12-.21-.17.31.21-.14-.07.06.08-.05.16-.09.24-.14.21-.13-.18.03.05-.01.07-.01.48-.07.15-.05.21-.01.42-.02.63,0-.31-.04.14.04.2.06.11.03.21.07.32.11-.24-.09.11.06.16.09.11.06.23.13.33.22-.2-.15.08.09.09.1.05.05.11.11.16.17-.07-.1-.07-.09.01.03.38.56,1.1.81,1.71.45.55-.32.83-1.15.45-1.71Z" fill="#787d6f"/>
      </g>
    </g>
  </g>
</svg>