<?xml version="1.0" encoding="UTF-8"?>
<svg id="_레이어_2" data-name="레이어_2" xmlns="http://www.w3.org/2000/svg" viewBox="0 0 542.76 414.17">
  <g id="_레이어_3" data-name="레이어_3">
    <path d="M4.92,22.69c-.26,6.75-.18,13.42-.67,20.17-.56,7.65-.03,15.26-.87,22.9s-.94,15.49-.82,23.16-.28,15.45-.65,23.15.18,15.42-.13,23.15-.88,15.42-.96,23.13.02,15.44-.2,23.14c-.1,3.69-.4,7.38-.34,11.07.06,4.03.64,8.04.52,12.08-.11,3.7-.7,7.37-.7,11.07s.61,7.7.66,11.56-.58,7.37-.71,11.06.32,7.71.47,11.56c.58,15.43-.53,30.87.85,46.26.33,3.72.18,7.35-.05,11.07-.25,4.03-.07,8.04.08,12.08.29,7.71.75,15.41,1.14,23.12s.77,15.43.77,23.13,1.38,15.35,1.48,23.09c.04,3.27-.3,6.83.46,10.03.67,2.84,2.51,5.32,4.62,7.27,1.96,1.81,4.28,3.3,6.95,3.76,3.05.52,6.3.19,9.38.23,7.12.08,14.23,1.05,21.33,1.44s14.5.56,21.76.59c7.77.04,15.48.52,23.24.74s15.51-.09,23.24.22,15.44.93,23.21.97,15.46-.4,23.19-.38,15.46.48,23.19.62,15.48-.37,23.2-.7c3.73-.16,7.38.14,11.1.39,4.04.27,8.07.04,12.11-.11,7.72-.28,15.48-.25,23.21-.1s15.48-.41,23.2-.71c7.57-.29,15.13-.11,22.7-.32s15.14-.34,22.71-.46c3.69-.06,7.42.04,11.1-.26,4.05-.33,8.01-1.07,12.08-1.11,7.74-.09,15.48-.06,23.21-.28,3.7-.1,7.41-.05,11.11-.21,4.04-.17,8.05-.72,12.08-.93,7.74-.41,15.44-.55,23.19-.79,3.7-.11,7.38-.53,11.07-.77,4.04-.26,8.07-.15,12.11-.25,15.46-.38,30.91-1.64,46.34-2.62,7.73-.49,15.43-1.25,23.16-1.71,3.7-.22,7.39-.46,11.08-.76,3.37-.27,6.89-.24,10.18-1.04,5.87-1.42,8.25-6.34,8.7-11.99.53-6.65.98-13.3,1.32-19.96.39-7.62-.27-15.12.53-22.73s-.02-15.31.53-22.98c.55-7.61.59-15.33.35-22.96-.24-7.65,0-15.31.31-22.96.3-7.62.9-15.33.71-22.95-.2-7.65-.31-15.31-.52-22.96-.41-15.14-.27-30.25-.46-45.39-.1-7.47-.58-14.94-.72-22.42-.07-3.67.15-7.31.25-10.98.11-4-.23-7.98-.44-11.97-.77-15.22-1.84-30.64-1.26-45.87.29-7.64-.64-15.29-.75-22.94s-1.37-15.23-1.5-22.91-.07-15.36-.84-22.94c-.58-5.76.11-13.74-4.77-17.88-4.47-3.8-11.47-3.13-16.94-3.4-7.06-.36-14.09-1.09-21.16-1.33-15.24-.51-30.51-.08-45.73-.9s-30.74-1.12-46.14-1.41c-7.69-.14-15.37-.38-23.06-.58-3.67-.09-7.33-.41-11-.49-4.03-.09-8.01.51-12.04.58-15.38.28-30.73-.53-46.1-.86-3.7-.08-7.33.2-11.03.47-4.08.3-7.98-.1-12.03-.48-7.46-.71-15.05.37-22.56.08-15.2-.6-30.43,2.01-45.61,1.01-7.75-.51-15.31-.04-23.06.4-3.67.21-7.34.62-11.02.53-4.03-.1-8-.58-12.04-.36-7.67.43-15.34,1.14-23.03,1.33s-15.39-.05-23.07.25-15.35.98-23.03,1.35c-3.68.18-7.33.6-11,.87-4.04.29-8.02-.13-12.06-.14-3.68,0-7.34.54-11,.87-4.01.37-8.01.31-12.03.39-7.49.16-15.03,1.26-22.49,1.89-3.69.31-7.33.47-11.03.43-3.22-.03-6.53-.17-9.57,1.05-5.26,2.12-8.51,6.9-8.97,12.49-.13,1.6,2.37,1.59,2.5,0,.32-3.82,2.28-7.22,5.55-9.25,3.63-2.24,7.92-1.8,12-1.78,7.31.05,14.76-.7,22.02-1.52s14.69-.53,22.03-1.21c3.66-.33,7.32-.88,11-.87,4.04,0,8.01.43,12.06.14,14.68-1.07,29.35-2.08,44.06-2.27,7.7-.1,15.36-.31,23.05-.71s14.66-1.08,22.05-.61,14.78-.24,22.05-.78,14.99.23,22.56.07,15.02-.72,22.54-.9,14.68.05,22.04,0c3.68-.02,7.35-.41,11.03-.47,3.88-.06,7.67.66,11.54.84,3.53.16,7.02-.33,10.54-.55,4.01-.25,8.02.01,12.03.1,14.63.34,29.5,1.57,44.12.47,7.69-.58,15.35-.03,23.05.25s14.69.45,22.04.51c15.05.12,30.04.86,45.08,1.45s29.51.32,44.27.82c7.21.25,14.37.99,21.57,1.36,6.58.34,15.24-.39,17.12,7.68.82,3.53.81,7.45,1.18,11.06s.45,7.3.52,10.97c.14,7.63.11,15.36,1.08,22.93s.65,14.61,1.1,21.92.13,14.6.32,21.94c.38,14.96,1.3,29.9,1.78,44.85.12,3.67-.22,7.32-.28,10.99s.1,7.32.16,10.98c.12,7.49.64,14.94.58,22.44-.12,14.81.21,29.59.58,44.39.18,7.29.65,14.65.43,21.94-.23,7.64-.68,15.28-.83,22.93-.29,14.65.15,29.29-.74,43.93-.23,3.68-.06,7.33.05,11.01.12,4.04-.29,7.96-.7,11.98-.73,7.18.09,14.43-.3,21.64-.34,6.31-.59,12.66-1.29,18.94-.45,4.06-2.31,7.47-6.4,8.62-3.74,1.06-8.08.9-11.94,1.21-14.76,1.16-29.54,2.11-44.31,3.05-7.72.49-15.44,1.18-23.16,1.47-7.39.28-14.82.16-22.19.58-14.96.85-29.9,1.28-44.85,2.4-7.52.56-15.16.43-22.7.51s-14.85-.19-22.19.76-15.14.79-22.69.88-15.13.47-22.7.46-14.78.16-22.18.39-14.77.39-22.19.4-15.47.23-23.21.42c-3.56.09-7.06-.24-10.61-.47-3.88-.25-7.73.04-11.61.23-15.17.76-30.26-.31-45.42-.18-7.4.06-14.8.44-22.2.31-3.69-.06-7.4-.04-11.09-.24s-7.36-.69-11.07-.73c-7.73-.08-15.44.02-23.18-.23s-14.82-.6-22.26-.69-14.47-.24-21.69-.64-14.21-1.35-21.34-1.39c-2.79-.02-5.88.36-8.61-.3-3.43-.83-6.77-3.99-8.29-7.12-1.63-3.37-1.03-7.73-1.08-11.36s-.42-7.35-.9-11.03c-.96-7.47-.62-15.11-.86-22.63s-.49-15.1-.98-22.62-1.06-14.77-.89-22.12c.09-3.7.59-7.37.43-11.08s-.79-7.68-.87-11.55c-.31-14.94.09-29.83-.62-44.76-.18-3.74.17-7.35.47-11.07s.07-7.36-.22-11.07c-.6-7.74.73-15.39.2-23.14s.12-14.75.15-22.13-.08-14.76.24-22.12,1-15.4,1-23.11c0-3.36-.34-6.71-.33-10.07,0-4.02.35-8.04.49-12.06.53-15.1.06-30.28,1.64-45.33.73-6.93.07-13.91.6-20.86.49-6.43.36-12.79.6-19.22.06-1.61-2.44-1.61-2.5,0Z" fill="#22251c"/>
  </g>
</svg>