<?xml version="1.0" encoding="UTF-8"?>
<svg id="_레이어_2" data-name="레이어_2" xmlns="http://www.w3.org/2000/svg" viewBox="0 0 218.03 131.94">
  <g id="_레이어_3" data-name="레이어_3">
    <g>
      <g>
        <path d="M31.48,16.42c.92-3.26.13-3.49,1.05-6.75.57-2.02-.41-3.84-2.48-4.2-1.58-.28-3.54-.2-5.7-.28-1.82-.07-3.76-.54-5.72-.26s-3.83.57-5.62,1.31-3.59,1.59-5.06,2.9c-1.35,1.2-2.39,2.93-3.36,4.76s-1.06,3.77-1.57,5.54c-.56,1.92-1.77,3.67-1.85,5.53-.09,1.99.83,3.86,1.25,5.68.44,1.92.65,3.91,1.62,5.53s2.33,3.15,3.81,4.38,3.29,1.85,5.17,2.52c1.72.62,3.53,1.42,5.58,1.5s3.95,0,5.56-.17c2.19-.22,3.9-.98,5.33-1.48,2.39-.84,3.77-1.89,4.63-2.79.8-.84.97-1.88.71-3.01-.68-2.91-.08-3.05-.76-5.96-.46-1.98-2.73-2.66-4.67-2.06-1.51.46-3.46.75-5.28.97s-3.76-.17-5.24-.73c-1.6-.61-3.07-1.71-3.3-3.9s.54-3.9,1.75-4.9,3.13-1.59,4.92-1.85,3.71-.02,5.17.07c1.66.1,3.59-.74,4.04-2.34Z" fill="#22251c"/>
        <path d="M32.69,16.75c.58-2.16.45-4.37.99-6.53s.08-4.45-2.05-5.54c-2.23-1.14-5.28-.62-7.69-.77-1.47-.1-2.92-.38-4.39-.32s-2.9.33-4.29.65c-5.66,1.27-10.39,4.93-12.35,10.48-.41,1.17-.58,2.4-.87,3.61-.36,1.52-1.09,2.88-1.61,4.34-.99,2.79,0,5.2.72,7.91s1.03,5.25,2.77,7.6,3.71,4.04,6.29,5.14,5.26,2.23,7.99,2.48,5.83.12,8.5-.59c2.34-.63,4.9-1.51,6.88-2.94s2.96-3.19,2.45-5.71c-.43-2.13-.01-4.64-1.04-6.61s-3.26-2.57-5.25-2.2c-3.37.61-6.5,1.7-9.91.59-1.14-.37-2.32-.97-2.77-2.16-.48-1.27-.25-2.94.53-4.04,1.87-2.64,6.32-2.38,9.1-2.17,2.52.19,5.11-.61,6.01-3.2.53-1.52-1.88-2.18-2.41-.66-.75,2.16-4.11,1.28-5.74,1.24-2.42-.05-5.11.39-7.2,1.7-3.56,2.24-4.21,7.97-.66,10.54,1.75,1.27,4.17,1.81,6.3,1.82,1.27,0,2.56-.22,3.81-.43s2.49-.69,3.74-.8c2.41-.21,2.63,1.98,2.7,3.86.03.86.09,1.71.25,2.57.22,1.23.43,2.07-.56,3.02-1.55,1.49-3.75,2.18-5.74,2.85-2.45.82-5.03.95-7.6.91s-4.97-1.01-7.39-1.92-4.43-2.35-6.05-4.44-1.91-4.52-2.58-7.08c-.28-1.07-.7-2.11-.93-3.2-.32-1.45-.09-2.66.46-4.01.45-1.1.96-2.17,1.27-3.32.33-1.26.49-2.56.9-3.8.78-2.35,2.47-4.87,4.52-6.28,2.43-1.67,5.24-2.57,8.12-3.02s5.96.14,8.91.2c1.13.02,2.68-.13,3.7.43s1.02,1.63.77,2.64c-.55,2.16-.41,4.37-.99,6.53-.42,1.56,1.99,2.22,2.41.66Z" fill="#22251c"/>
      </g>
      <g>
        <path d="M71.43,13.58c2.67-.45,2.62-.74,5.28-1.19,1.28-.21,2.53.82,2.68,2.11.19,1.6.47,3.84.99,6.1.48,2.07,1.27,4.1,2.12,5.78,1.14,2.23,2.43,3.3,4.44,2.92s4.25.03,5.68-.91,1.7-2.82,2.38-5.11c.44-1.46,1-3.15,1.14-5.45.1-1.63.05-3.49,0-5.64-.03-1.25,1.2-2.73,2.45-2.76,2.3-.06,2.3.11,4.6.05,1.16-.03,2.41,1.05,2.56,2.2.39,3.04-.3,3.13.09,6.16s1.03,2.96,1.43,5.99.37,3.04.76,6.08.65,3.01,1.04,6.05c.14,1.11-.85,2.59-1.93,2.9-3.09.88-3.3.13-6.39,1-1.29.37-2.7-.05-2.93-1.38,0,0-.27.05-.27.05-.27-1.52-1.35-2.18-2.7-1.43-1.42.79-3.52,1.12-5.65,1.6-1.81.41-3.64.32-5.66-.08-1.76-.35-3.89-.32-5.6-1.68-1.56-1.24-2.39-3.19-3.42-4.86s-1.8-3.48-2.4-5.32c-.65-1.97-1.14-3.9-1.43-5.69-.39-2.43-1.18-4.49-1.22-5.83-.03-.89,1.12-1.52,1.99-1.66Z" fill="#22251c"/>
        <path d="M71.76,14.78c1.34-.23,2.62-.64,3.94-.93.72-.16,1.58-.48,2.14.16.53.6.46,1.78.56,2.54.53,3.83,1.38,7.76,3.39,11.12.7,1.17,1.66,2.27,2.99,2.72,1.48.5,3.15,0,4.66-.07s3.1-.19,4.29-1.23c1.1-.96,1.58-2.41,1.98-3.77.97-3.32,1.75-6.43,1.74-9.92,0-1.42-.72-4.5,1.37-4.74,1.32-.15,2.81.01,4.14.06,1.91.06,1.73,2.24,1.62,3.65-.12,1.52-.1,2.94.15,4.45.21,1.25.7,2.4,1.01,3.62.37,1.48.48,3.03.66,4.54.21,1.71.39,3.43.7,5.13.23,1.27.97,3.05.68,4.31-.4,1.74-2.82,1.62-4.22,1.7-.78.04-1.55.14-2.31.31-.7.16-1.98.72-2.24-.29-.18-.7-.88-.99-1.54-.87l-.27.05,1.54.87c-.34-1.5-1.39-2.72-3.02-2.65-.82.04-1.48.5-2.22.79-.91.36-1.89.55-2.84.76-2.37.52-4.4.73-6.8.31-1.73-.31-3.72-.33-5.16-1.45s-2.22-2.98-3.12-4.51c-1.15-1.95-1.98-3.99-2.63-6.16s-.94-4.2-1.43-6.31c-.2-.88-.45-1.75-.65-2.63-.05-.21-.3-.92-.18-1.13.17-.29.79-.39,1.08-.46,1.57-.35.91-2.76-.66-2.41-1.26.28-2.59,1.06-2.86,2.42s.35,2.82.66,4.06c.9,3.61,1.43,7.19,2.88,10.65.69,1.64,1.6,3.14,2.47,4.68.78,1.38,1.63,2.77,2.9,3.76s2.75,1.39,4.3,1.63c1.65.25,3.3.63,4.97.66,2.01.04,4.02-.47,5.96-.94.88-.22,1.76-.48,2.58-.86s1.11-.59,1.35.45c.16.7.9.99,1.54.87l.27-.05-1.54-.87c.42,1.62,1.85,2.5,3.49,2.41.91-.05,1.77-.42,2.67-.54.64-.09,1.29-.07,1.93-.12,1.7-.14,3.51-.44,4.64-1.83,1.27-1.57.97-3.29.62-5.13-.57-3.03-.97-6.06-1.36-9.12-.43-3.33-1.86-6.32-1.56-9.74.14-1.55.25-3.41-.66-4.75-1.12-1.67-2.73-1.74-4.55-1.77-1.54-.03-3.39-.41-4.78.38-1.73.98-2.17,2.69-2.13,4.54.05,2.14.16,4.33-.23,6.44-.33,1.77-.91,3.52-1.43,5.25-.21.7-.42,1.5-.88,2.08-.61.76-1.63.82-2.53.88s-1.87.09-2.81.22c-.78.11-1.43.17-2.08-.35-1.64-1.32-2.45-4.16-3.01-6.08-.72-2.44-.87-4.94-1.34-7.43-.36-1.9-2.12-3.25-4.05-3s-3.62.89-5.45,1.21c-1.58.28-.91,2.69.66,2.41Z" fill="#22251c"/>
      </g>
      <g>
        <path d="M112.39,3.55c-.89.19-1.67.93-1.56,1.83.35,2.95.23,2.96.58,5.91s.96,2.87,1.31,5.82.22,2.96.57,5.91.51,2.93.86,5.88-.13,3,.21,5.95,0,2.99.36,5.94.42,2.94.77,5.89.69,2.91,1.04,5.86c.12,1.03,1.11,1.58,2.12,1.38,3.68-.75,3.78-.24,7.45-.99.85-.17,1.69-1.31,1.66-2.18-.11-2.97-.07-2.97-.18-5.95s-.38-2.96-.49-5.93c-.03-.9.47-1.86,1.36-2,1.4-.22,3.53-.79,5.92-1.5,1.88-.56,3.91-1.09,5.73-2.08s3.7-2.11,4.86-3.69,2.02-3.58,1.82-5.87c-.17-1.92-.74-3.93-1.05-5.98s-.3-4.13-1.02-6.01-1.79-3.73-3.22-5.23c-1.28-1.35-3.1-2.36-5.19-3.21-1.65-.68-3.62-1.14-5.89-1.41-1.8-.21-3.83-.68-6.07-.58-1.84.08-3.85.56-6.03.87-1.86.27-3.8.91-5.92,1.36ZM126.51,28.71c-.92.03-1.56-.8-1.66-1.72-.37-3.33-.24-3.34-.61-6.67s-.98-3.26-1.35-6.59c-.11-.96.88-2.06,1.84-2.19,2.35-.34,4.46-.6,6.14-.34,2.23.34,3.72,1.73,4.78,3.57.81,1.4.93,3.28,1.08,5.81.12,2.04-.3,3.29-1.26,4.44-1.08,1.28-2.37,2.29-3.99,2.78-1.82.55-3.68.89-4.96.92Z" fill="#22251c"/>
        <g>
          <path d="M112.05,2.35c-1.11.33-2.1,1.05-2.4,2.22s.11,2.59.21,3.77c.17,2.24.42,4.4,1.1,6.54s.69,4.36.9,6.55c.22,2.35.68,4.66.98,7.01.15,1.2.2,2.36.16,3.56-.05,1.39.14,2.73.24,4.11.17,2.32.2,4.6.52,6.91s.49,4.49,1,6.68c.48,2.07.29,4.94,2.91,5.45,1.18.23,2.51-.29,3.7-.4,1.04-.1,2.08-.14,3.12-.28,1.17-.16,2.43-.25,3.33-1.11,1.04-.99,1.22-2.14,1.18-3.5-.08-2.32-.05-4.66-.27-6.97-.09-.92-.23-1.83-.3-2.76-.04-.48-.29-1.52.1-1.92.35-.36,1.42-.35,1.9-.47,5.45-1.27,12.48-2.91,15.85-7.82,1.65-2.41,2.01-5.03,1.56-7.87-.25-1.55-.65-3.08-.87-4.64s-.27-3.21-.64-4.77c-1.57-6.63-7.39-10.57-13.79-11.7-3.32-.59-6.76-1.14-10.11-.68s-6.89,1.32-10.33,2.08c-1.57.35-.91,2.76.66,2.41,2.74-.61,5.42-1.26,8.19-1.74s5.48-.44,8.39-.02c5.31.75,10.52,2.14,13.31,7.16,1.41,2.53,1.5,5.13,1.92,7.93s1.62,5.74.65,8.51c-1.84,5.29-8.44,6.84-13.21,8.17-1.95.54-4.92.51-5.84,2.64-.75,1.72-.05,3.99.11,5.8.18,2.09.16,4.19.23,6.29.05,1.48.02,2.13-1.58,2.41-.96.17-1.91.24-2.88.31s-1.88.19-2.81.35c-.84.14-1.22.4-1.48-.47-.17-.55-.16-1.19-.28-1.76-.41-2.05-.74-4.08-1.03-6.15s-.61-4.05-.63-6.1-.37-4.12-.29-6.19c.09-2.27-.29-4.51-.67-6.74s-.5-4.5-.73-6.76c-.13-1.32-.27-2.65-.65-3.92-.27-.89-.57-1.74-.72-2.65-.2-1.22-.28-2.47-.38-3.71-.04-.48-.08-.97-.13-1.45-.08-.77-.44-1.6.5-1.88,1.54-.46.88-2.87-.66-2.41Z" fill="#22251c"/>
          <path d="M126.51,27.46c-.52-.02-.48-1.09-.51-1.41-.07-.65-.13-1.31-.17-1.96-.1-1.37-.21-2.74-.38-4.1s-.47-2.54-.83-3.81c-.28-1.01-1.07-2.98.33-3.41.82-.25,1.8-.26,2.65-.34s1.68-.12,2.52-.06c1.46.1,2.69.75,3.64,1.86s1.34,2.29,1.51,3.67c.19,1.51.46,3.3.05,4.8s-1.78,2.71-3.09,3.43c-1.65.9-3.86,1.26-5.72,1.34-1.6.07-1.61,2.57,0,2.5,4.01-.17,8.79-1.52,10.75-5.39.96-1.9.76-4.07.57-6.13-.17-1.87-.54-3.6-1.65-5.15s-2.75-2.86-4.72-3.25c-2.11-.42-4.29-.09-6.4.2-1.05.15-1.91.47-2.61,1.3-.81.97-.86,1.96-.68,3.17.22,1.54.78,2.97,1.06,4.49.35,1.86.4,3.77.57,5.65.19,2.16.32,4.97,3.12,5.11,1.61.08,1.6-2.42,0-2.5Z" fill="#22251c"/>
        </g>
      </g>
      <g>
        <path d="M52.54,8.52c-2.32,0-4.67.11-6.67,1.05s-3.72,2.61-5.22,4.32-2.32,3.73-3.11,5.9c-.75,2.05-1.35,4.18-1.35,6.51s.8,4.4,1.55,6.44c.79,2.16,1.54,4.24,3,5.9s3.13,3.42,5.15,4.38,4.34.7,6.66.7,4.32-.48,6.32-1.43,3.72-2.18,5.23-3.89,3.35-3.18,4.14-5.34c.75-2.05.28-4.43.28-6.76s.47-4.72-.27-6.76c-.79-2.16-2.74-3.64-4.2-5.3s-3.08-3.12-5.11-4.08-4.07-1.64-6.39-1.64ZM52.09,33.83c-1.92,0-3.41-1.21-4.64-2.63-1.16-1.33-2.08-2.92-2.08-4.9s.46-3.98,1.61-5.31c1.23-1.41,3.18-2.18,5.1-2.18s4.03.63,5.26,2.04c1.16,1.33,1.57,3.46,1.57,5.45s-1.02,3.58-2.18,4.91c-1.23,1.41-2.73,2.62-4.65,2.62Z" fill="#22251c"/>
        <g>
          <path d="M52.54,7.27c-1.88,0-3.82.07-5.64.59s-3.45,1.59-4.88,2.85c-2.94,2.6-4.64,5.7-5.91,9.37-.64,1.86-1.1,3.79-1.17,5.76-.07,2.07.45,4.07,1.14,6.01.62,1.76,1.23,3.56,2.1,5.22s2.11,3.05,3.43,4.34,2.9,2.53,4.71,3.12,3.72.48,5.57.45c3.79-.05,7.32-.99,10.41-3.26,1.44-1.06,2.59-2.37,3.82-3.65,1.16-1.21,2.35-2.47,3.04-4.01.8-1.79.77-3.72.67-5.64-.11-2.17.14-4.33.06-6.5-.16-4.18-3.33-7.01-6.12-9.77-2.96-2.93-7.05-4.79-11.23-4.87-1.61-.03-1.61,2.47,0,2.5,3.21.06,6.49,1.41,8.87,3.57,1.08.98,2.02,2.11,3.03,3.15s2.16,2.15,2.65,3.6c.52,1.54.28,3.23.21,4.82-.09,1.86.14,3.71.1,5.57-.08,3.28-2.61,5.47-4.77,7.67s-4.95,3.69-7.93,4.17c-1.55.25-3.19.2-4.76.18-1.83-.02-3.36-.34-4.88-1.41-2.64-1.85-4.54-4.49-5.68-7.48-1.27-3.34-2.41-6.52-1.64-10.13s2.17-7.05,4.66-9.66c1.3-1.36,2.78-2.7,4.57-3.36s3.7-.69,5.57-.69c1.61,0,1.61-2.51,0-2.5Z" fill="#22251c"/>
          <path d="M52.09,32.58c-2.26-.06-4.38-2.46-5.13-4.45-.81-2.16-.32-5.38,1.55-6.88s4.71-1.56,6.75-.45,2.73,4.09,2.33,6.29c-.25,1.39-1.12,2.58-2.06,3.59s-2.03,1.86-3.45,1.9c-1.61.04-1.61,2.54,0,2.5,3.46-.09,6.45-3.21,7.62-6.29.63-1.66.53-3.5.2-5.22-.31-1.58-1.02-3.16-2.3-4.2-2.64-2.15-6.73-2.39-9.68-.73s-4.26,5.63-3.68,8.99c.33,1.92,1.46,3.6,2.79,4.97s3.04,2.42,5.05,2.47c1.61.04,1.61-2.46,0-2.5Z" fill="#22251c"/>
        </g>
      </g>
      <g>
        <path d="M152.04,4.9c2.82-.06,2.83.2,5.65.14,1.84-.04,3.29.96,3.49,2.79.33,3.09.78,3.04,1.11,6.12s-.13,3.14.2,6.22.1,3.11.42,6.21.25,3.1.58,6.19c.21,1.95,2.37,3.44,4.31,3.22,4.4-.49,4.4-.5,8.81-.99,1.13-.12,2.14.74,2.02,1.86-.39,3.42-.26,3.44-.65,6.86s-.35,3.43-.74,6.85c-.11.96-1.18,1.2-2.14,1.1-3.35-.33-3.36-.24-6.71-.57s-3.34-.49-6.69-.82-3.43.41-6.78.08c-1.7-.17-3.3-1.76-3.44-3.46-.26-3.17-.44-3.16-.71-6.33s-.24-3.18-.5-6.35-.18-3.18-.44-6.35-.19-3.18-.46-6.35-.37-3.17-.64-6.34.2-3.21-.07-6.39c-.17-2.03,1.34-3.66,3.38-3.71Z" fill="#22251c"/>
        <path d="M152.04,6.15c1.07-.02,2.13.03,3.2.1s2.37-.17,3.41.16c1.25.4,1.26,1.51,1.43,2.64.14.95.38,1.86.6,2.8.51,2.15.4,4.24.43,6.42s.26,4.36.4,6.52.38,4.25.58,6.36c.23,2.38.79,4.35,3.14,5.42,2.05.93,4.46.27,6.6.03.91-.1,1.81-.21,2.72-.31.6-.07,1.21-.15,1.81-.2.94-.08,1.03.18.95,1.05-.19,2.13-.36,4.27-.6,6.4-.11,1.02-.23,2.04-.33,3.06-.04.42-.08.84-.13,1.26-.06.57.02,1.59-.22,2.07-.17.33.2.11-.3.33-.22.1-.64-.01-.87-.03-.56-.05-1.12-.11-1.69-.15-.91-.08-1.82-.13-2.73-.2-2.08-.17-4.15-.44-6.22-.72-2.23-.3-4.32-.4-6.55-.19-1.08.1-2.46.22-3.45-.27-1.34-.67-1.49-1.87-1.62-3.2-.44-4.23-.88-8.44-1.19-12.68-.34-4.63-.52-9.29-1.03-13.91-.25-2.28-.57-4.56-.45-6.86.11-2.02-.85-5.7,2.11-5.89,1.6-.11,1.61-2.61,0-2.5-2.56.17-4.58,1.98-4.64,4.62-.02,1.1.12,2.19.06,3.29-.07,1.31-.06,2.58.06,3.89.41,4.71.88,9.41,1.2,14.13s.51,9.26,1.13,13.83c.34,2.49.16,5.11,2.28,6.85,1.94,1.6,4.47,1.28,6.8,1.06s4.64.25,6.92.56,4.69.48,7.04.66c2.55.2,5.28.63,5.65-2.62.29-2.49.54-4.98.8-7.47.1-.99.17-1.98.25-2.97.1-1.29.56-2.84.07-4.06-1.08-2.69-4.39-1.71-6.58-1.46-.91.1-1.83.21-2.74.31-1.32.15-2.89.61-4.15,0-2.12-1.03-1.68-4.27-1.87-6.28-.27-2.89-.46-5.79-.66-8.69-.19-2.74.07-5.4-.57-8.12-.56-2.4-.43-5.53-2.91-6.83-1.29-.68-2.69-.51-4.09-.55s-2.69-.16-4.05-.14c-1.61.03-1.61,2.53,0,2.5Z" fill="#22251c"/>
      </g>
      <g>
        <path d="M185.52,2.76c3.22-.15,3.2-.66,6.42-.8s3.26.57,6.48.42,3.2-.7,6.43-.85,3.23-.05,6.46-.2c1.06-.05,1.87,1.03,1.79,2.09-.24,3.26.12,3.29-.13,6.54-.06.86-.99,1.94-1.84,2.02-2.96.29-2.97.28-5.93.57s-3.03-.31-5.99-.02-2.97.25-5.94.55c-1.01.1-1.88,1.3-1.73,2.3.37,2.45.12,2.48.49,4.93.14.92,1.36,1.21,2.29,1.14,2.26-.18,2.31.55,4.57.37s2.24-.33,4.5-.51c.99-.08,2.28.39,2.33,1.39.15,3.05-.41,3.07-.26,6.12.04.93-.53,1.75-1.45,1.86-2.3.27-2.25.72-4.55.99s-2.41-.61-4.71-.34c-.95.11-1.38,1.36-1.3,2.31q.26,3.01.51,6.01c.08.96.67,1.22,1.64,1.15,2.57-.17,2.63.72,5.21.55s2.55-.6,5.12-.77,2.56-.44,5.13-.61c1-.07,2.21.99,2.25,1.99.14,4.02-.41,4.04-.27,8.06.03.99-.56,1.62-1.55,1.63-3.3.03-3.3.35-6.6.39s-3.3.24-6.61.28-3.31.18-6.61.21-3.32-.92-6.62-.88c-.97,0-1.91-.29-1.94-1.26-.08-3.14.28-3.15.2-6.3s-.35-3.14-.43-6.28-.37-3.14-.45-6.28.44-3.16.36-6.3-.12-3.14-.2-6.29.19-3.15.1-6.3-.36-3.14-.44-6.29c-.05-1.92,1.35-3.48,3.27-3.57Z" fill="#22251c"/>
        <path d="M185.52,4.01c1.64-.09,3.2-.47,4.82-.68,1.8-.23,3.49-.1,5.26.16,3.64.52,7.22-.66,10.85-.78.66-.02,1.33-.03,2-.04.82-.01,2.1-.32,2.86-.09.88.27.48,1.59.46,2.28-.02.78.01,1.55.03,2.33s.09,1.72-.07,2.52c-.24,1.21-1.35,1.1-2.36,1.19-1.73.17-3.47.41-5.2.47-1.59.06-3.14-.24-4.74-.11-1.69.14-3.39.3-5.08.46-1.88.18-3.62.75-4.01,2.87-.16.86.1,1.74.16,2.6.05.75.08,1.5.16,2.25.1.89.17,1.76.86,2.41.59.55,1.43.79,2.21.84.82.05,1.6-.05,2.42.12.77.16,1.51.3,2.31.28,1.7-.04,3.53-.7,5.23-.54.58.05.68.12.79.6.1.43,0,.99-.02,1.43-.05.69-.17,1.37-.23,2.06-.05.6.25,2.21-.15,2.63-.43.45-1.91.46-2.57.66-.75.23-1.48.43-2.27.51-.88.08-1.58-.13-2.43-.29-1.74-.32-3.56-.11-4.3,1.69-.62,1.48-.18,3.26-.05,4.81.12,1.42-.13,3.63.95,4.71s3.05.57,4.47.93c1.73.44,3.46.38,5.21.03s3.41-.47,5.13-.73c.67-.1,1.33-.23,2-.3,1.32-.13,1.86.21,1.87,1.56.02,1.53-.19,3.03-.28,4.56-.03.44-.04.88-.04,1.32,0,.29.18,1.33,0,1.56-.26.35-2.04.15-2.54.19-1.75.14-3.48.27-5.24.31-3.35.08-6.71.28-10.06.42-1.84.08-3.58.1-5.36-.38-.7-.19-1.4-.32-2.12-.4-.52-.05-1.04-.04-1.57-.06-.67-.03-.54-.23-.54-.9,0-1.65.24-3.28.22-4.93s-.23-3.31-.36-4.97c-.14-1.81-.17-3.62-.37-5.43s-.27-3.6-.04-5.38c.44-3.5.06-7.01.02-10.53-.02-1.58.14-3.14.13-4.72,0-1.76-.21-3.49-.36-5.24s-.35-4.06,1.93-4.26c1.59-.15,1.6-2.65,0-2.5-1.85.17-3.46,1.14-4.17,2.91s-.26,3.76-.08,5.56c.4,3.84,0,7.73.14,11.58.07,1.92.24,3.88.06,5.8s-.36,3.57-.25,5.42c.22,3.6.69,7.2.82,10.81.07,1.85-.16,3.65-.19,5.49-.01.91-.09,1.89.48,2.67s1.49,1.05,2.4,1.11c.97.06,1.87.04,2.82.28.74.18,1.46.39,2.22.5,1.93.26,3.91.07,5.85-.02,3.88-.18,7.8-.12,11.68-.45.75-.06,1.49-.16,2.24-.21.99-.07,2.1.08,3.04-.27,2.14-.81,1.64-3.17,1.72-4.99.13-2.93,1.52-8.59-2.92-8.97-1.76-.15-3.68.46-5.44.6-1.87.15-3.68.76-5.55.79-.82.01-1.52-.19-2.32-.37-.38-.09-.76-.15-1.15-.18-.45-.04-1.22.15-1.62,0-.46-.17-.1.02-.08.05-.07-.1-.06-.65-.07-.82-.04-.47-.08-.94-.12-1.41-.06-.73-.13-1.46-.19-2.19-.05-.63-.48-2.28.22-2.64.65-.33,1.82.2,2.48.31,1.83.31,3.51-.25,5.25-.7.94-.24,1.93-.21,2.73-.8s1.14-1.44,1.19-2.37-.02-1.9.09-2.86c.1-.85.2-1.7.2-2.56,0-2.08-1.12-3.45-3.3-3.51-1.87-.06-3.72.59-5.6.54-.69-.02-1.34-.24-2.02-.34-.64-.09-2.35.27-2.81-.21-.33-.35-.2-1.82-.23-2.33-.04-.82-.51-2.2-.16-2.92.38-.78,1.85-.61,2.59-.67.82-.07,1.65-.14,2.47-.22,1.86-.17,3.57-.08,5.41-.03s3.83-.27,5.72-.45c2.01-.19,3.97-.27,4.88-2.4.67-1.56.32-3.58.31-5.24-.02-1.9.51-4.14-1.45-5.31-1.4-.84-3.64-.32-5.22-.29-1.94.04-3.89.07-5.8.45s-3.69.66-5.58.43-3.61-.47-5.52-.28c-1.74.18-3.42.62-5.17.71-1.6.09-1.61,2.59,0,2.5Z" fill="#22251c"/>
      </g>
      <g>
        <path d="M84.24,71.31c-2.14,0-4.31-.07-6.27.6s-3.75,1.94-5.45,3.2-2.91,2.9-4.23,4.58-2.52,3.26-3.4,5.21-1.09,3.93-1.54,6.02-1.06,3.98-1.06,6.13-.16,4.3.26,6.3c.44,2.1,1.85,3.83,2.69,5.69s1.93,3.64,3.19,5.25,2.7,3.11,4.35,4.33,3.17,3,5.14,3.67,4.17.15,6.3.15,4.35.53,6.31-.14,3.39-2.48,5.1-3.73,3.2-2.5,4.52-4.17,2.5-3.26,3.38-5.21,1.78-3.77,2.22-5.87.77-4.12.77-6.27-.83-4.17-1.25-6.16c-.44-2.1-.96-4.08-1.81-5.94s-2.09-3.6-3.35-5.21-2.47-3.47-4.12-4.69-3.48-2.58-5.45-3.26-4.17-.47-6.31-.47ZM83.62,107.86c-1.77,0-3.23-.98-4.62-2.02s-2.59-2.13-3.33-3.78c-.68-1.5-1.38-3.2-1.38-5.02s.6-3.56,1.28-5.07c.74-1.65,1.61-3.4,2.95-4.4s3.35-1.32,5.12-1.32,3.24.93,4.63,1.97,3.05,1.93,3.8,3.58c.68,1.5,1.11,3.41,1.11,5.23s-.48,3.71-1.16,5.21c-.74,1.65-2.49,2.51-3.82,3.5s-2.79,2.11-4.56,2.11Z" fill="#22251c"/>
        <g>
          <path d="M84.24,70.06c-2.71,0-5.35.02-7.87,1.15-2.2.99-4.41,2.52-6.12,4.22-1.82,1.81-3.44,3.98-4.88,6.09-1.53,2.25-2.36,4.61-2.87,7.27s-1.33,5.16-1.44,7.79-.29,5.41.51,7.86c.36,1.11.93,2.14,1.5,3.15.65,1.14,1.19,2.32,1.81,3.48,1.21,2.29,2.79,4.43,4.6,6.28,1.65,1.68,3.61,3.2,5.48,4.63,2.14,1.64,4.35,1.99,6.99,1.81,1.4-.09,2.75-.13,4.15-.03,1.32.09,2.64.2,3.94-.06,2.31-.45,3.9-2.11,5.62-3.57,1.94-1.64,3.94-3.03,5.53-5.05,1.7-2.16,3.06-4.38,4.18-6.9,2.16-4.87,3.09-10.3,1.68-15.5-.79-2.9-1.29-5.85-2.59-8.59s-3.19-4.98-4.99-7.28c-1.71-2.18-3.95-3.92-6.37-5.25-2.84-1.56-5.7-1.53-8.85-1.51-1.61,0-1.61,2.51,0,2.5,2.49-.01,4.93-.2,7.22.97,1.98,1.01,3.98,2.41,5.44,4.09,3.1,3.56,5.7,7.41,6.83,12.04.56,2.3,1.48,4.78,1.55,7.15s-.31,4.8-.94,7.05c-1.25,4.48-3.86,8.93-7.35,12.03-1.51,1.34-3.14,2.56-4.68,3.86-.75.63-1.56,1.21-2.52,1.45-1.27.33-2.65.13-3.94.04-2.37-.16-5.08.59-7.37-.11-1.96-.6-3.47-2.38-5.05-3.61-1.8-1.39-3.37-3.07-4.69-4.93s-2.2-3.95-3.32-5.93c-1.21-2.12-1.87-3.95-1.9-6.43s.05-4.73.59-7.08c.59-2.51.81-5.28,1.85-7.65s2.85-4.57,4.53-6.61,3.59-3.58,5.83-4.86c2.52-1.44,5.09-1.49,7.92-1.48,1.61,0,1.61-2.5,0-2.5Z" fill="#22251c"/>
          <path d="M83.62,106.61c-1.77-.06-3.35-1.27-4.65-2.38-1.46-1.24-2.32-2.74-2.93-4.54-.68-2-.58-3.89.11-5.87.56-1.62,1.35-3.47,2.53-4.73s3.07-1.58,4.77-1.58c1.84,0,3.23,1.13,4.65,2.14s2.6,1.88,3.17,3.6c.62,1.87.82,3.86.43,5.8-.2,1-.48,2.1-1.01,2.98-.46.75-1.19,1.28-1.9,1.77-1.55,1.07-3.19,2.73-5.17,2.8-1.6.06-1.61,2.56,0,2.5,2.44-.1,4.13-1.57,6.05-2.88s3.24-2.59,4-4.84c.83-2.46.93-5.07.36-7.59-.52-2.27-1.53-3.99-3.39-5.39-1.7-1.28-3.53-2.79-5.65-3.24s-4.7-.06-6.56.98c-1.96,1.1-3.06,3.22-3.94,5.2-1.01,2.27-1.72,4.67-1.31,7.18s1.69,5.34,3.66,7.14,4.17,3.35,6.8,3.44c1.61.06,1.61-2.44,0-2.5Z" fill="#22251c"/>
        </g>
      </g>
      <g>
        <path d="M132.35,65.68c-2.14,0-4.31-.07-6.27.6s-3.75,1.94-5.45,3.2-2.91,2.9-4.23,4.58-2.52,3.26-3.4,5.21-1.09,3.93-1.54,6.02-1.06,3.98-1.06,6.13-.16,4.3.26,6.3c.44,2.1,1.85,3.83,2.69,5.69s1.93,3.64,3.19,5.25,2.7,3.11,4.35,4.33,3.17,3,5.14,3.67,4.17.15,6.3.15,4.35.53,6.31-.14,3.39-2.48,5.1-3.73,3.2-2.5,4.52-4.17,2.5-3.26,3.38-5.21,1.78-3.77,2.22-5.87.77-4.12.77-6.27-.83-4.17-1.25-6.16c-.44-2.1-.96-4.08-1.81-5.94s-2.09-3.6-3.35-5.21-2.47-3.47-4.12-4.69-3.48-2.58-5.45-3.26-4.17-.47-6.31-.47ZM131.74,102.23c-1.77,0-3.23-.98-4.62-2.02s-2.59-2.13-3.33-3.78c-.68-1.5-1.38-3.2-1.38-5.02s.6-3.56,1.28-5.07c.74-1.65,1.61-3.4,2.95-4.4s3.35-1.32,5.12-1.32,3.24.93,4.63,1.97,3.05,1.93,3.8,3.58c.68,1.5,1.11,3.41,1.11,5.23s-.48,3.71-1.16,5.21c-.74,1.65-2.49,2.51-3.82,3.5s-2.79,2.11-4.56,2.11Z" fill="#22251c"/>
        <g>
          <path d="M132.35,64.43c-2.71,0-5.35.02-7.87,1.15-2.2.99-4.41,2.52-6.12,4.22-1.82,1.81-3.44,3.98-4.88,6.09-1.53,2.25-2.36,4.61-2.87,7.27s-1.33,5.16-1.44,7.79-.29,5.41.51,7.86c.36,1.11.93,2.14,1.5,3.15.65,1.14,1.19,2.32,1.81,3.48,1.21,2.29,2.79,4.43,4.6,6.28,1.65,1.68,3.61,3.2,5.48,4.63,2.14,1.64,4.35,1.99,6.99,1.81,1.4-.09,2.75-.13,4.15-.03,1.32.09,2.64.2,3.94-.06,2.31-.45,3.9-2.11,5.62-3.57,1.94-1.64,3.94-3.03,5.53-5.05,1.7-2.16,3.06-4.38,4.18-6.9,2.16-4.87,3.09-10.3,1.68-15.5-.79-2.9-1.29-5.85-2.59-8.59s-3.19-4.98-4.99-7.28c-1.71-2.18-3.95-3.92-6.37-5.25-2.84-1.56-5.7-1.53-8.85-1.51-1.61,0-1.61,2.51,0,2.5,2.49-.01,4.93-.2,7.22.97,1.98,1.01,3.98,2.41,5.44,4.09,3.1,3.56,5.7,7.41,6.83,12.04.56,2.3,1.48,4.78,1.55,7.15s-.31,4.8-.94,7.05c-1.25,4.48-3.86,8.93-7.35,12.03-1.51,1.34-3.14,2.56-4.68,3.86-.75.63-1.56,1.21-2.52,1.45-1.27.33-2.65.13-3.94.04-2.37-.16-5.08.59-7.37-.11-1.96-.6-3.47-2.38-5.05-3.61-1.8-1.39-3.37-3.07-4.69-4.93s-2.2-3.95-3.32-5.93c-1.21-2.12-1.87-3.95-1.9-6.43s.05-4.73.59-7.08c.59-2.51.81-5.28,1.85-7.65s2.85-4.57,4.53-6.61,3.59-3.58,5.83-4.86c2.52-1.44,5.09-1.49,7.92-1.48,1.61,0,1.61-2.5,0-2.5Z" fill="#22251c"/>
          <path d="M131.74,100.98c-1.77-.06-3.35-1.27-4.65-2.38-1.46-1.24-2.32-2.74-2.93-4.54-.68-2-.58-3.89.11-5.87.56-1.62,1.35-3.47,2.53-4.73s3.07-1.58,4.77-1.58c1.84,0,3.23,1.13,4.65,2.14s2.6,1.88,3.17,3.6c.62,1.87.82,3.86.43,5.8-.2,1-.48,2.1-1.01,2.98-.46.75-1.19,1.28-1.9,1.77-1.55,1.07-3.19,2.73-5.17,2.8-1.6.06-1.61,2.56,0,2.5,2.44-.1,4.13-1.57,6.05-2.88s3.24-2.59,4-4.84c.83-2.46.93-5.07.36-7.59-.52-2.27-1.53-3.99-3.39-5.39-1.7-1.28-3.53-2.79-5.65-3.24s-4.7-.06-6.56.98c-1.96,1.1-3.06,3.22-3.94,5.2-1.01,2.27-1.72,4.67-1.31,7.18s1.69,5.34,3.66,7.14,4.17,3.35,6.8,3.44c1.61.06,1.61-2.44,0-2.5Z" fill="#22251c"/>
        </g>
      </g>
      <g>
        <path d="M166.25,68.02v55.74c0,1.15.93,2.09,2.09,2.09h14.29c1.12,0,2.04-.88,2.09-2l.73-18.39,13.86,17.16c.6.74,1.62.98,2.48.59l13.77-6.19c1.29-.58,1.64-2.25.7-3.3l-16.66-18.5c-1.77-1.96-1.29-5.05.98-6.39l13.42-7.92c2.2-1.3,2.73-4.24,1.12-6.22l-5.83-7.21c-.61-.75-1.66-.99-2.53-.57l-18.32,8.83c-1.39.67-2.99-.34-2.99-1.88v-7.93c0-1.15-.93-2.09-2.09-2.09h-12.93c-2.31,0-4.18,1.87-4.18,4.18Z" fill="#22251c"/>
        <path d="M165,68.02v40.55c0,5.04-.22,10.13,0,15.16.09,2.03,1.59,3.33,3.57,3.37,1.57.03,3.14,0,4.7,0h6.64c1.16,0,2.56.19,3.69-.15,1.9-.57,2.33-2.31,2.4-4.03l.2-4.99.47-11.74.03-.75-2.13.88c3.48,4.31,6.97,8.63,10.45,12.94,1.18,1.46,2.28,3.19,3.65,4.48,2.21,2.06,5.67-.33,7.87-1.32l8.77-3.94c1.17-.52,2.22-1.11,2.6-2.47s-.17-2.49-1.03-3.47c-3.97-4.52-8.06-8.95-12.08-13.42-1.42-1.57-2.93-3.09-4.26-4.74-1.19-1.46-.91-3.44.67-4.49.6-.4,1.24-.73,1.86-1.1l8.88-5.24c2.44-1.44,5.16-2.71,5.35-5.97.1-1.76-.72-3.11-1.78-4.41l-3.04-3.76c-.75-.93-1.46-1.93-2.27-2.81-1.19-1.28-2.76-1.39-4.29-.68-5.36,2.49-10.66,5.14-15.98,7.71-.64.31-1.36.81-2.05.99-1.35.35-1.17-1.17-1.17-2.01v-5.26c0-1.49.05-2.94-1.22-4-.99-.83-2.17-.77-3.37-.77h-9.94c-1.01,0-2.09-.08-3.08.17-2.44.61-3.99,2.81-4.09,5.26-.07,1.61,2.44,1.61,2.5,0,.15-3.66,4.47-2.93,6.96-2.93,2.86,0,5.75-.12,8.61,0,1.21.05,1.13.95,1.13,1.9v4.81c0,1.15-.18,2.54.37,3.59.92,1.72,2.88,2.15,4.57,1.39,5.02-2.27,9.94-4.79,14.91-7.19l2.85-1.37c.7-.34,1.14-.27,1.69.37,1.86,2.16,3.65,4.42,5.39,6.67.98,1.26,1.16,3-.1,4.18-.54.51-1.31.86-1.94,1.23l-8.39,4.95c-1.95,1.15-4.66,2.26-5.71,4.4s-.59,4.38.87,6.09c.31.37.65.72.97,1.08l12.37,13.73,2.35,2.61c.3.33.74.68.97,1.07.64,1.08-.7,1.46-1.44,1.79l-3.76,1.69-8.3,3.73c-.7.31-1.13.53-1.76-.18-.49-.56-.93-1.16-1.4-1.73-3.82-4.73-7.63-9.45-11.45-14.18l-.93-1.15c-.73-.9-2.09-.1-2.13.88l-.34,8.45-.25,6.24c-.05,1.15.06,2.44-.14,3.57s-1.33.89-2.22.89h-11.54c-.86,0-2.05.25-2.22-.89-.2-1.42,0-3.02,0-4.45v-35.25c0-5.24.18-10.51,0-15.75,0-.08,0-.16,0-.25,0-1.61-2.5-1.61-2.5,0Z" fill="#22251c"/>
      </g>
      <g>
        <path d="M44.5,96.39c9.33-4.82,7.87-2.21,6.66-18.56-.37-5.03-2.1-8.66-5.73-10.94-3.15-1.98-7.44-3.15-12.36-3.74-3.9-.47-8.28-.53-12.93-.47-4.11.05-8.43.89-12.89,1.11-1.02.05-2.3.42-2.27,1.44.2,7.63,1.02,7.61,1.21,15.23s0,7.63.19,15.26.52,7.62.72,15.25-.33,7.64-.14,15.27c.05,1.93,1.57,3.72,3.49,3.86,3.02.23,7.81.68,13.15.58,4.2-.08,8.77-.65,13.1-1.36,4.65-.76,8.78-2.56,12.21-4.48,4.13-2.32,7.52-5.21,7.6-9.95.09-5.58-1.49-9.39-2.77-12.18-3.38-7.34-14.82-3.45-9.24-6.34ZM22.84,84.32c-1.92-.08-3.9-1.04-4.03-2.96-.16-2.26.44-2.3.3-4.56-.06-.89-1.05-1.23-.21-1.56,7.66-1.17,16.33-.32,15.7,5.42-.43,3.97-7.38,3.82-11.76,3.65ZM39.85,113.21c-.57,5.21-10.97,5.29-15.13,4.95-.93-.07-1.4-1.23-1.46-2.15-.25-3.55-.26-3.55-.49-7.1-.06-1-1.19-1.47-.26-1.84,8.6-1.32,18.04-.31,17.34,6.14Z" fill="#22251c"/>
        <g>
          <path d="M45.13,97.47c1.97-1.01,4.15-1.84,5.94-3.16,1.41-1.04,2.06-2.42,2.2-4.16.21-2.66-.27-5.42-.51-8.06-.37-4.16-.36-8.55-2.64-12.23s-6.13-5.49-10.07-6.63c-4.92-1.42-10.11-1.74-15.2-1.81-2.68-.04-5.37-.05-8.05.19s-5.4.64-8.11.84c-1.85.14-4.57.12-4.92,2.5-.28,1.89.12,4.13.34,6.02.44,3.86.81,7.64.89,11.53.07,3.53.02,7.07.08,10.6.14,8.13,1.07,16.25.76,24.38-.06,1.57-.14,3.15-.16,4.72-.02,2.13-.35,4.69.76,6.61,1.01,1.74,2.66,2.45,4.58,2.6,2.2.17,4.4.35,6.6.45,5.42.25,10.76-.06,16.13-.81s9.96-2.02,14.61-4.46c3.58-1.88,7.3-4.32,8.78-8.27s.45-9.1-.95-12.96c-1.12-3.07-2.48-5.96-5.57-7.44-2.07-.98-4.75-1.38-6.81-1.46.2,0-.27-.06-.27-.06.43-.31-.12,1.81.53,1.67-.22.05.11-.06.24-.13.28-.16.55-.31.84-.46,1.43-.74.16-2.9-1.26-2.16-.71.37-1.67.78-2.01,1.57-.39.93.27,1.73,1.15,1.96,1.91.5,3.87.29,5.77,1,2.95,1.09,4.12,3.68,5.1,6.48.69,1.97,1.15,4.01,1.31,6.09s.17,4.24-.9,6.14c-1.94,3.45-6.08,5.46-9.54,7.03-4.64,2.1-9.62,2.88-14.65,3.43s-9.82.54-14.74.22c-.97-.06-1.95-.13-2.92-.21-.83-.06-1.86.01-2.63-.34-2.09-.96-1.64-3.75-1.64-5.61,0-3.22.25-6.43.22-9.65-.03-3.74-.23-7.46-.48-11.19-.48-7.41-.25-14.82-.48-22.23-.1-3.32-.6-6.56-.92-9.86-.09-.9-.15-1.8-.2-2.7-.03-.57-.09-1.15-.07-1.72.06-1.5-.16-.23.11-.48.16-.15.7-.17.9-.19,2.49-.28,5-.45,7.49-.73,4.96-.54,10.01-.53,14.99-.22,4.55.29,9.37.95,13.5,3,3.52,1.75,5.6,4.58,6.36,8.42.42,2.09.45,4.27.64,6.39.14,1.58.3,3.16.43,4.75.08,1.01.16,2.03.12,3.05-.02.63-.15,1.27-.32,1.63-.18.38-.57.74-.92.98-.73.51-1.55.91-2.34,1.3-1.12.56-2.24,1.11-3.35,1.68-1.43.74-.17,2.9,1.26,2.16Z" fill="#22251c"/>
          <path d="M22.84,83.07c-.81-.05-1.74-.25-2.34-.85s-.53-1.48-.44-2.25c.08-.72.28-1.43.31-2.16.03-.55.03-1.18-.14-1.71-.07-.2-.17-.42-.28-.61-.05-.08-.25-.53-.18-.26v.66l-.06.13-.45.45c.31-.23,1.11-.18,1.51-.23.62-.07,1.25-.12,1.88-.15,1.21-.07,2.43-.08,3.65,0,1.87.11,3.9.4,5.52,1.4,1.2.74,1.82,1.95,1.5,3.3-.14.58-.55.98-1.14,1.31-.76.43-1.64.63-2.49.77-2.24.39-4.58.28-6.84.19-1.61-.06-1.61,2.44,0,2.5,3.17.12,6.73.33,9.73-.9,1.4-.57,2.61-1.52,3.1-3,.45-1.37.23-3.05-.5-4.29-1.67-2.82-5.44-3.52-8.43-3.75-1.98-.16-3.99-.08-5.96.13-.91.1-2.17.05-2.89.66-.4.34-.59.79-.54,1.31.05.45.36.7.5,1.09.23.65-.03,1.56-.14,2.23-.18,1.04-.29,2.22.02,3.24.67,2.21,3,3.15,5.13,3.27,1.61.09,1.6-2.41,0-2.5Z" fill="#22251c"/>
          <path d="M38.6,113.21c-.14,1.11-1.23,1.95-2.37,2.48-1.49.69-3.2.99-4.82,1.16s-3.42.22-5.12.16c-.53-.02-1.38.13-1.59-.32-.43-.93-.29-2.23-.37-3.23s-.14-2.04-.21-3.07c-.05-.69-.01-1.44-.2-2.11-.08-.28-.21-.56-.36-.81-.04-.07-.08-.15-.13-.21-.16-.21-.05.02-.08-.16v.66c-.48.34-.56.5-.24.49l.26-.04c.24-.02.48-.06.72-.09.52-.06,1.05-.11,1.57-.16.95-.08,1.9-.12,2.85-.13,1.82-.01,3.65.09,5.42.51,1.29.31,2.66.76,3.63,1.7.91.87,1.16,1.95,1.04,3.18-.15,1.6,2.35,1.59,2.5,0,.37-3.93-2.73-6.31-6.2-7.21-2.11-.55-4.34-.7-6.52-.68-1.17.01-2.34.08-3.51.2-1.06.11-2.72.02-3.52.83-.38.38-.52.93-.4,1.45.1.41.4.67.54,1.04.18.48.11,1.15.14,1.66.03.48.06.96.1,1.44.06.87.12,1.73.19,2.6.09,1.22.06,2.52.74,3.59,1.01,1.58,3.06,1.38,4.72,1.39,1.79.01,3.58-.09,5.35-.35,3.54-.5,7.86-1.88,8.38-5.97.09-.68-.64-1.24-1.25-1.25-.75,0-1.16.58-1.25,1.25Z" fill="#22251c"/>
        </g>
      </g>
    </g>
  </g>
</svg>