<?xml version="1.0" encoding="UTF-8"?>
<svg id="_레이어_2" data-name="레이어_2" xmlns="http://www.w3.org/2000/svg" viewBox="0 0 419.74 109.17">
  <g id="GUIDE">
    <g>
      <path d="M374.59,29.38c-1.03,1.59-2.02,3.16-2.93,4.81-.45.82-.83,1.6-1.14,2.47s-.73,1.76-.92,2.66c-.23,1.08-.31,2.21-.46,3.3-.18,1.27.48,2.26,1.81,2.37.91.08,1.81.15,2.72.23s1.69.19,2.49-.39c1.37-.99,2.72-2,4.17-2.88.91-.55,1.83-1.1,2.74-1.65,1.1-.66,1.16-2.03.38-2.94s-1.51-1.78-2.27-2.66l.48.83c-.46-1.15-.88-2.34-1.39-3.47-.3-.67-.97-1.22-1.47-1.74l-1.26-1.33c-.7-.74-1.95-.7-2.65,0s-.7,1.91,0,2.65c.78.82,1.56,1.65,2.34,2.47l-.48-.83c.22.56.45,1.12.67,1.68.26.64.46,1.41.81,2.01s.91,1.1,1.34,1.61c.41.48.81.95,1.22,1.43l.38-2.94c-1.25.75-2.53,1.46-3.75,2.26s-2.33,1.67-3.49,2.51l.95-.26c-1.31-.11-2.62-.22-3.93-.34l1.81,2.37c.14-1,.28-2,.42-3,.12-.82.48-1.6.76-2.39.14-.41.42-.91.47-1.34,0,.03-.32.63-.08.23.13-.22.24-.44.36-.66.44-.8.84-1.62,1.32-2.39.58-.95,1.21-1.87,1.81-2.8.55-.85.17-2.07-.67-2.57-.91-.53-2.01-.18-2.57.67Z" fill="#787d6f"/>
      <path d="M382.98,40.42c2.48-1.7,5.14-3.36,7.25-5.5.57-.58,1.57-1.27,1.95-1.99.07-.12-.4.22-.26.2.12-.01.3-.15.39-.2l1.37-.71c.68-.35,1.42-.65,2.01-1.14.7-.59,1.36-1.23,2.03-1.84,1.15-1.04,2.39-1.97,3.57-2.97.46-.38-.53.34.06-.03.42-.26.82-.56,1.23-.83.7-.47,1.44-.91,2.08-1.45s1.23-1.11,1.85-1.67c.28-.25.67-.51.9-.81.18-.23-.29.2-.25.19.14-.03.28-.17.41-.24,1.43-.78,2.85-1.51,3.95-2.71l1.18-1.29c.17-.18.35-.36.51-.56.07-.08.39-.49.06-.12-.27.29-.1.08.04-.02.2-.13.39-.27.59-.4l1.43-.98c1.46-1,2.62-2.24,3.86-3.49.57-.57.74-1.57.29-2.27-.95-1.5-1.9-2.98-2.76-4.54-.96-1.74-2.15-3.03-3.5-4.5-.56-.61-1.58-.7-2.27-.29-2.56,1.52-5.53,2.77-7.71,4.79-1.18,1.09-2.36,2.17-3.56,3.23-.33.29-.67.58-.99.88-.57.53.43-.18-.14.09-.88.43-1.72.98-2.58,1.47-2.55,1.45-5.09,2.95-7.19,5.03-.62.61-1.17,1.32-1.75,1.98-.19.21-.66.56-.74.83-.08.28.4-.2.23-.16-.15.03-.33.18-.46.26-1.5.84-2.89,1.54-4.11,2.76-1.31,1.31-2.63,2.5-4.06,3.69-1.25,1.04-2.15,2.41-3.15,3.69-.63.8-.77,1.86,0,2.65.64.66,2.03.8,2.65,0,.83-1.07,1.6-2.32,2.6-3.23,1.1-1.01,2.32-1.87,3.38-2.92.58-.58,1.62-1.28,2.01-2,.15-.28-.43.21-.23.17.1-.02.22-.13.31-.18.48-.25.95-.53,1.43-.8.66-.37,1.45-.69,2.01-1.22.62-.59,1.16-1.31,1.73-1.96,1.04-1.17,2.24-2.09,3.44-3.1.1-.08.2-.16.29-.24.03-.02-.52.27-.24.2.36-.08.83-.49,1.15-.68.69-.41,1.38-.82,2.07-1.23,1.26-.73,2.7-1.34,3.82-2.28s2.22-1.96,3.3-2.96c.72-.66,1.68-1.32,2.27-2.1.07-.09-.55.28-.18.16.16-.05.32-.18.47-.26l1.6-.87c1.43-.78,2.82-1.62,4.23-2.45l-2.27-.29c.67.73,1.33,1.48,2.01,2.19.11.11.22.23.32.35-.51-.57-.24-.33-.13-.09.24.51.55,1,.83,1.5.82,1.48,1.73,2.9,2.64,4.33l.29-2.27-1.72,1.72c-.13.13-.76.59-.8.8-.02.12.46-.29.22-.17-.17.08-.32.22-.47.32-1.32.91-2.64,1.71-3.73,2.89-.48.53-1.55,1.31-1.81,1.98-.03.08.48-.23.22-.18-.14.03-.29.17-.42.24l-1.36.79c-1.44.84-2.55,1.78-3.79,2.9-.27.24-.62.48-.85.76-.14.18.47-.3.26-.2-.16.08-.32.21-.47.32-.81.55-1.63,1.09-2.43,1.65-1.23.87-2.41,1.86-3.55,2.84-.61.52-1.19,1.08-1.78,1.62-.3.27-.65.53-.92.83-.25.27.12-.13.23-.16-.13.03-.25.14-.37.19-1.46.68-2.93,1.37-4.06,2.52-1.32,1.35-2.58,2.5-4.07,3.66-.33.25-.65.52-.98.76.65-.47-.05,0-.36.22-.82.56-1.63,1.12-2.45,1.68-1.98,1.36-.1,4.61,1.89,3.24h0Z" fill="#787d6f"/>
    </g>
    <path d="M24.58,105.5c.86-.19,1.91-.27,2.68-.73s1.45-1.13,2.13-1.67l-1.77.73c.88.04,1.92.24,2.77,0s1.68-.91,2.43-1.36l-1.93.25c.66.16,1.31.33,1.98.47,1.05.21,1.72-.1,2.65-.46.16-.06.35-.11.51-.2.58-.32-.29.14-.36-.02.03.07,1.04.05,1.11.06.08,0,.84-.02.87.05.14.29-.94-.32-.37,0,.17.1.42.15.6.22,1.06.39,2.14.49,3.21.82.39.12.78.3,1.16.44.15.06.29.12.44.17.49.17-.38-.15-.38-.16.06-.05,1.55.98,1.7,1.08l-.9-.9,1.3,1.95c.97,1.46,2.62,1.53,3.93.51l1.8-1.41-1.77.73c.86-.09,1.81-.09,2.65-.3.64-.16,1.23-.5,1.87-.66s1.33-.22,1.97-.29c-1.32.13-.07.09.26.1l1.12.02-1.26-.34c.6.3,1.19.61,1.79.89.74.35,1.49.44,2.28.62.57.13,1.12.33,1.69.48-.02,0,.45.13.45.14-.03.12-.83-.54-.31-.06.29.27.69.52,1.02.74,1.3.87,3.65,1.22,4.97.42s2.22-1.77,3.19-2.99l-1.1.64,1.31-.54c.12-.05.27-.09.38-.16.33-.2.21.07-.07-.06-.16-.08-.44.06-.13.01.12-.02.25-.03.37-.05l.93-.12c.11-.01.27,0,.37-.05.25-.1.18.18-.13-.07-.15-.12-.43-.06-.13-.02.12.02.25.04.37.05.34.05.68.1,1.03.15,2.02.29,3.95-.02,5.95-.31l-1.93-.25c1.97.88,3.65,1.89,5.36,3.19.92.69,2.26.28,3.03-.39l1.61-1.4-1.1.64c.67-.16,1.38-.26,2.03-.47.44-.15.89-.39,1.31-.6.18-.09.89-.58,1.11-.53-.07-.02-.86.34-.3.14.2-.07.4-.15.6-.23.28-.11,1.8-.63.45-.32.63-.14,1.39-.22,2.04-.23.68-.01,1.37.16,2.05.15.34,0,.69-.06,1.03-.1.24-.02.52-.01.75-.07.63-.16-.53.23-.35-.1-.04.07,2.33.8,2.59.82.69.06,1.39.06,2.09.09l-1.77-.73c.68.58,1.36,1.32,2.14,1.77.42.25.99.38,1.45.54.21.07.43.15.64.22s.62.33.14.02c-.55-.35.04.03.19.1.22.11.43.21.65.31.78.37,1.52.73,2.42.48.84-.23,1.61-.88,2.34-1.33l-1.26.34c.93-.07,2.03,0,2.94-.25s1.78-.81,2.61-1.21l-1.93.25c.93.14,1.96.42,2.9.42s1.94-.46,2.82-.71h-1.33c1.24.25,2.45.51,3.71.58.36.02.72.06,1.08.06.64,0-.76-.23-.15-.01s1.27.33,1.89.49l-1.1-.64c1.12,1.04,2.26,2.05,3.41,3.06,1.05.92,2.48.96,3.54,0,.6-.55,1.2-1.1,1.8-1.64l-1.1.64c.97-.27,2.1-.43,2.93-1.02.69-.49,1.31-1.12,1.94-1.68l-1.77.73c2.39-.21,4.67-.7,7.02-1.15h-1.33c.7.18,1.41.41,2.12.55.53.1,1.08.12,1.61.16.24.02.49.06.73.06.61,0-.76-.16-.31-.05.85.21,1.83.38,2.7.37.46,0,.99,0,1.44-.09.54-.11-.57-.28-.3-.05.15.13.47.17.66.24.24.09.49.19.73.27.63.21-.25-.15-.28-.13.11-.06,1.01.63,1.18.73.64.4,1.34.65,2.03.94.87.37,1.97.73,2.93.73,1.24,0,2.24-1.12,3.14-1.86l-1.1.64c1.46-.56,2.8-1.16,4.16-1.94l-1.26.34c.77-.05,1.55-.08,2.32-.17.4-.05.81-.13,1.21-.19.2-.03.88-.28,1.07-.18.17.08-.98-.09-.33.12.19.06.47.06.67.09.32.04.65.11.98.12.66.04,1.35-.04,2.01-.06l-1.26-.34c1.01.68,1.95,1.25,3.08,1.72,1.04.44,2,.58,3.12.75l-1.49-1.15,1.15,1.83c.79,1.26,2.85,1.79,3.93.51.3-.36.63-.7.9-1.08.3-.41.35-.17.07-.18-.25,0-.27.19.14-.08.24-.17.5-.33.73-.51.18-.15.81-.77-.17-.04.34-.25.91-.31,1.3-.48.19-.09,1.07-.54-.16-.09.12-.04.35-.04.46-.05.48-.04.96-.09,1.44-.14,1.09-.13,2.1-.74,3.09-1.21l-1.93.25c.82.19,1.72.5,2.56.52.66.01,1.36-.14,2.02-.21l-1.26-.34c1.63.88,3.24,1.71,4.73,2.81.82.6,2.38.39,3.03-.39.46-.55.92-1.11,1.37-1.66l-1.1.64c.7-.24,1.41-.56,2.13-.73s1.5-.15,2.23-.3c.2-.04,2.26-.55,2.26-.64,0,.34-.97,0-.38.09.27.04.56.02.83.03l1.08.04-1.26-.34c.85.39,1.76.94,2.67,1.19s1.98,0,2.88-.05l-1.26-.34c1.45.88,2.87,1.56,4.44,2.2.86.35,1.79-.12,2.43-.64,1.14-.93,2.15-1.86,3.16-2.92l-1.1.64c.77-.19,1.54-.41,2.32-.57.55-.12,1.11-.18,1.66-.32s-.78-.03-.25.05c.3.05.65,0,.96,0,1.1,0,2.15-.17,3.24-.33.85-.13-.08.11-.15.02.05.07.62.02.71.03l1.43.06-1.26-.34c.59.45,1.17,1,1.81,1.37.78.45,1.83.52,2.69.7,3.14.67,4.48-4.15,1.33-4.82l-1.41-.3s-.65-.1-.66-.14c-.03-.17.87.58.2-.03-.88-.8-1.77-1.37-2.97-1.45-1.05-.07-2.02-.07-3.06.08-.52.08-1.08.24-1.61.24,1.4-.02-.33-.09-.66-.09-1.8-.01-3.75.44-5.47.97-1.18.36-1.78,1.26-2.62,2.08-.57.55-1.21,1.03-1.83,1.53l2.43-.64c-.59-.24-1.18-.49-1.77-.72-.43-.18.73.42.1,0-.33-.23-.69-.42-1.04-.63-1.33-.81-2.54-.63-4.02-.54l1.26.34c-.61-.28-1.21-.56-1.82-.83-.81-.36-1.5-.45-2.36-.48-.71-.03-1.39-.09-2.09.07s-1.39.44-2.1.6c-1.11.24-2.17.28-3.25.64-.81.28-1.71.49-2.34,1.11-.48.48-.88,1.07-1.32,1.59l3.03-.39c-.89-.65-1.75-1.19-2.73-1.72-1.03-.56-2.2-1.44-3.4-1.42-.44.01-1.38-.02-1.76.18-.22.11.53.12.45.08-.12-.05-.28-.06-.4-.09-.34-.08-.67-.16-1.01-.23-1.61-.34-2.75.37-4.15,1.03l1.26-.34c-1.67.17-3.16.36-4.7,1.07s-2.53,1.81-3.55,3.03l3.93.51c-.47-.76-.9-1.7-1.54-2.34-.89-.89-2.09-.67-3.2-.97-.28-.08-.54-.22-.81-.33-.24-.1-.48-.2-.71-.3-.59-.25.34.24.21.06-.51-.68-2.11-1.38-2.88-1.41-.69-.03-1.39.09-2.09.05-.96-.06-1.76-.27-2.72-.11-.45.07-.89.15-1.33.23-.14.02-.77.19-.12.03s-.09-.02-.3,0c-1.15.07-2.14.16-3.16.74-.24.14-.49.27-.73.42-.78.47.11.05.11.02-.02.12-1.38.52-1.51.58-1.08.42-1.88,1.15-2.76,1.88l2.43-.64c-.4-.09-.81-.22-1.21-.26-.7-.07.34.2.14.13-.25-.1-.49-.21-.74-.31-.81-.34-1.48-.79-2.25-1.23s-1.76-.83-2.63-1.06c-.51-.13-.94-.09-1.44-.05-.3.02-.63.01-.92.06-.67.11.53.16.22.08-.94-.21-1.92-.35-2.88-.43-.17-.01-1.24-.22-1.36-.1.18-.18.94.2.21-.02-.28-.09-.58-.15-.87-.22-1.94-.5-3.95.08-5.88.55-.9.22.16-.03.16.02,0,0-.71.06-.71.06-.48.04-.95.07-1.43.13-1.44.16-2.42,1.3-3.46,2.22l1.1-.64c-1.08.3-2.3.48-3.18,1.22-.62.52-1.2,1.1-1.8,1.64h3.54c-.87-.76-1.74-1.52-2.59-2.3-.63-.58-1.19-1.17-2.04-1.43-.65-.2-1.34-.39-2.01-.52-.76-.15-1.57-.14-2.34-.18-.14,0-.28-.03-.42-.02-.38.03.78.17.42.06s-.73-.15-1.09-.22c-.85-.17-1.61-.35-2.49-.14-.66.16-1.32.38-1.97.57h1.33c-1-.15-2.23-.51-3.23-.38s-2.04.82-2.94,1.25l1.26-.34c-.86.06-1.76.05-2.61.2-.98.18-1.83.86-2.67,1.38h2.52c-1.37-.65-2.72-1.19-4.16-1.68l1.1.64c-.54-.46-1.08-.93-1.63-1.38-.97-.79-2.42-.87-3.65-.81-.45.02.39.07.38.05-.05-.1-.46-.17-.57-.21-.4-.15-.81-.35-1.23-.47-.88-.24-1.77.03-2.67.06-.69.02-1.38-.13-2.07-.13s-1.41.13-2.11.22c-1.68.21-3.39,1.08-4.88,1.86-.51.26.28-.11.27-.11-.11-.05-.61.14-.7.16-.41.09-.83.16-1.23.29-1.03.33-1.93,1.35-2.73,2.04l3.03-.39c-1.11-.84-2.21-1.68-3.45-2.33-.62-.32-1.28-.58-1.92-.86-1.18-.52-2.42-.18-3.65,0-.93.14.71-.01-.12-.02-.44,0-.93-.01-1.37.04-.56.07.34.09.31.09-.16-.03-.33-.05-.49-.07-.45-.07-.91-.14-1.36-.2-1.77-.25-3.52.23-5.14.9-1.15.48-1.79,1.09-2.5,2.1-.05.07-.14.14-.17.21-.12.28-.21-.06.11-.03-.02,0,.39-.25.14-.11-.1.06-.2.14-.29.2-.39.26-.78.53-1.17.8l1.93-.25-.93-.17c-.21-.04-.43-.1-.64-.12-.56-.04.21.08.23.14-.09-.24-.81-.59-1.02-.74-.39-.28-.72-.49-1.19-.65-.63-.22-1.28-.42-1.93-.57-.42-.1-.85-.19-1.27-.26-.03,0-.46-.1-.46-.09,0-.01.88.42.22.08-.87-.45-1.84-1.04-2.83-1.1-.87-.06-1.77-.06-2.64.06-.65.09-1.33.13-1.97.28-.23.05-1.85.5-1.87.66,0-.06,1-.11.22-.03-.31.03-.63.07-.94.1-.78.08-1.48.14-2.14.6-.71.49-1.37,1.07-2.05,1.6l3.93.51c-.4-.6-.79-1.21-1.2-1.8-.56-.79-1.26-1.22-2.06-1.72-1.14-.73-2.51-1.28-3.84-1.53s-2.7-.95-4.09-1.06c-.81-.06-1.78-.22-2.59-.01-.68.17-1.36.53-2.02.79h1.33c-.95-.22-2.08-.66-3.06-.53s-1.93.9-2.77,1.41l1.26-.34c-.98-.04-2.15-.27-3.07.12-.87.37-1.69,1.22-2.43,1.8l1.1-.64-2.08.47c-3.14.71-1.81,5.54,1.33,4.82h0Z" fill="#dee8c4"/>
    <path d="M.34,53.55c.3.48.6.97.89,1.45.04.06.07.12.11.18.27.4.6.67.97.96.25.19.51.39.76.58.36.28.72.54,1.09.8.55.37,1.13.88,1.8,1.02.61.13,1.23.2,1.85.3l-.6-.25,1.62.84c1.16.6,2.77.34,3.42-.9.61-1.15.34-2.78-.9-3.42l-.84-.44c-.41-.21-.93-.56-1.38-.65-.64-.14-1.29-.21-1.93-.31l.6.25c-1.04-.7-2.04-1.42-3.04-2.19l.9.9c-.34-.55-.67-1.09-1.01-1.64-.69-1.11-2.27-1.64-3.42-.9s-1.63,2.23-.9,3.42H.34Z" fill="#dee8c4"/>
    <path d="M22.66,30.95c.57,1.41,1.12,2.83,1.64,4.27l-.09-.66c.09.77.17,1.54.26,2.31.08.68.23,1.26.73,1.77.43.43,1.15.76,1.77.73s1.32-.24,1.77-.73c.42-.46.8-1.12.73-1.77-.05-.47-.1-.94-.16-1.41-.06-.53-.06-1.19-.23-1.69-.3-.86-.6-1.71-.95-2.55-.22-.53-.43-1.06-.65-1.6-.26-.63-.54-1.14-1.15-1.49-.54-.31-1.33-.45-1.93-.25s-1.19.57-1.49,1.15-.5,1.32-.25,1.93h0Z" fill="#dee8c4"/>
  </g>
</svg>