<?xml version="1.0" encoding="UTF-8"?>
<svg id="_레이어_2" data-name="레이어_2" xmlns="http://www.w3.org/2000/svg" viewBox="0 0 163.54 144.84">
  <g id="_레이어_3" data-name="레이어_3">
    <g>
      <g>
        <path d="M83.32,84.78c.15.48.32.96.47,1.44.09.31.29.58.57.75.14.09.3.14.46.15.17.04.33.03.5-.02.3-.1.59-.29.75-.57s.23-.64.13-.96c-.15-.48-.32-.96-.47-1.44-.09-.31-.29-.58-.57-.75-.14-.09-.3-.14-.46-.15-.17-.04-.33-.03-.5.02-.3.1-.59.29-.75.57s-.23.64-.13.96h0Z" fill="#22251c"/>
        <path d="M102.27,78.32c.07.24.16.48.23.72.04.16.11.3.22.43.09.14.21.24.35.32.14.09.3.14.46.15.17.04.33.03.5-.02l.3-.13c.19-.11.34-.26.45-.45l.13-.3c.06-.22.06-.44,0-.66-.07-.24-.16-.48-.23-.72-.04-.16-.11-.3-.22-.43-.09-.14-.21-.24-.35-.32-.14-.09-.3-.14-.46-.15-.17-.04-.33-.03-.5.02l-.3.13c-.19.11-.34.26-.45.45l-.13.3c-.06.22-.06.44,0,.66h0Z" fill="#22251c"/>
        <path d="M93.17,89.98c.59-.11,1.19-.22,1.77-.41.61-.2,1.18-.48,1.77-.73-.24.11.18-.08.23-.09.2-.09.41-.17.61-.26.24-.11.48-.22.71-.35.25-.14.48-.31.7-.48.17-.13.34-.26.51-.39q.11-.09,0,0c.06-.04.11-.09.17-.13.52-.39.84-1.1.45-1.71-.33-.52-1.15-.87-1.71-.45-.17.13-.34.26-.51.39-.04.03-.39.31-.17.13-.2.15-.4.3-.61.43-.26.16-.53.28-.8.4.2-.09-.06.03-.12.05-.2.08-.41.17-.61.26-.24.1-.49.21-.73.32-.13.06-.14.06-.01,0-.07.03-.14.06-.21.08-.14.05-.28.1-.43.15-.54.17-1.1.27-1.66.38-.64.12-1.07.93-.87,1.54.22.69.85,1,1.54.87h0Z" fill="#22251c"/>
        <path d="M65.43,40.91s-15.79,10.36-14.82,15.8,9.08,20.08,18.49,17.92,12.73-6.82,12.73-6.82l.61-1.86s4.01,5.27,9.67,3.84,7.91-5.17,7.91-5.17l1.88-3.59s5.01,4.75,9.45,3.32,4.23-2.42,4.23-2.42c0,0-10.53-24.26-29.65-24.82s-20.85,4.79-20.85,4.79" fill="#22251c"/>
        <g>
          <path d="M100.91,58.78c-.12-.32-.19-.66-.24-1l.04.33c-.03-.25-.05-.5-.08-.75-.03-.28-.05-.58-.14-.86-.14-.43-.38-.81-.78-1.05-.15-.09-.3-.16-.47-.19-.32-.06-.55-.05-.87,0-.11.02-.22.05-.33.09-.19.07-.39.14-.56.25-.37.23-.66.56-.77.98-.19.74.21,1.37.71,1.87.4.4.83.77,1.17,1.21l-.2-.25c.08.1.15.2.21.3.18.27.43.49.75.57.3.08.7.05.96-.13s.5-.43.57-.75.06-.68-.13-.96c-.3-.47-.67-.89-1.07-1.28-.26-.25-.54-.48-.76-.76l.2.25c-.05-.06-.09-.12-.12-.19l.13.3s-.02-.07-.03-.1l.04.33s0-.05,0-.08l-.04.33s0-.04.01-.05l-.13.3s.03-.05.04-.08l-.2.25s.05-.05.07-.07l-.25.2c.07-.05.14-.09.22-.13l-.3.13c.15-.06.3-.11.47-.14l-.33.04c.06,0,.12,0,.18,0l-.33-.04s.07.01.11.03l-.3-.13s.06.03.09.05l-.25-.2s.05.05.07.07l-.2-.25s.05.08.07.13l-.13-.3c.05.13.08.27.1.41l-.04-.33c.1.76.11,1.54.38,2.27.11.31.28.57.57.75.27.16.66.22.96.13s.59-.29.75-.57.24-.65.13-.96Z" fill="#22251c"/>
          <path d="M70.33,75.96c4.43-.5,8.71-1.69,11.27-5.62.93-1.43,1.13-2.98.69-4.62-.27-1-.67-1.96-1-2.94-.14-.41-.28-.82-.4-1.24-.03-.11-.04-.26-.1-.36-.27-.48.95-.56-.36.87l-1.22.32c-.45-.07-.71-.65-.4-.13.14.23.28.45.42.68.45.73.91,1.45,1.4,2.15,1.11,1.6,2.35,3.17,3.94,4.32,4.12,2.95,10.32,2.52,14.2-.63,2.92-2.37,3.45-6.2,2.27-9.62-.28-.81-.94-1.84-1.73-2.26l-.08-.08c-.39-.39-.52.03-.39,1.25-1.39-.18-.42-1-.54-.34-.08.46.17,1.22.34,1.65.57,1.42,1.95,2.79,3.11,3.75,4.32,3.56,9.68,3.1,14.45.64.48-.25.73-.9.57-1.41-1.18-3.97-3.43-7.56-5.81-10.92-2.24-3.17-4.95-5.83-8.02-8.18s-6.08-4.84-9.82-6.06-8.15-1.65-12.22-1.52c-7.91.26-15.89,3.43-21.99,8.42-2.94,2.4-5.49,5.32-7.54,8.52-.91,1.42-2.46,3.29-1.9,5.02s1.25,3.56,2.02,5.28c1.68,3.76,3.96,7.25,7.3,9.74s7.42,3.72,11.53,3.34c1.59-.15,1.6-2.65,0-2.5-4.66.43-9.09-1.44-12.28-4.83s-4.95-7.92-6.34-12.26l-.13.96c4.66-9.49,13.36-16.05,23.61-18.42,5.37-1.24,11.35-1.1,16.64.47,2.48.73,4.64,2.07,6.71,3.6s4.13,3.06,6,4.82c2.13,2,3.88,4.25,5.49,6.68,1.77,2.67,3.42,5.44,4.33,8.52l.57-1.41c-2.85,1.47-6.18,2.35-9.27,1.05-1.75-.74-3.89-2.39-4.68-4.18-.46-1.05-.07-2.45-1.48-2.88-1.03-.32-2.63.34-2.75,1.5-.14,1.33,1.39,1.72,1.87,2.73.41.84.53,1.98.52,2.9-.04,6.56-9.88,7.71-13.88,4.05-1.7-1.55-2.89-3.54-4.11-5.47-.32-.51-.65-1.16-1.29-1.32-1.21-.3-1.73.86-1.51,1.84.52,2.35,2.58,4.97,1.07,7.28-2.03,3.1-5.62,3.99-9.11,4.38-1.58.18-1.6,2.68,0,2.5Z" fill="#22251c"/>
          <path d="M98.56,59.23c.59,1.61.86,3.39.02,4.97-1.32,2.45-4.77,3.78-7.4,3.92-5.06.28-7.43-3.93-10.1-7.42-1.14-1.49-2.97-.71-2.53,1.19.41,1.72,1.97,4.07,1.26,5.87-.8,2.02-2.97,3.78-4.89,4.68-2.84,1.34-6.26,1.66-9.28.82-7.62-2.12-11.58-9.66-13.82-16.64-.3-.94-1.8-1.33-2.28-.3-1.93,4.08-2.83,8.45-3.04,12.95s-.49,9.66,1.02,14.06c2.86,8.36,9.09,15.09,16.85,19.22,3.96,2.11,8.41,3.57,12.85,4.2,2.32.33,4.63.3,6.97.4s4.81.27,7.19-.13c4.33-.72,7.45-3.79,10.83-6.32,1.8-1.35,3.59-2.71,5.2-4.29s2.85-3.26,4.17-5c1.49-1.97,3.04-3.92,4.13-6.14s1.61-4.69,1.75-7.21c.15-2.69.06-5.43,0-8.12s-.33-5.21-1.02-7.73c-.22-.81-1.13-1.11-1.84-.75-2.82,1.46-6.16,2.38-9.2,1.02-1.93-.86-3.41-2.45-4.53-4.2-.87-1.35-3.03-.1-2.16,1.26,1.47,2.28,3.41,4.27,5.95,5.32,3.75,1.56,7.74.55,11.21-1.24l-1.84-.75c1.14,4.18.99,8.59.99,12.89,0,2.15-.09,4.32-.72,6.39s-1.75,3.78-2.96,5.46c-2.36,3.28-4.78,6.45-7.91,9.04-1.56,1.29-3.22,2.46-4.8,3.72s-3.05,2.41-4.79,3.26c-3.88,1.91-8.74,1.07-12.91.95s-8.24-1.18-12.11-2.71-7.22-3.85-10.34-6.48-5.52-6.05-7.31-9.76c-1.06-2.2-1.85-4.51-2.08-6.96s-.15-4.91-.13-7.35c.04-4.72.72-9.43,2.75-13.73l-2.28-.3c2.46,7.64,6.74,15.45,14.82,18.16,6.2,2.08,14.88-.13,17.78-6.5.61-1.33.51-2.69.12-4.07-.24-.84-.54-1.67-.82-2.5-.11-.35-.22-.71-.33-1.06-.14-.43.04-.23-.08.11l-.57.75h.02c-.32.03-.64.07-.96.11-.44-.31-.57-.38-.39-.2.08.09.08.09,0,0,.05.16.26.37.36.5.34.48.67.97,1.02,1.44.83,1.15,1.7,2.29,2.7,3.3,2.28,2.31,5.41,3.61,8.68,3.27s7.19-1.99,8.92-5c1.24-2.16,1.12-4.73.29-7-.55-1.5-2.96-.85-2.41.66Z" fill="#22251c"/>
        </g>
      </g>
      <path d="M160.7,72.69c0,4.03-.2,7.89-1,11.86s-1.9,7.63-3.67,11.2c-1.6,3.24-2.29,6.76-4.27,9.81-1.06,1.65-2.17,3.34-3.42,4.84-1.19,1.42-2.49,2.74-3.69,4.16-1.26,1.5-2.54,2.98-3.92,4.39-1.21,1.24-2.27,2.61-3.48,3.85-2.75,2.79-6.41,4.99-9.77,6.94s-6.74,3.36-10.14,5.03c-1.81.89-3.64,1.7-5.56,2.31s-3.73,1.04-5.55,1.68-3.44,1.33-5.25,1.73c-1.92.42-3.88.68-5.83.95-2.08.29-4.17.2-6.26.31-1.96.11-3.9.36-5.86.43s-3.95.16-5.92.18-3.78-.32-5.68-.76c-3.75-.87-7.61-1.44-11.39-2.19-1.89-.38-3.73-.91-5.59-1.38s-3.65-.8-5.31-1.61-3.05-1.9-4.66-2.71c-1.74-.88-3.57-1.58-5.29-2.51-3.36-1.79-6.47-4.16-9.61-6.31s-6.18-4.91-8.8-7.78c-1.31-1.45-2.64-2.91-3.7-4.56s-1.97-3.27-3.13-4.79c-2.22-2.9-4.32-5.98-5.92-9.28s-2.58-7.07-3.1-10.67c-.27-1.86-.7-3.59-1.3-5.36-.65-1.89-.93-3.69-1.03-5.69s-.08-4.13-.09-6.2-.07-4,.47-5.9,1.26-3.51,1.65-5.36.79-3.84,1.38-5.7c1.15-3.63,2.6-7.31,4.25-10.74s3.46-6.66,6.03-9.35c1.32-1.38,2.55-2.85,3.91-4.2,1.28-1.27,2.66-2.44,3.83-3.81s2.13-2.75,3.47-3.87c1.44-1.21,3.11-2.13,4.67-3.17,6.49-4.36,13.22-9.06,21.02-10.68,1.81-.38,3.53-.82,5.24-1.55s3.48-1.4,5.39-1.77,3.99-.74,5.99-.89,3.93,0,5.89-.2c1.84-.19,3.64-.73,5.49-.84s3.72.53,5.6.87,3.77.21,5.69.15c2.12-.06,4.15.37,6.21.83,3.71.84,7.19,2.2,10.8,3.39,1.83.6,3.62,1.33,5.44,1.95s3.59,1.09,5.25,1.97,3.09,1.98,4.66,2.92,3.16,1.47,4.74,2.23c3.2,1.55,5.22,4.7,8.17,6.65,1.49.98,2.98,1.87,4.15,3.25s1.98,2.85,3.07,4.21c1.15,1.43,2.51,2.67,3.69,4.08s2.14,3.1,3.06,4.73c1.89,3.35,3.81,6.75,4.91,10.46.55,1.84,1.03,3.67,1.78,5.45s1.36,3.44,1.74,5.32.8,3.83.88,5.77-.29,3.96-.32,5.94c-.02,1.61,2.48,1.61,2.5,0,.03-2.06.43-4.11.32-6.17s-.55-4.16-.96-6.2c-.39-1.92-1.05-3.66-1.81-5.47s-1.23-3.66-1.78-5.51c-1.15-3.83-3.14-7.37-5.1-10.84-.92-1.63-1.86-3.26-3.03-4.73s-2.62-2.8-3.85-4.27-2.12-3.09-3.33-4.52-2.63-2.34-4.12-3.3c-3.1-2-5.21-5.24-8.52-6.9-1.63-.82-3.36-1.38-4.92-2.32s-3.16-2.15-4.86-3.03-3.6-1.43-5.44-2.05-3.75-1.4-5.65-2.02-3.7-1.24-5.54-1.94c-1.93-.74-3.94-1.16-5.96-1.6s-3.93-.81-5.94-.78-4.08.22-6.14-.24c-1.86-.42-3.69-.91-5.62-.77s-3.94.75-5.94.88-4.11-.01-6.15.24-3.98.55-5.95.94-3.82,1.17-5.72,1.96c-1.8.74-3.66,1.08-5.55,1.49-3.87.86-7.79,2.72-11.24,4.67s-6.83,4.35-10.25,6.57c-1.62,1.05-3.31,2.05-4.75,3.35-1.34,1.21-2.35,2.73-3.56,4.07s-2.73,2.61-4.04,3.97-2.61,2.82-3.91,4.22c-2.58,2.78-4.54,6.36-6.09,9.81-1.63,3.63-3.21,7.38-4.36,11.19-.59,1.96-.93,3.96-1.38,5.95-.43,1.89-1.33,3.63-1.72,5.52C-.06,66.85,0,68.97,0,71.02s0,4.13.11,6.19.39,3.8,1.02,5.67,1.12,3.78,1.41,5.8c.53,3.68,1.64,7.48,3.22,10.85s3.94,6.73,6.28,9.83c1.15,1.53,2.05,3.22,3.11,4.81s2.39,3.08,3.69,4.52c2.7,3,5.79,5.79,9.1,8.1s6.62,4.81,10.18,6.67c1.78.93,3.68,1.64,5.45,2.59,1.59.85,3.03,1.95,4.67,2.7s3.51,1.19,5.32,1.63c2.02.5,4,1.07,6.04,1.48,3.93.78,7.91,1.4,11.8,2.3s8.02.7,12.09.5c2.04-.1,4.06-.37,6.1-.44s4.14-.08,6.21-.37,4.06-.54,6.05-1c1.87-.43,3.63-1.21,5.44-1.82,1.91-.65,3.89-1.11,5.81-1.75s3.84-1.54,5.7-2.45c3.55-1.74,7.13-3.27,10.54-5.28s7.07-4.28,9.81-7.12,5.29-5.82,7.85-8.79c1.23-1.43,2.58-2.76,3.74-4.26,1.22-1.58,2.36-3.25,3.42-4.94s1.75-3.33,2.33-5.18,1.33-3.5,2.17-5.22c1.74-3.55,2.77-7.4,3.52-11.27s1-7.97,1-12.06c0-1.61-2.5-1.61-2.5,0Z" fill="#22251c"/>
    </g>
  </g>
</svg>