<?xml version="1.0" encoding="UTF-8"?>
<svg id="_레이어_2" data-name="레이어 2" xmlns="http://www.w3.org/2000/svg" viewBox="0 0 1280 2759">
  <g id="_겹친_하트" data-name="겹친 하트">
    <rect width="1280" height="2759" fill="#fff" stroke-width="0"/>
    <g>
      <path d="M669.25,1208.57c-30.02,0-56.37,15.67-71.34,39.28-14.96-23.61-41.32-39.28-71.34-39.28-46.62,0-84.41,37.79-84.41,84.41,0,77.34,127.79,171.28,155.74,171.28s155.74-93.94,155.74-171.28c0-46.62-37.79-84.41-84.41-84.41Z" fill="#ffcad9" stroke-width="0"/>
      <path d="M753.43,1294.74c-30.02,0-56.37,15.67-71.34,39.28-14.96-23.61-41.32-39.28-71.34-39.28-46.62,0-84.41,37.79-84.41,84.41,0,77.34,127.79,171.28,155.74,171.28s155.74-93.94,155.74-171.28c0-46.62-37.79-84.41-84.41-84.41Z" fill="#ff3981" opacity=".7" stroke-width="0"/>
    </g>
  </g>
</svg>