<?xml version="1.0" encoding="UTF-8"?>
<svg id="_레이어_2" data-name="레이어 2" xmlns="http://www.w3.org/2000/svg" xmlns:xlink="http://www.w3.org/1999/xlink" viewBox="0 0 43.84 43.52">
  <defs>
    <clipPath id="clippath-1">
      <path d="M27.6,31.08c-5.64,0-5.64.03-11.27.03-2.21,0-3.43-1.48-3.43-3.69,0-5.64-.63-5.64-.63-11.27,0-2.21,1.86-3.89,4.07-3.89q5.64,0,11.27,0c2.21,0,3.84,1.68,3.84,3.89,0,5.64.7,5.64.7,11.27,0,2.21-2.34,3.65-4.55,3.65Z" fill="none" stroke="#fff" stroke-miterlimit="10" stroke-width="1.16"/>
    </clipPath>
  </defs>
  <g id="GUIDE">
    <g>
      <g>
        <polygon points="42.54 21.79 42.38 24.73 41.83 27.62 40.58 30.29 39.53 33.08 37.53 35.28 35.54 37.46 33.26 39.36 30.48 40.44 27.75 41.48 24.88 42.06 21.97 42.33 19.06 42.02 16.17 41.52 13.29 40.8 10.74 39.26 8.33 37.53 6.22 35.44 4.43 33.06 3.35 30.29 2.23 27.59 1.42 24.75 1.25 21.79 1.36 18.83 2.1 15.96 3.04 13.15 4.64 10.65 6.29 8.21 8.49 6.23 10.85 4.49 13.35 2.92 16.11 1.84 19.04 1.42 21.97 1.32 24.87 1.58 27.73 2.15 30.58 2.94 33.07 4.52 35.48 6.2 37.76 8.11 39.34 10.63 40.67 13.25 41.54 16.04 42.21 18.88 42.54 21.79" fill="#f9b341" stroke-width="0"/>
        <path d="M41.25,21.79l-.08,1.47c-.02.37-.05.73-.06,1.1,0,.09,0,.18-.01.27-.02.3.07-.44.02-.14-.1.61-.23,1.22-.35,1.82-.05.27-.11.54-.16.82s.22-.41-.06.19c-.46.96-.94,1.93-1.32,2.92-.24.63-.47,1.26-.71,1.88-.02.05-.27.54-.23.6-.12-.16.61-.86-.05-.13-1.42,1.56-2.76,3.26-4.38,4.61-.32.27-1.3.8-1.44,1.19-.01.03.8-.33.21-.16-.37.11-.75.29-1.11.43-.95.37-1.91.74-2.87,1.1s-1.88.61-2.92.82c-.33.07-.66.12-.98.2-.43.1.26-.02.03,0-.69.07-1.37.12-2.06.19-1.05.1-2.07-.07-3.12-.18-.17-.02-.35-.03-.52-.05.68.08-.09-.03-.23-.05-.68-.12-1.37-.23-2.05-.36-1.01-.19-2.02-.48-3.02-.74-.36-.1.37.24-.04-.02-.25-.16-.51-.31-.77-.47-.52-.31-1.06-.61-1.56-.95-.35-.23-.69-.49-1.03-.74l-.95-.68c-.15-.11-.66-.57-.21-.14-.41-.39-.81-.8-1.21-1.2-.22-.22-.43-.46-.67-.66-.45-.38.13.23-.14-.12-.41-.52-.8-1.06-1.19-1.58-.13-.18-.26-.36-.4-.53-.18-.22.15.35.05.17-.06-.11-.1-.25-.15-.38-.37-.95-.73-1.9-1.12-2.84s-.83-1.92-1.12-2.93c-.18-.63-.33-1.27-.54-1.89-.16-.46,0,.35-.02-.03-.02-.36-.04-.71-.06-1.07-.06-1.08-.09-2.12-.05-3.2l.03-.92c0-.18.11-.87-.02-.24.12-.59.3-1.18.45-1.77.26-1,.58-1.96.91-2.95.09-.28.17-.57.29-.85.08-.19-.24.36.02.03.44-.57.79-1.24,1.17-1.84.56-.88,1.17-1.73,1.75-2.61.16-.24.31-.33.03-.07.18-.17.37-.33.55-.49.5-.45,1.01-.9,1.51-1.36.29-.26-.36.26.03-.03.24-.18.48-.35.71-.53.48-.36.96-.73,1.45-1.07.34-.24.71-.45,1.06-.67l.99-.62c.14-.09.77-.46.19-.18.87-.42,1.9-.86,2.84-1.08.59-.15,1.24-.18,1.84-.27.28-.04.55-.08.83-.12s-.48,0,.19.01c1.01.01,2.01-.12,3.02-.04.66.06,1.33.13,1.99.18.16.01.78.12.14,0,.24.04.48.09.72.14,1.04.21,2.06.4,3.08.68.59.16,1.21.3,1.79.49.05.02-.33-.23.04.06.3.24.67.43.99.63.86.55,1.71,1.12,2.55,1.7.27.19.53.38.8.56.25.17.35.26.09.05.5.4.98.82,1.46,1.23.23.19.46.38.69.58.16.13-.22-.38,0,0,.37.63.78,1.24,1.17,1.86.56.89.96,1.85,1.46,2.77.15.28.16.4.06.08.07.22.14.44.21.66.21.66.43,1.31.62,1.97.26.95.45,1.92.69,2.87-.08-.31-.02-.24,0,.09s.07.65.11.97l.18,1.58c.18,1.63,2.76,1.65,2.58,0-.49-4.4-1.39-8.67-3.78-12.47-.66-1.06-1.19-1.97-2.14-2.77s-1.81-1.49-2.78-2.17-1.89-1.29-2.86-1.9c-1.04-.66-1.92-.95-3.12-1.28C24.93.05,20.17-.49,15.87.58c-2.04.51-3.97,1.63-5.69,2.81s-3.91,2.62-5.12,4.35-2.78,3.66-3.47,5.7C.85,15.61.11,17.76.02,20.06s.04,4.6.69,6.91c.6,2.12,1.57,4.18,2.39,6.22.41,1.03,1.25,1.93,1.94,2.81s1.53,1.69,2.36,2.41,1.78,1.35,2.69,1.95,1.87,1.31,2.87,1.67c1.95.71,4.26,1.06,6.32,1.29,2.29.26,4.43.28,6.7-.18s4.32-1.27,6.47-2.1c1.23-.48,2.04-1.04,3.06-1.89.9-.74,1.64-1.54,2.42-2.41s1.52-1.65,2.26-2.49,1.07-2.11,1.47-3.19c.09-.24.25-.6.05-.15.1-.22.21-.45.31-.67.3-.64.63-1.27.89-1.92.4-.99.55-2.17.71-3.24s.15-2.21.2-3.31c.09-1.66-2.49-1.65-2.58,0Z" fill="#f9b341" stroke-width="0"/>
      </g>
      <g>
        <g>
          <g clip-path="url(#clippath-1)">
            <g>
              <path d="M34.16,26.83c-2.18-2.67-2.93-2.02-5.36-4.45-1.36-1.36-3.69-1.6-5.05-.24-6.29,6.29-13.47,3.94-12.56,12.78.71,6.9,7.11-.3,14.05-.3s7.39,2.76,13.9.34c4.45-1.65-2-4.48-4.98-8.13Z" fill="#fff" stroke-width="0"/>
              <path d="M34.16,26.83c-2.18-2.67-2.93-2.02-5.36-4.45-1.36-1.36-3.69-1.6-5.05-.24-6.29,6.29-13.47,3.94-12.56,12.78.71,6.9,7.11-.3,14.05-.3s7.39,2.76,13.9.34c4.45-1.65-2-4.48-4.98-8.13Z" fill="none" stroke="#fff" stroke-miterlimit="10" stroke-width="1.16"/>
            </g>
          </g>
          <path d="M27.6,31.08c-5.64,0-5.64.03-11.27.03-2.21,0-3.43-1.48-3.43-3.69,0-5.64-.63-5.64-.63-11.27,0-2.21,1.86-3.89,4.07-3.89q5.64,0,11.27,0c2.21,0,3.84,1.68,3.84,3.89,0,5.64.7,5.64.7,11.27,0,2.21-2.34,3.65-4.55,3.65Z" fill="none" stroke="#fff" stroke-miterlimit="10" stroke-width="1.16"/>
        </g>
        <path d="M20.4,18.52c0,1.22-.87,2.72-2.09,2.72s-2.48-1.49-2.48-2.72,1.26-2.51,2.48-2.51,2.09,1.28,2.09,2.51Z" fill="#fff" stroke-width="0"/>
      </g>
    </g>
  </g>
</svg>