<?xml version="1.0" encoding="UTF-8"?>
<svg id="_레이어_2" data-name="레이어_2" xmlns="http://www.w3.org/2000/svg" viewBox="0 0 184.11 155.52">
  <g id="GUIDE">
    <g>
      <g>
        <g>
          <polygon points="90.17 27.04 89.22 23.61 88.07 20.34 86.16 17.44 84.11 14.64 81.57 12.28 79.05 9.87 75.96 8.26 72.79 6.88 69.61 5.57 66.28 4.67 63.04 3.29 59.54 3.19 56.09 2.87 52.64 3.27 49.15 2.8 45.78 3.79 42.32 4.02 39.01 5.08 35.6 5.72 32.49 7.25 29.32 8.64 26.6 10.78 23.75 12.81 22.05 15.89 19.6 18.43 18.7 21.84 16.96 24.87 16.08 28.23 15.68 31.67 14.8 35.07 14.94 38.56 15.29 42.02 15.83 45.44 16.23 48.89 17.02 52.27 18.47 55.44 19.4 58.8 21.63 61.56 23.06 64.7 24.84 67.67 27.32 70.11 29.59 72.69 31.52 75.62 34.51 77.48 36.85 80 38.95 82.77 41.94 84.61 44.38 87.02 46.71 89.58 49.72 91.35 52.2 93.72 54.72 96.06 57.51 98.06 60.27 100.1 62.88 102.33 65.58 104.48 68.85 105.72 71.54 107.91 74.42 109.87 77.69 111.01 81.06 111.78 84.44 112.23 87.79 112.43 91.22 112.78 94.67 112.75 98.01 111.85 101.46 111.59 104.69 110.29 108.02 109.49 111.44 109.01 114.72 108.01 117.89 106.68 121.33 106.13 124.33 104.35 127.5 103.08 130.98 102.47 134.08 100.96 136.79 98.71 140.07 97.55 142.95 95.67 145.75 93.68 148.81 92.09 151.28 89.65 154.27 87.92 156.83 85.63 159.53 83.49 161.55 80.66 164.35 78.57 166.36 75.77 168.62 73.17 170.62 70.36 171.83 67.08 173.83 64.26 175.15 61.09 176.87 58.07 178.08 54.9 178.7 51.55 179.87 48.37 180.79 45.1 180.94 41.69 180.95 38.3 181.18 34.97 181.68 31.59 181.04 28.26 180.66 24.9 179.89 21.57 177.89 18.77 176.32 15.79 174.12 13.25 172.06 10.49 168.88 9.11 166.01 7.41 162.93 6.11 159.97 4.37 156.53 4.28 153.24 3.72 149.95 2.81 146.45 3 142.96 2.45 139.5 3.32 136.01 3.38 132.63 4.25 129.04 4.11 125.66 5.07 122.41 6.39 119.18 7.73 116.08 9.33 112.75 10.46 109.73 12.24 106.69 13.98 103.66 15.74 100.79 17.76 98.34 20.32 95.67 22.56 92.74 24.51 90.17 27.04" fill="#f5f9e1"/>
          <path d="M92.58,26.37c-.42-1.51-.8-3.01-1.32-4.49-.32-.92-.57-1.96-1.04-2.83s-1.09-1.65-1.63-2.47c-.86-1.3-1.77-2.73-2.85-3.85-1.24-1.28-2.63-2.46-3.92-3.69-2.48-2.37-5.95-3.58-9.08-4.88-1.74-.72-3.39-1.27-5.21-1.76-.12-.03-.35-.15-.48-.13-.24.03.75.33.39.18-.47-.2-.93-.39-1.39-.59-.96-.41-2.01-1-3.05-1.08-1.72-.12-3.44-.1-5.16-.26-.72-.07-1.42-.18-2.14-.11-.52.05-1.04.12-1.56.18-.34.04-1.09-.02-1.39.16-.17.1.88.14.4.08-.19-.02-.37-.05-.56-.08l-1.7-.23c-.97-.13-1.86-.27-2.82-.01-.53.14-1.06.31-1.58.47-.33.1-.99.16-1.26.37-.11.09.89-.05.39-.05-.2,0-.4.03-.6.04l-1.77.12c-1.74.12-3.21.78-4.89,1.21-.95.24-1.94.34-2.9.55-.83.18-1.55.57-2.31.95-1.59.78-3.33,1.39-4.88,2.24-.76.42-1.45,1.07-2.14,1.61-.37.29-.74.58-1.11.87s.37-.27.31-.24c-.16.06-.35.25-.48.34-.77.55-1.55,1.09-2.31,1.65-.9.66-1.3,1.6-1.82,2.56-.22.39-.58.85-.7,1.28-.12.4.1-.23.27-.31-.13.07-.25.26-.35.36-.67.7-1.39,1.37-2.03,2.1-.73.83-.89,1.93-1.16,2.96-.12.44-.35.96-.37,1.42-.03.43.07-.3.18-.38-.11.08-.2.34-.27.47-.48.83-1.01,1.65-1.44,2.5-.46.92-.62,2-.88,2.98-.21.81-.34,1.6-.44,2.43l-.2,1.65c-.03.23-.05.45-.08.68-.07.63-.07-.13.04-.29-.45.7-.52,2.01-.73,2.82s-.21,1.52-.18,2.33c.07,1.84.21,3.65.41,5.48.09.86.24,1.72.38,2.58.08.52.16,1.05.25,1.57s.03-.28-.05-.38c.06.09.04.36.05.47.22,2.01.5,3.93.96,5.91.19.83.44,1.55.8,2.32l.69,1.51c.11.24.22.49.33.73.28.61-.04-.27-.11-.27.19.02.71,2.58.8,2.86.28.96.83,1.65,1.45,2.41l1.03,1.27c.13.16.25.31.38.47.37.45-.2-.36-.2-.24,0,.31.4.88.53,1.16.24.54.48,1.08.73,1.61.65,1.34,1.46,2.87,2.49,3.96,1.25,1.32,2.55,2.54,3.75,3.9.07.08.7.93.8.91-.09.02-.53-.79-.24-.29.12.2.26.39.39.59.52.79,1,1.66,1.6,2.39.68.81,1.8,1.33,2.69,1.89.27.17.64.51.95.59-.25-.07-.54-.59-.33-.22.12.21.39.42.55.6l1.12,1.21c.13.14.26.31.41.44.42.37-.44-.6-.18-.25.62.82,1.24,1.63,1.86,2.45s1.36,1.29,2.25,1.84l1.33.82c.12.07.27.21.4.25.19.05-.58-.62-.3-.21.56.8,1.49,1.45,2.17,2.15.53.54,1.03,1.12,1.55,1.68.58.64,1.1,1.2,1.85,1.65.23.13,2.48,1.59,2.56,1.51-.11.11-.73-.65-.25-.15.13.14.27.26.41.39l1.34,1.29c.49.47.99.93,1.48,1.39,1.45,1.35,2.96,2.46,4.56,3.62.59.42,1.16.86,1.74,1.29.37.28.74.56,1.12.84s-.34-.3-.31-.24c.06.13.37.32.48.41,1.4,1.2,2.82,2.36,4.26,3.51s3.18,1.66,4.91,2.31l-1.1-.64c1.06.86,2.09,1.78,3.2,2.58s2.22,1.73,3.47,2.21c2.35.9,4.83,1.67,7.33,2,2.31.31,4.58.47,6.9.67,2.44.21,5.12.7,7.54.16.77-.17,1.53-.41,2.29-.62.19-.05.61-.09.78-.21.28-.2-.85.03-.49.06.12.01.28-.02.41-.03,1.33-.08,2.82-.04,4.08-.49,1.15-.42,2.24-.99,3.43-1.28s2.35-.6,3.55-.77c2.46-.34,4.75-.92,7.06-1.88,1.24-.52,2.2-.85,3.52-1.06.59-.1,1.24-.13,1.82-.29.68-.19,1.31-.66,1.91-1.02.43-.25.87-.49,1.28-.76.54-.35.37-.19-.09-.03.77-.27,1.52-.61,2.27-.91,1.27-.51,2.59-.57,3.92-.87,2.84-.64,5.12-2.67,7.29-4.48l-1.1.64c1.06-.38,2.14-.73,3.19-1.13,1.11-.42,2.08-1.2,3.07-1.84,1.66-1.08,3.18-2.24,4.93-3.16,1.06-.56,1.87-1.08,2.73-1.92.46-.45.93-.89,1.37-1.35.58-.61-.08.19-.19.09.03.03.52-.3.57-.33,1.03-.6,2.13-1.13,3.05-1.91.83-.7,1.61-1.47,2.44-2.17.93-.79,2.09-1.44,2.88-2.38s1.48-2.06,2.21-3.08l-.9.9c1.26-.94,2.84-1.83,3.78-3.1.54-.73,1.06-1.47,1.59-2.21.09-.12.18-.24.26-.36.22-.34-.38.43-.27.35.29-.21.54-.62.77-.89,1.09-1.26,2.09-2.52,3.05-3.88s1.49-2.9,2.08-4.51c.05-.13.11-.25.14-.39.06-.21-.35.56-.17.44.26-.16.49-.7.67-.94.48-.68,1.05-1.35,1.41-2.1s.65-1.56.97-2.33c.14-.34.28-.67.42-1.01.15-.37-.27.49-.17.42.09-.06.16-.29.22-.38,1.67-2.76,2.79-5.57,3.37-8.73.51-2.76,2.12-5.28,2.36-8.11s.08-5.63.28-8.44c.03-.42.07-.85.09-1.27.04-.9-.11.54-.03.08.15-.9.27-1.8.4-2.7.22-1.51-.02-3.59-.55-5.05-.11-.31.08.82.06.49,0-.13-.03-.26-.05-.4-.05-.48-.11-.96-.17-1.44-.09-.74-.14-1.51-.29-2.24-.29-1.47-.5-3.11-1.38-4.35s-1.72-2.46-2.44-3.85c-.77-1.47-1.73-2.59-2.82-3.84-.13-.15-.68-.9-.31-.33s-.29-.39-.4-.55c-.48-.65-.95-1.3-1.44-1.94-1.01-1.33-2.74-1.6-4.17-2.34-1.19-.62-2.26-1.43-3.5-1.95-1.44-.61-2.72-1.21-4.06-2-.83-.49-1.56-1.02-2.55-1.09-.84-.06-1.69-.04-2.53-.06-.09,0-.82-.09-.87-.02.04-.05,1,.16.37.04-.22-.04-.44-.08-.65-.11-.78-.13-1.57-.23-2.35-.4-1.39-.3-2.77-.98-4.2-.98-.87,0-1.75.09-2.62.14-.66.04-.7-.03-.03.12-.33-.07-.67-.11-1-.16-.81-.13-1.61-.26-2.42-.38-1.02-.15-1.87.13-2.84.37l-1.33.34c-.15.04-.31.06-.46.11-.41.16.42-.05.43-.04-.15-.12-.88.01-1.08.02l-1.56.02c-1.52.02-3.25.37-4.66.93-.43.17.93.02.08-.06-.46-.04-.94-.04-1.4-.05-.82-.03-1.67-.15-2.48.03-2.71.59-5.23,1.69-7.77,2.75-1.55.65-3.05,1.31-4.55,2.08-.35.18-.72.33-1.05.54s.89-.3-.01-.01c-.85.27-1.69.56-2.53.86-1.42.5-2.67,1.4-3.96,2.15-1.1.64-2.21,1.26-3.31,1.89-2.61,1.51-5.19,3.02-7.28,5.21-1.05,1.1-2.12,2.05-3.29,3.03-.14.12-.98.85-.44.38s-.28.16-.45.27c-.72.48-1.45.94-2.16,1.44-1.16.82-2.13,1.97-3.15,2.96-2.3,2.26,1.24,5.79,3.54,3.54.78-.77,1.61-1.5,2.35-2.31.42-.46-.08.18-.26.16.08,0,.38-.26.44-.29l1.76-1.18c1.56-1.04,3.1-2.28,4.4-3.64l1.35-1.41c.15-.16.34-.31.46-.48.31-.44-.69.44-.24.16.93-.59,1.77-1.31,2.7-1.91,1.61-1.04,3.34-1.93,5-2.88.76-.44,1.52-.88,2.28-1.32.52-.3,1.21-.58,1.66-.98.38-.34-.6.16-.35.13s.49-.17.72-.25c1.07-.36,2.19-.67,3.21-1.16.33-.16,3.02-1.32,3-1.55,0,.05-.91.38-.27.11.25-.1.49-.21.74-.31.64-.27,1.29-.54,1.93-.81.84-.35,1.68-.69,2.52-1.03s1.59-.57,2.44-.81c.55-.16,1.16-.26,1.69-.47s-.39,0-.35.03c.17.08.58.02.78.03,1.24.05,2.5.21,3.72-.07.73-.17,1.46-.38,2.19-.57.22-.06.6-.08.79-.2.03-.02-.96.04-.25.06,1.24.04,2.65.1,3.87-.15,1.14-.23,2.28-.57,3.41-.86h-1.33c1.45.23,2.99.65,4.46.63.9-.02,1.84-.06,2.74-.15.06,0,.36.02.41-.02-.1.1-.86-.25-.43-.04.36.18.84.23,1.23.34,3.09.85,6.08,1.18,9.27,1.26l-1.26-.34c.98.58,1.94,1.23,2.96,1.74s2.08.8,3.07,1.3,1.88,1.19,2.86,1.69,2.13.93,3.19,1.39l-.9-.9c.96,1.3,1.89,2.63,2.95,3.85l1.06,1.22c.13.15.25.29.38.44.2.22.44.31.07.05-.34-.23-.16-.24-.04.03.09.2.21.39.31.59l.8,1.52c.28.54.6,1,.96,1.5l.96,1.34c.09.13.19.35.32.44.24.19-.13-.49-.15-.4-.07.3.21.93.28,1.23.12.54.23,1.09.37,1.62.24.93-.04-.68.03-.02.05.48.11.95.16,1.43.22,1.91.56,3.78.93,5.67v-1.33c-.53,3.57-.77,7.02-.83,10.62-.01.77-.06,1.55-.1,2.32,0,.15-.16,1.09-.05,1.2-.11-.12.23-.92.02-.4-.1.26-.15.55-.23.82-.49,1.76-1.15,3.41-1.71,5.15-.44,1.38-.43,2.86-.95,4.22l-.62,1.61c-.08.21-.16.42-.24.62-.23.62.03-.23.11-.25-.18.05-.55.96-.65,1.14-.29.51-.6,1.02-.88,1.55-.4.75-.7,1.57-1.03,2.36-.2.49-.4.97-.61,1.46-.23.55.13-.34.14-.34-.02,0-.32.45-.33.46-.54.76-1.2,1.51-1.65,2.33-.51.92-.79,2.05-1.16,3.03-.08.22-.17.44-.25.67-.16.49.38-.52.1-.3-.39.31-.7.99-.99,1.39s-.67.82-.89,1.26c.17-.33.52-.63.14-.21-.18.2-.35.4-.52.6-1.41,1.63-2.67,3.31-3.93,5.06l.9-.9c-.82.61-1.65,1.22-2.47,1.84-.93.7-1.5,1.53-2.17,2.46-.32.45-.66.9-.97,1.36-.26.39.26-.31.24-.31-.11,0-.41.33-.49.39-.73.58-1.49,1.15-2.21,1.75-.79.67-1.68,1.36-2.38,2.12-.31.34.42-.24.29-.22-.14.02-.39.23-.52.3l-1.71.99c-.84.49-1.47,1.07-2.16,1.75-.4.39-.82.77-1.2,1.19s-.17.04-.04.09c-.24-.1.48-.22.13-.13-.11.03-.21.12-.31.16-1.87.88-3.47,1.99-5.16,3.17-.66.46-1.34.89-2.01,1.33-.09.06-1.13.66-1.11.73-.02-.08.93-.35.27-.13-.29.1-.58.2-.86.31-1.11.39-2.34.69-3.26,1.44-.81.66-1.62,1.33-2.42,2-.5.43.26-.15.25-.18,0,.01-.39.19-.42.21-.59.26-1.17.57-1.75.86-.22.11-.45.21-.67.33-.52.28.24-.16.31-.13-.28-.12-1.16.2-1.45.25-1.86.32-3.4.9-5.15,1.62-1.06.44-2.02,1.09-3,1.67-.13.07-.43.19-.52.31,0,0,.73-.11.33-.18-.49-.08-1.28.21-1.77.29-1.72.28-3.1,1.01-4.73,1.59-1.91.67-3.73,1.05-5.72,1.33-1.53.21-3.15.53-4.6,1.08-.57.22-1.13.45-1.69.68-.25.1-.54.19-.78.31-.65.34-.02-.12.26.07-.2-.14-1.09.08-1.33.1-.61.05-1.22.08-1.83.14-1.02.09-1.97.39-2.95.65-.2.05-1.14.16-1.26.34.11-.17.92-.03.35-.07-.28-.02-.58,0-.86,0-1.95.02-3.8-.17-5.74-.33-1.7-.14-3.38-.21-5.06-.43-.52-.07-1.04-.14-1.55-.2-.46-.06.83.2.39.04-.23-.08-.5-.12-.74-.17-.85-.2-1.73-.35-2.58-.6-1.04-.31-2.05-.84-3.11-1.08-.18-.04.63.42.4.14-.12-.14-.39-.27-.54-.37l-1.65-1.12c-.15-.1-.33-.26-.5-.34-.32-.14.7.58.28.22-.45-.39-.93-.75-1.39-1.13-.87-.71-1.66-1.35-2.73-1.76-.93-.36-1.87-.71-2.8-1.07l1.1.64c-1.8-1.43-3.53-2.92-5.31-4.37-1.03-.84-2.12-1.61-3.2-2.39-.91-.66-1.82-1.45-2.79-2-.05-.03.68.61.2.12-.24-.24-.5-.47-.75-.7-.5-.46-.99-.92-1.49-1.38-.82-.78-1.61-1.61-2.46-2.35-.42-.37-.87-.63-1.35-.91-.65-.38-1.35-.95-2.07-1.21-.48-.18.45.6.21.15-.12-.22-.38-.42-.55-.6-.51-.55-1-1.12-1.52-1.66-.82-.86-1.66-1.75-2.55-2.54-1.02-.91-2.35-1.53-3.51-2.24l.9.9c-1.21-1.59-2.39-3.16-3.75-4.62s-2.89-2.37-4.58-3.43l.9.9c-1.53-2.33-3.08-4.54-5.08-6.5-.59-.58-1.2-1.39-1.89-1.85-.31-.2.3.51.25.33-.04-.12-.15-.24-.21-.35-.25-.43-.51-.85-.76-1.27-.75-1.26-1.34-2.54-1.95-3.88s-1.9-2.6-2.86-3.8l.64,1.1c-.39-1.38-.68-2.82-1.27-4.14-.35-.79-.72-1.58-1.08-2.37-.07-.15-.13-.3-.21-.45-.23-.46.22.4.17.4-.04,0-.21-.9-.23-.97-.16-.68-.2-1.69-.54-2.31.11.19.1.88.01.08-.06-.53-.12-1.07-.18-1.6-.18-1.6-.43-3.18-.68-4.76-.02-.12-.15-.54-.1-.66-.01.03.1.96.07.45,0-.16-.03-.33-.05-.49-.09-.89-.21-1.79-.28-2.68-.04-.57-.05-1.14-.07-1.71-.02-.46-.02-.92-.05-1.37,0-.09.03-.32-.02-.41-.11-.21-.25.87-.05.4.54-1.25.8-2.87.96-4.22.11-.87.21-1.75.31-2.62.02-.13.04-.27.05-.4.03-.37-.26.79-.06.49s.23-.9.32-1.24l.36-1.37c.04-.14.12-.33.13-.48.03-.51-.32.47-.16.33.27-.22.47-.81.64-1.11.27-.47.55-.93.81-1.4.75-1.36,1.01-2.95,1.4-4.44l-.64,1.1c.88-.91,1.88-1.78,2.64-2.79s1.29-2.24,1.89-3.34l-.9.9c1.56-1.11,3.11-2.23,4.62-3.41.44-.34.87-.68,1.31-1.03.36-.28-.41.21-.27.24.12.03.54-.24.64-.28.84-.37,1.69-.72,2.52-1.11.97-.45,1.99-.89,2.91-1.43.32-.19-.58.14-.38.17.16.03.43-.08.59-.11l2.06-.39c.76-.14,1.47-.38,2.21-.62.48-.15,1.16-.24,1.59-.51s-.63.01-.39.02c.26.01.55-.04.81-.05,1.11-.07,2.31-.04,3.4-.31s2.14-.63,3.2-.94h-1.33c1.16.16,2.32.32,3.48.48,1.38.19,2.72-.3,4.11-.31,1.14,0,2.31.24,3.45.31s2.35.07,3.52.11l-1.26-.34c1.27.54,2.54,1.18,3.84,1.63,1.09.38,2.25.54,3.35.9.65.22,1.28.53,1.91.79.32.13.63.26.95.39.79.32-.73-.32-.06-.02,1.12.5,2.28.94,3.37,1.51.73.38,1.46.8,2.21,1.14.81.37-.14.04-.05-.15-.02.04.58.55.64.61.95.91,1.9,1.82,2.86,2.72.36.33,1.01,1.24,1.47,1.37.31.09-.46-.67-.27-.37.07.11.16.22.24.33.27.37.54.73.8,1.1.74,1,1.43,2.02,2.11,3.06.16.24.45.93.7,1.07-.09-.05-.31-.86-.04-.05s.6,1.66.88,2.5c.41,1.22.71,2.49,1.06,3.73.86,3.1,5.68,1.78,4.82-1.33Z" fill="#22251c"/>
        </g>
        <path d="M70.67,47.64c.12.95.25,1.89.37,2.84l.09.66.25.6.39.51c.23.24.49.42.8.52.19.11.41.17.63.17.22.06.44.06.66,0,.23,0,.44-.06.63-.17.31-.1.58-.27.8-.52.84-.65,1.68-1.29,2.51-1.94.31-.31.52-.68.64-1.1.1-.33.12-.66.04-1-.02-.33-.11-.64-.3-.93-.22-.38-.52-.67-.9-.9-.83-.64-1.65-1.28-2.48-1.91-.29-.18-.6-.28-.93-.3-.33-.07-.66-.06-1,.04-.58.16-1.21.61-1.49,1.15-.31.58-.46,1.28-.25,1.93l.25.6c.22.38.52.67.9.9.83.64,1.65,1.28,2.48,1.91l-.51-3.93c-.84.65-1.68,1.29-2.51,1.94l4.27,1.77c-.12-.95-.25-1.89-.37-2.84.01-.34-.06-.67-.22-.96-.1-.31-.27-.58-.52-.8-.43-.43-1.15-.76-1.77-.73s-1.32.24-1.77.73l-.39.51c-.23.39-.34.81-.34,1.26h0Z" fill="#22251c"/>
        <path d="M99.72,50.65c.45.83.91,1.66,1.36,2.49l.2.36c.22.38.52.67.9.9.29.18.6.28.93.3.33.07.66.06,1-.04.42-.12.79-.33,1.1-.64.6-.72,1.21-1.43,1.81-2.15l.26-.31c.31-.31.52-.68.64-1.1.12-.44.12-.89,0-1.33-.12-.42-.33-.79-.64-1.1-.31-.31-.68-.52-1.1-.64-.93-.36-1.87-.73-2.8-1.09-.33-.1-.66-.12-1-.04-.33.02-.64.11-.93.3-.52.3-1.01.9-1.15,1.49-.15.64-.11,1.36.25,1.93l.39.51c.31.31.68.52,1.1.64.93.36,1.87.73,2.8,1.09l-1.1-4.18c-.6.72-1.21,1.43-1.81,2.15l-.26.31,3.93.51c-.45-.83-.91-1.66-1.36-2.49l-.2-.36c-.3-.54-.91-.99-1.49-1.15-.33-.1-.66-.12-1-.04-.33.02-.64.11-.93.3-.53.34-1,.86-1.15,1.49s-.08,1.32.25,1.93h0Z" fill="#22251c"/>
      </g>
      <g>
        <g>
          <polygon points="67.42 75.44 70.41 73.6 73.75 72.8 76.98 71.72 79.92 69.9 83.09 68.66 86.54 68.15 89.51 66.38 92.92 65.78 96.13 64.64 99.26 63.29 102.23 61.48 105.74 61.17 108.76 59.47 112.12 58.8 115.24 57.39 118.56 56.59 121.82 55.69 124.99 55.22 128.87 55.44 130.79 58.76 131.35 62.41 132.41 66.01 132.26 69.74 132.04 73.13 132.55 76.49 132.12 79.87 132.14 83.24 132.11 86.61 133 89.99 132.32 93.37 132.9 96.74 132.08 100.12 132.55 103.5 132.1 106.88 132.91 110.26 132.93 113.64 132.47 117.02 132.54 120.4 131.94 123.77 132.71 127.16 132.08 130.52 129.6 133.27 126.38 135.49 122.54 136.45 119.39 137.58 116.34 139.04 113.33 140.64 110.02 141.4 106.76 142.26 103.76 143.93 100.54 144.93 97.22 145.65 94.09 146.97 90.72 147.5 87.57 148.72 84.45 150.06 80.96 150.19 77.81 151.41 74.65 152.44 71.1 153.04 67.53 152.17 63.97 152.56 60.62 151.7 57.49 150.12 54.21 148.99 50.78 148.33 47.46 147.33 44.24 146.03 40.81 145.35 37.69 143.74 34.29 142.93 31.25 141.13 28.05 139.78 24.77 138.65 21.51 137.49 18.33 136.12 14.92 135.02 13.15 131.93 12.19 128.68 11.91 125.28 10.97 122.06 10.33 118.77 9.89 115.45 9.17 112.18 8.42 108.91 7.5 105.66 6.73 102.39 6.16 99.08 5.71 95.75 5.36 92.4 5.07 89.05 4.07 85.8 3.8 82.44 3.45 79.1 2.8 75.79 2.5 72.44 3.23 69.04 2.47 65.61 4.71 62.68 7.1 59.81 10.85 59.84 14.42 59.96 18.05 60.36 21.3 61.03 24.43 62.15 27.65 62.95 30.82 63.93 33.89 65.19 37.2 65.75 40.21 67.24 43.43 68.05 46.66 68.88 49.58 70.61 52.68 71.81 56.01 72.33 59.04 73.7 62.17 74.91 64.81 75.01 67.42 75.44" fill="#787d6f"/>
          <path d="M68.68,77.6l1.49-.92c.37-.23.74-.44,1.1-.68.61-.41.11.04-.12,0,.54.11,1.65-.4,2.17-.52.45-.11.89-.21,1.33-.34,1.27-.39,2.7-.76,3.86-1.43.71-.41,1.39-.85,2.08-1.28.04-.02.54-.37.56-.35.03.03-.88.34-.4.17.22-.08.43-.17.65-.25,1.18-.46,2.22-.9,3.47-1.08.74-.11,1.52-.16,2.24-.33.66-.16,1.27-.62,1.85-.96.19-.11,1.69-1.13,1.78-1.06.02.01-1.03.27-.09.15.45-.06.89-.16,1.34-.24,1.33-.24,2.47-.59,3.75-1.05,2.77-.98,5.24-2.26,7.74-3.78l-1.26.34c1.02-.09,2.04-.17,3.05-.27,1.19-.11,2-.54,3.02-1.11.49-.28,1.03-.52,1.49-.84s-.15.18-.32.11c.12.05.49-.1.61-.12,1.11-.22,2.28-.35,3.32-.8.96-.42,1.92-.85,2.86-1.3.56-.27-.34.13-.34.14,0-.02.42-.1.45-.11.67-.13,1.32-.32,1.98-.47,1.54-.37,3.05-.95,4.62-1.18l2.08-.31c.18-.03.39-.03.57-.08-.91.25-.66.06-.21.11,1.14.12,2.3.13,3.44.19l-2.16-1.24.78,1.35c.31.53.63,1.44,1.08,1.87.16.15-.18-.87-.15-.2.01.31.1.64.14.95.11.74.19,1.5.34,2.24.23,1.12.6,2.25.96,3.33.28.84-.12-.18.04-.21-.02,0-.02.57-.02.61l-.1,2.47c-.04,1.12-.13,2.23-.2,3.34-.09,1.34.26,2.71.46,4.03.03.21.04.44.1.64-.15-.51-.02-.8-.15-.16-.15.79-.21,1.62-.31,2.41-.14,1.11-.05,2.25-.04,3.37,0,1.25-.08,2.52-.02,3.77.06,1.38.62,2.79.97,4.12v-1.33c-.26,1.29-.77,2.72-.77,4.04s.45,2.74.67,4.04v-1.33c-.27,1.09-.58,2.19-.8,3.29-.25,1.25.17,2.77.34,4.02.03.23.07.46.1.69s.12-.81-.1-.39c-.27.52-.2,1.51-.28,2.09-.16,1.17.02,2.07.29,3.21.14.58.22,1.24.43,1.8.16.42.04-.88-.06-.34-.05.29,0,.62,0,.91,0,.65-.03,1.31.01,1.96.03.53.04.13.08-.29-.03.27-.07.55-.11.82-.15,1.1-.38,2.24-.42,3.35-.02.62.03,1.24.04,1.86,0,.33,0,.68.02,1.01.06.65.08-.27.08-.26-.38,1.27-.83,3.3-.59,4.62.2,1.14.51,2.26.77,3.39v-1.33c-.21,1.12-.42,2.24-.63,3.37l.64-1.1-1.93,2.14c-.13.14-.28.28-.39.43-.27.39,0-.08.31-.19-.36.13-.76.52-1.08.74l-1.45.99c-.16.11-.39.22-.52.36-.28.29.46-.13.38-.14-.38-.04-1,.25-1.37.34l-1.79.45c-3.36.84-6.49,2.51-9.53,4.13-.21.11-.45.22-.65.35-.5.31.3-.19.35-.13-.05-.07-1.31.3-1.4.32-.73.17-1.47.33-2.2.51-.97.25-1.98.46-2.93.78s-1.86.95-2.74,1.44c-.2.11-.4.21-.59.33-.57.36.19-.17.29-.09-.09-.08-1.13.35-1.25.39-.75.23-1.5.49-2.27.67-.97.23-2,.35-2.95.64-.81.25-1.59.66-2.37.99-1.64.69-3.45.59-5.1,1.23-2,.78-3.97,1.61-5.95,2.46l1.26-.34c-1.16.04-2.33.04-3.49.13-1.32.11-2.57.86-3.8,1.3-2.25.8-4.38,1.24-6.72,1.64h1.33c-1.05-.26-2.09-.53-3.14-.77s-2.02-.1-3.12.02c-.33.04-1.2-.04-1.46.16-.04.03.91.22.33.03-.31-.1-.64-.16-.95-.24-.6-.15-1.21-.35-1.83-.46-.56-.1,0-.12.23.15-.12-.14-.46-.23-.61-.31-2.03-1.03-4.05-1.98-6.26-2.61-1.86-.53-3.78-.76-5.64-1.33-1.7-.51-3.3-1.45-5.04-1.79l-1.88-.37c-.22-.04-.53-.17-.75-.15-.49.04.71.41.26.14-.92-.57-1.96-1.06-2.94-1.52-1.06-.5-2.3-.66-3.44-.93-.02,0-.55-.15-.56-.13.05-.09.87.47.31.09s-1.11-.66-1.66-.99c-1.68-.99-3.53-1.78-5.38-2.42-1.04-.36-2.08-.71-3.12-1.08-.7-.25-1.41-.5-2.11-.75-.24-.09-.51-.23-.76-.27-.19-.03.91.4.21.09-2.28-.98-4.52-1.83-6.88-2.59l1.49,1.15-.89-1.55-.56-.98c-.07-.11-.13-.24-.2-.35-.35-.5.33.37.12.36-.1,0-.45-1.54-.51-1.72-.1-.35-.19-.7-.31-1.04-.03-.09-.05-.3-.11-.38-.21-.26.07.9.05.44-.04-1.29-.1-2.75-.39-4.01-.25-1.1-.69-2.16-.94-3.27-.51-2.25-.67-4.54-1.13-6.79s-.92-4.5-1.53-6.69-1.28-4.44-1.67-6.71c-.19-1.1-.39-2.21-.54-3.31-.11-.78-.21-1.57-.32-2.35-.1-.7.04.39.04.26,0-.33-.07-.67-.1-1-.25-2.43-.22-5-.94-7.33-.19-.62-.29-1.45-.62-2.01-.28-.48.02.84.02.3,0-.42-.07-.84-.1-1.25-.09-1.16-.19-2.31-.32-3.47-.16-1.51-.38-2.97-.67-4.46-.07-.37-.12-.76-.22-1.12-.16-.55.08.95.02.16-.06-.85-.11-1.71-.23-2.55-.11-.77-.03-.09-.11.1.13-.3.15-.7.22-1.02.16-.76.36-1.51.49-2.28.27-1.52-.43-3.3-.75-4.78l-.25,1.93,1.05-1.37.81-1.06c.1-.13.57-.81.18-.24s.09-.1.21-.23l.79-.95,1.19-1.43-1.77.73c2.12.01,4.24.04,6.36.11.93.03,1.85.13,2.78.23.57.06,1.15.16,1.73.19.08,0-.98-.18-.24-.01.35.08.7.14,1.05.21,1.96.4,3.76,1.2,5.69,1.68s4.02.98,5.94,1.71c.96.37,1.91.89,2.91,1.16.54.15,1.13.19,1.68.29.35.06.71.14,1.06.18.79.09.09.21-.1-.16.13.25,1.14.56,1.38.68.52.26,1.04.53,1.56.77,1.11.51,2.36.71,3.54,1.01,1.02.26,2.03.56,3.06.78.02,0,.47.09.48.12,0,.01-.92-.48-.16,0,.6.38,1.22.73,1.83,1.09,1.8,1.06,3.86,1.77,5.91,2.09.14.02,1.76.26,1.76.28,0-.05-.97-.43-.01,0l1.18.53c1.18.53,2.36,1.02,3.56,1.48,1.32.51,2.39.66,3.8.71.03,0,.91.08.93.04-.01.03-.82-.16-.52-.07.15.04.34.06.49.08l2,.33c1.33.22,2.69-.35,3.08-1.75.33-1.2-.41-2.85-1.75-3.08s-2.72-.5-4.11-.55l-1.19-.05c-.13,0-.38-.06-.5-.02-.34.11.64.27.47.05-.3-.38-1.56-.6-2.04-.78-.31-.12-.62-.27-.94-.36-.16-.05.9.4.2.08-.8-.37-1.6-.73-2.4-1.09-1.26-.56-2.57-.6-3.92-.87-.42-.08-.78-.23-1.19-.39-.64-.25-1.5-.8-2.17-.84.51.03.69.34.12-.02-.31-.2-.63-.37-.94-.56-.69-.41-1.39-.93-2.16-1.18-1.08-.35-2.22-.57-3.32-.85-.74-.19-1.49-.38-2.23-.56-.08-.02-.79-.27-.85-.22-.09.09.73.39.46.2-.15-.11-.35-.17-.52-.26-1.18-.58-2.36-1.33-3.67-1.55s-2.5-.4-3.73-.9c-2.37-.96-4.77-1.69-7.25-2.31-1.29-.32-2.52-.78-3.77-1.23-1.13-.41-2.37-.58-3.55-.8-2.58-.48-5.26-.58-7.88-.65-1.29-.03-2.62-.11-3.91-.03-1.86.11-3.06,2.22-4.12,3.54-.89,1.11-1.94,2.26-2.67,3.48-.84,1.41.16,3.87.49,5.37v-1.33c-.38,1.78-.88,3.45-.71,5.27.18,1.97.44,3.88.87,5.81.19.84-.08-.94.01.05.06.58.12,1.16.19,1.74.07.66.14,1.31.19,1.97.08,1.06.06,2.21.29,3.25.19.88.54,1.75.8,2.6.05.16.08.37.16.51.2.36-.05-.8-.04-.4.02.47.08.95.12,1.42.06.73.12,1.46.2,2.2.2,1.96.44,3.91.7,5.86.44,3.19,1.1,6.31,1.98,9.4s1.65,6.21,2.07,9.36c.23,1.73.49,3.47.88,5.17.17.74.41,1.47.63,2.19.03.11.22,1.1.33,1.13-.07-.02-.09-.98-.06-.39.02.28.05.57.07.85.17,2.05.49,3.85,1.13,5.82.26.81.65,1.48,1.07,2.22.68,1.18,1.19,2.5,2.56,3.01.85.32,1.73.56,2.59.84.36.12,1.4.54.27.03.4.18.8.34,1.2.52,1.85.8,3.71,1.51,5.61,2.18,1.37.48,2.76.9,4.09,1.46l1.63.69c.21.09.42.18.63.27.62.26-.23-.05-.25-.1.07.2.88.52,1.07.63.51.3,1.01.62,1.53.91.76.43,1.49.61,2.34.81.52.12,1.05.27,1.58.37.02,0,.46.12.46.11-.03.05-.87-.43-.3-.11.89.5,1.81.97,2.73,1.41.81.39,1.67.5,2.55.67,1.72.34,3.15,1.03,4.8,1.61,1.49.52,3.02.95,4.57,1.25.79.15,1.61.26,2.38.48.98.29,1.92.74,2.91,1.01.5.13-.49-.27-.34-.15.12.09.29.15.42.21l1.6.81c.73.37,1.42.72,2.21.93.92.23,1.84.52,2.78.71,1.02.2,2.13-.07,3.16-.18.25-.03.52-.03.76-.08s.48.08-.02-.07c-.72-.22.57.17.77.22.92.22,1.86.54,2.8.65,1.1.12,2.4-.28,3.48-.46.69-.12,1.29-.25,1.96-.47,1.66-.54,3.65-1.01,5.18-1.87.52-.29-.29.16-.4,0,.02.03.46-.02.48-.02.62,0,1.24-.05,1.86-.07,1.03-.04,1.88-.16,2.84-.58.87-.37,1.82-.68,2.65-1.14-1.13.63-.01.02.34-.11l1.69-.66c1.35-.52,2.86-.38,4.21-.87.93-.34,1.81-.85,2.75-1.16.78-.26,1.63-.37,2.43-.54,1.6-.35,3.34-.75,4.81-1.47.87-.43,1.71-.94,2.55-1.42,0,0,.41-.2.41-.23,0,.12-.93.28-.33.18.54-.09,1.09-.29,1.62-.43,1.55-.41,3.18-.64,4.7-1.13,1.64-.52,3.14-1.64,4.7-2.38l1.43-.68c.14-.07.31-.12.44-.21.11-.07-.84.31-.28.13.96-.31,1.88-.72,2.84-1.02,1.49-.47,3.3-.52,4.65-1.34,1.6-.96,3.19-2.06,4.43-3.45.65-.73,1.53-1.47,2.03-2.32s.54-2.12.72-3.09.24-1.88.01-2.87c-.21-.9-.41-1.81-.62-2.71v1.33c.29-1.63.71-3.26.68-4.91l-.04-1.63c-.01-.58.01-1.22-.1-.27.11-.95.26-1.89.38-2.84.22-1.66.36-3.56.04-5.21-.18-.93-.44-1.86-.66-2.79-.04-.16-.05-.34-.12-.49-.12-.28-.09.81.09.44s.14-1.02.19-1.43c.13-.99.24-1.8.11-2.79s-.29-2.04-.43-3.06v1.33c.31-1.27.91-2.72.91-4.04s-.45-2.74-.67-4.04v1.33c.23-1.12.49-2.23.68-3.36.23-1.36-.37-2.94-.75-4.24-.27-.91.05.17-.04.16,0,0,0-.41,0-.46.03-.77.01-1.54.02-2.31,0-1.02,0-2.05-.01-3.07s.13-1.94.26-2.92c.16-1.26.04-2.3-.16-3.56-.09-.57-.16-1.15-.26-1.72,0-.02,0,.92.1.26.05-.33.04-.68.06-1.01.06-1,.13-1.99.17-2.99.05-1.19.25-2.47-.03-3.63s-.74-2.26-1-3.41-.29-2.26-.52-3.38-.96-2.04-1.5-2.97c-.24-.41-.45-.84-.71-1.23-.67-1.01-1.58-1.22-2.69-1.28-1.32-.07-2.7-.29-4.02-.1-2.18.31-4.17.78-6.3,1.34-1.11.29-2.27.47-3.37.81-1.25.39-2.57,1.04-3.72,1.65.1-.05.83-.23.12-.14-.39.05-.78.16-1.16.23-.59.12-1.23.18-1.8.36-1.27.39-2.46,1.3-3.61,1.95l1.26-.34c-1.46.13-3.47-.02-4.8.67-1.17.6-2.19,1.47-3.4,1.99-.79.35-1.59.68-2.39,1.03s.69-.21.12-.06c-.44.12-.88.31-1.31.47-1.43.51-2.74.79-4.24,1.06s-2.89,1.15-4.17,2.01c-.61.41.56.03.12-.06-.32-.06-.85.13-1.17.17-.69.1-1.44.14-2.11.32-1.31.34-2.85.98-4.03,1.66-.76.43-1.52.9-2.25,1.38-.61.41-.25.08.09.03-.39.05-.82.28-1.19.4-1.6.54-3.19.91-4.82,1.34-1.49.39-2.77,1.41-4.06,2.2-2.74,1.68-.23,6.01,2.52,4.32Z" fill="#22251c"/>
        </g>
        <path d="M65.13,86.52c-.29,1.78-.58,3.56-.86,5.34-.17,1.1-.35,2.09-.15,3.2.18,1.01.38,2.01.57,3.02v-1.33c-.42,1.98-.82,3.76-.75,5.78s.46,3.83.88,5.78v-1.33c-.22,1.14-.47,2.28-.65,3.42-.22,1.33.19,2.68.26,4.02.05,1.13-.12,2.26-.07,3.39.05,1.27.43,2.74.8,3.95.16.52.14-.77-.07-.29-.1.25-.06.67-.09.92-.07.72-.16,1.45-.2,2.18-.06,1.11-.05,2.26,0,3.37.07,1.29.48,2.67.85,3.9.19.65,0-.28,0-.26-.02.22.04.47.05.69.06.75.05,1.55.17,2.3.14.81.17-.73.09-.15-.05.39-.11.78-.16,1.17-.1.69-.2,1.38-.29,2.08-.21,1.56.49,3.2.89,4.7.83,3.11,5.65,1.79,4.82-1.33-.3-1.12-.59-2.23-.89-3.35v1.33c.21-1.5.62-3.1.54-4.61-.09-1.72-.25-3.36-.67-5.02-.12-.48-.23-.96-.36-1.44-.03-.11-.04-.33-.11-.43.01.02,0,.86.07.42.15-.88-.03-1.92-.02-2.82.01-1.49.49-3.03.23-4.5-.14-.8-.35-1.6-.53-2.4-.02-.07-.27-.93-.21-.97s.01,1.02.09.39c.03-.2.01-.42.02-.63.04-1.66,0-3.18-.18-4.83-.02-.19.02-.91-.11-1.05-.03-.04-.16.83-.07.47.05-.18.07-.36.1-.54.17-.9.36-1.79.51-2.69.17-1.03-.12-1.97-.33-2.97-.1-.47-.19-.95-.31-1.42-.22-.92-.02.68,0,0,.02-.9.12-2.14-.1-3.02-.09-.37-.15.64-.08.44.06-.18.08-.4.12-.59l.37-1.74c.21-1.01.29-1.89.1-2.91-.18-.95-.36-1.9-.54-2.84v1.33c.36-2.27.72-4.53,1.09-6.8.22-1.33-.35-2.69-1.75-3.08-1.19-.33-2.86.41-3.08,1.75h0Z" fill="#22251c"/>
        <g>
          <path d="M18.19,91.3c0,5.25.05,10.52.97,15.7.43,2.42.84,5.13,3.37,6.2,1.12.47,2.35.68,3.53.97,1.31.32,2.61.64,3.92.97,3.12.77,4.46-4.05,1.33-4.82-2.14-.53-4.29-1.02-6.42-1.58-.08-.02-.42-.12-.42-.11,0-.02.3.36.28.36-.08-.01-.26-.93-.31-1.11-.27-1.12-.48-2.25-.65-3.39-.65-4.34-.6-8.79-.6-13.17,0-3.22-5-3.22-5,0h0Z" fill="#f5f9e1"/>
          <path d="M49.85,95.75c-4.61-1.81-8.19,2.95-9.12,6.86-1,4.21-1.06,9.62,1.05,13.5s6.83,5.82,11.04,3.88c2.08-.95,3.94-2.74,4.74-4.9s.53-5.03.36-7.39c-.19-2.65-.5-5.31-1.66-7.73-1.03-2.16-3.3-4.27-5.86-4-1.34.14-2.5,1.05-2.5,2.5,0,1.24,1.15,2.64,2.5,2.5.06,0,.33,0,.37-.02.15-.12.09.06-.11-.03-.14-.07.41.26.37.23.37.3.76.93.99,1.51.52,1.28.7,2.73.83,4.1.16,1.78.25,3.58.19,5.37-.04,1.37-.45,2.11-1.56,2.91-.46.33-.95.57-1.48.72-.47.12-1.06.11-1.37.03-.16-.04-.33-.09-.49-.15.06.02.25.12,0-.01-.28-.14-.56-.3-.81-.49-.13-.1-.71-.72-.9-1-1.57-2.38-1.42-5.79-1.16-8.5.14-1.44.48-2.98,1.28-4.17.32-.47.67-.81,1.17-1.02-.34.15.54-.08.3-.05-.29.03.36.12.09.02-.22-.08.44.17.42.17,1.26.49,2.74-.54,3.08-1.75.39-1.42-.48-2.58-1.75-3.08h0Z" fill="#f5f9e1"/>
          <path d="M76.62,99.35c.4,3.21,1.12,6.32,2.2,9.37.54,1.54,1.16,3.05,1.81,4.55.54,1.25,1.05,2.59,1.85,3.71.87,1.22,2.02,2.26,3.52,2.57,1.8.38,3.57-.27,4.92-1.47,1.16-1.04,1.8-2.54,2.31-3.98.55-1.54.99-3.12,1.37-4.71.85-3.56,1.37-7.19,1.89-10.82.19-1.33-.33-2.69-1.75-3.08-1.17-.32-2.88.4-3.08,1.75-.5,3.5-1,7.01-1.81,10.46-.39,1.66-.84,3.31-1.41,4.93-.2.57-.37,1.12-.78,1.64.1-.13-.31.31-.12.16-.07.06-.76.41-.32.25-.33,0-.38,0-.16,0,.16.09.17.09.02,0-.02.04-.15-.08-.37-.33.21.23-.24-.37-.29-.46-.16-.27-.3-.54-.43-.82-.67-1.37-1.26-2.77-1.81-4.19-1.18-3.06-2.17-6.27-2.57-9.53-.16-1.34-1.03-2.5-2.5-2.5-1.22,0-2.67,1.15-2.5,2.5h0Z" fill="#f5f9e1"/>
          <g>
            <path d="M116.92,88.18c-3.22-.17-6.48.15-9.61.92-1.68.42-3.58.88-4.2,2.72-.49,1.46-.28,3.27-.27,4.8,0,3.35.12,6.71.35,10.06.11,1.6-.02,3.55.98,4.89s2.67,1.59,4.28,1.56c3.63-.05,7.26-.77,10.63-2.12,1.25-.5,2.13-1.67,1.75-3.08-.33-1.19-1.81-2.25-3.08-1.75-2.05.82-4.2,1.45-6.39,1.74-1.14.16-2.31.21-3.46.2-.1,0-.21,0-.31,0-.18-.01-.17,0,.03.02.07.14.6.68.73.76l.02.13c-.02-.2-.03-.39-.05-.59-.03-.33-.05-.66-.08-.98-.18-2.43-.3-4.86-.36-7.29-.03-1.25-.05-2.5-.05-3.75,0-.66,0-1.32.01-1.97,0-.26.01-.53.01-.79,0-.75-.13-.02.07-.51l-.64,1.1c-.09.03-.17.07-.25.11.23-.07.47-.14.71-.21.47-.13.95-.26,1.43-.36.74-.17,1.48-.32,2.23-.43,1.82-.26,3.68-.29,5.51-.19,1.35.07,2.5-1.2,2.5-2.5,0-1.41-1.15-2.43-2.5-2.5h0Z" fill="#f5f9e1"/>
            <path d="M106.53,103.61c2.61.03,5.25-.31,7.77-.98,1.26-.34,2.16-1.8,1.75-3.08s-1.72-2.11-3.08-1.75c-1.09.29-2.2.51-3.32.66l.66-.09c-1.26.16-2.52.24-3.78.23s-2.56,1.16-2.5,2.5,1.1,2.49,2.5,2.5h0Z" fill="#f5f9e1"/>
          </g>
        </g>
      </g>
    </g>
  </g>
</svg>