<?xml version="1.0" encoding="UTF-8"?>
<svg id="_레이어_2" data-name="레이어_2" xmlns="http://www.w3.org/2000/svg" viewBox="0 0 26.79 19.5">
  <g id="_레이어_3" data-name="레이어_3">
    <g>
      <path d="M17.66.66C14.24.3,10.83-.14,7.39.04c-.68.04-1.86-.14-2.4.35-.58.53-.97,1.63-1.36,2.3-.93,1.58-1.61,3.18-2.32,4.88S.38,11.09.01,12.87c-.07.32.09.69.44.77,1.46.34,3,.9,4.51.88,1.73-.02,3.44-.02,5.17.04.54.02,1.11.1,1.65.06.45-.03-.1-.24.19.07.67.7,1.85,1.19,2.67,1.72,1.14.74,2.42,1.84,3.73,2.91.3.25.77.25.98-.13,2.37-4.26,4.76-8.53,7.36-12.65.19-.3.04-.67-.22-.86-.77-.55-1.53-1.14-2.32-1.65-.58-.38-1.26-.53-1.92-.75-.84-.28-1.53-.45-1.96-.8-.74-.61-1.54-1.17-2.3-1.75-.64-.49-1.26.6-.63,1.08.77.58,1.52,1.19,2.3,1.75.56.4,1.14.55,1.8.77.55.18,1.11.34,1.65.55.4.15.06-.02.43.23.78.54,1.55,1.1,2.32,1.65l-.22-.86c-2.6,4.12-4.99,8.39-7.36,12.65l.98-.13c-1.2-.98-2.37-2.06-3.67-2.9-.95-.62-1.9-1.26-2.86-1.85-.58-.35-1.08-.32-1.76-.34-1.84-.07-3.65-.1-5.48-.08-1,0-.97.03-1.91-.19l-2.77-.64.44.77.74-3.62c.19-.94.59-1.77.96-2.66.89-2.13,1.83-3.68,3.1-5.84l-.54.31c2.06-.11,4.04-.22,6.1-.06s4.06.37,6.09.58c.8.09.79-1.17,0-1.25Z" fill="#787d6f"/>
      <path d="M15.63,2.65l-.8,1.95c-.19.47-.44.94-.53,1.45l-.43,2.6c-.08.49-.23.86-.42,1.33l-.96,2.32c-.13.31.14.68.44.77.36.1.64-.13.77-.44l.81-1.95c.2-.47.45-.94.53-1.45l.43-2.6c.08-.49.22-.86.42-1.33l.95-2.32c.13-.31-.14-.68-.44-.77-.36-.1-.64.13-.77.44h0Z" fill="#787d6f"/>
    </g>
  </g>
</svg>