<svg width="122" height="112" viewBox="0 0 122 112" fill="none" xmlns="http://www.w3.org/2000/svg">
<g filter="url(#filter0_d_49_147)">
<path d="M67.6254 4.5C60.8246 4.5 54.8534 8.21211 51.4622 13.8058C48.071 8.21211 42.0998 4.5 35.2991 4.5C24.7382 4.5 16.1747 13.455 16.1747 24.4989C16.1747 42.8234 45.1311 65.0834 51.4622 65.0834C57.7933 65.0834 86.7497 42.8266 86.7497 24.4989C86.7497 13.455 78.1863 4.5 67.6254 4.5Z" fill="#FFCAD9"/>
<path opacity="0.7" d="M86.7009 24.9167C79.9002 24.9167 73.929 28.6289 70.5378 34.2225C67.1466 28.6289 61.1754 24.9167 54.3746 24.9167C43.8137 24.9167 35.2503 33.8717 35.2503 44.9156C35.2503 63.2402 64.2067 85.5001 70.5378 85.5001C76.8688 85.5001 105.825 63.2434 105.825 44.9156C105.825 33.8717 97.2618 24.9167 86.7009 24.9167Z" fill="#FF3981"/>
</g>
<defs>
<filter id="filter0_d_49_147" x="0.974744" y="0.3" width="120.051" height="111.4" filterUnits="userSpaceOnUse" color-interpolation-filters="sRGB">
<feFlood flood-opacity="0" result="BackgroundImageFix"/>
<feColorMatrix in="SourceAlpha" type="matrix" values="0 0 0 0 0 0 0 0 0 0 0 0 0 0 0 0 0 0 127 0" result="hardAlpha"/>
<feOffset dy="11"/>
<feGaussianBlur stdDeviation="7.6"/>
<feComposite in2="hardAlpha" operator="out"/>
<feColorMatrix type="matrix" values="0 0 0 0 0 0 0 0 0 0 0 0 0 0 0 0 0 0 0.06 0"/>
<feBlend mode="normal" in2="BackgroundImageFix" result="effect1_dropShadow_49_147"/>
<feBlend mode="normal" in="SourceGraphic" in2="effect1_dropShadow_49_147" result="shape"/>
</filter>
</defs>
</svg>
