<?xml version="1.0" encoding="UTF-8"?>
<svg id="_레이어_2" data-name="레이어_2" xmlns="http://www.w3.org/2000/svg" viewBox="0 0 46.65 29.1">
  <g id="_x3C_하단바_x3E_">
    <g>
      <g>
        <path d="M8.32,10.06c1.38-.17,2.44-1.33,2.43-2.73-.01-2.51.31-6.06,2.22-6.06h18.79c1.14,0,2.16.7,2.57,1.76l1.49,3.84c.39,1,1.32,1.69,2.4,1.76l4.11.27c1.36.09,2.45,1.15,2.57,2.51.37,4.11.96,12.18-.23,12.32-1.34.15-31.09.05-40.7.01-1.6,0-2.86-1.37-2.74-2.97l.59-7.68c.1-1.31,1.12-2.37,2.42-2.53l4.07-.49Z" fill="#f5f9e1"/>
        <path d="M8.65,11.27c1.42-.26,2.65-1.23,3.12-2.61s.17-2.83.41-4.21c.1-.58.25-1.71.83-1.93.25-.1.72,0,.98,0h16.36c1.04,0,2.21-.2,2.8.89.78,1.43.99,3.17,1.84,4.57,1.26,2.08,3.66,1.93,5.78,2.07.72.05,1.7-.05,2.31.41.93.72.73,2.62.81,3.69.19,2.58.48,5.31.16,7.89-.03.23-.13.77-.14.76-.16-.14,1.1-.19.57-.33-.31-.08-.75.02-1.07.03-1.42.02-2.83.03-4.25.03-9.54.03-19.08,0-28.63-.03-1.9,0-3.8-.01-5.7-.02-1.23,0-2.35-.23-2.34-1.72,0-.48.07-.96.11-1.44l.43-5.65c.15-1.9,1.56-1.91,3.13-2.1l2.16-.26c1.58-.19,1.6-2.69,0-2.5s-3.61.15-5.18.74c-2.31.87-2.53,3.05-2.69,5.16-.15,1.93-.33,3.87-.44,5.8-.16,2.8,1.91,4.46,4.56,4.47,10.17.04,20.34.07,30.51.06,3.12,0,6.3.15,9.42-.07,1.97-.14,2.05-2.35,2.11-3.9.13-2.95-.13-5.94-.38-8.88-.13-1.51-.43-2.89-1.75-3.81-.89-.63-1.88-.72-2.93-.79s-2.08-.08-3.1-.2c-.96-.11-1.34-.67-1.66-1.5-.76-1.96-1.3-4.59-3.41-5.53-1.13-.5-2.5-.35-3.71-.35h-12.82C15.59.02,14.32-.03,13.06.02c-2.63.11-3.25,2.91-3.46,5.06-.15,1.5.33,3.42-1.61,3.77-1.58.29-.91,2.7.66,2.41Z" fill="#787d6f"/>
      </g>
      <g>
        <path d="M17.7,24.25c0,.91-.38,1.91-.83,2.54-.52.72-1.52,1.08-2.35,1.08s-1.79-.39-2.3-1.12c-.45-.63-.96-1.6-.96-2.5s.78-1.69,1.22-2.31c.52-.72,1.21-1.08,2.04-1.08s1.26.54,1.78,1.27c.45.63,1.4,1.22,1.4,2.13Z" fill="#787d6f"/>
        <path d="M16.45,24.25c0,.08,0,.15,0,.23,0,.35.04-.13,0,.07-.03.15-.06.31-.1.46-.05.17-.1.33-.17.5.02-.05.1-.2,0,.01-.05.1-.1.2-.15.29-.07.12-.14.23-.22.34.15-.21-.07.04-.14.11.13-.15.09-.06.02-.01-.06.04-.11.07-.17.11-.07.04-.15.08-.22.12-.13.07.19-.06-.03,0-.15.04-.29.09-.44.12-.32.06.17,0-.15.01-.15,0-.29,0-.43-.01.05,0,.26.06.04,0-.1-.03-.2-.05-.3-.08-.07-.02-.13-.04-.19-.07.05.02.21.11.02,0-.12-.07-.24-.14-.35-.21.19.11.06.05.01,0s-.1-.1-.15-.14c-.23-.2.06.12-.03-.02-.04-.07-.1-.14-.14-.21-.09-.14-.17-.28-.25-.43-.04-.07-.07-.14-.11-.2-.01-.03-.11-.25-.06-.12.07.16-.07-.2-.07-.18-.03-.07-.05-.15-.07-.23s-.04-.15-.06-.23c-.06-.25-.02.15-.01-.12,0-.07,0-.15,0-.22,0,.06-.06.25,0,.03.02-.06.05-.13.06-.2-.04.2-.04.08,0,.01.15-.28.33-.54.52-.8s-.11.12.02-.03c.09-.11.17-.22.26-.33.03-.04.3-.38.13-.18.09-.11.19-.2.29-.3.05-.05.18-.11-.02,0,.08-.05.17-.1.25-.15.07-.04.2-.06-.04,0,.06-.02.12-.04.18-.06s.13-.02.19-.04c-.21.07-.13,0-.04,0,.06,0,.14,0,.21,0,.28-.03-.12-.06,0-.01.05.02.12.04.17.05.14.02-.22-.11-.02,0,.24.13-.12-.14,0-.01.05.06.11.1.17.16.04.05.09.09.13.14.07.08.18.23.06.06.23.31.45.62.71.9.21.22.43.44.63.68-.19-.23.03.09.08.16.1.13-.07-.27,0-.01s0-.26,0,.03c.02.65.56,1.28,1.25,1.25s1.28-.55,1.25-1.25c-.04-1-.58-1.74-1.25-2.43-.1-.11-.21-.21-.31-.33-.02-.02-.19-.24-.06-.07.14.18-.07-.1-.08-.11-.27-.37-.55-.74-.91-1.04-.81-.66-1.84-.82-2.85-.54s-1.63.92-2.2,1.71c-.19.26.16-.21-.04.06-.09.11-.17.22-.26.33-.13.17-.25.34-.37.51-.24.38-.45.81-.54,1.25-.22,1.07.13,2.16.64,3.1.44.82,1.05,1.55,1.9,1.95.9.43,1.83.54,2.81.36,1.05-.19,1.98-.8,2.58-1.68s.92-2.02.94-3.09c.01-.65-.58-1.28-1.25-1.25s-1.24.55-1.25,1.25Z" fill="#787d6f"/>
      </g>
      <g>
        <path d="M34.83,24.25c0,.91-.33,1.93-.77,2.55-.52.72-1.54.88-2.37.88s-1.24-.59-1.75-1.32c-.45-.63-.93-1.2-.93-2.11s-.05-1.87.39-2.5c.52-.72,1.46-1.07,2.29-1.07s1.66.43,2.17,1.16c.45.63.97,1.5.97,2.41Z" fill="#787d6f"/>
        <path d="M33.58,24.25c0,.15-.01.31-.03.46.02-.23,0-.03,0,.02-.02.08-.03.15-.05.23-.04.15-.08.3-.13.45-.02.07-.05.14-.08.22.08-.24-.04.07-.05.11-.05.11-.11.21-.18.32-.03.04-.16.18-.05.07s-.04.02-.07.05c-.11.13.17-.09.03-.02-.06.03-.11.07-.16.1-.04.02-.23.09-.07.04.17-.06-.09.02-.13.03-.13.04-.26.05-.39.09.29-.07-.06,0-.16.01-.13,0-.25,0-.38.01-.29.01.04.02.04.02-.05,0-.09-.02-.13-.03-.09-.03-.06-.01.09.05-.02,0-.15-.08-.15-.09-.16-.08,0,.03.04.03-.06,0-.22-.22-.26-.27-.04-.04-.15-.18,0,.02-.04-.05-.08-.11-.12-.17-.08-.11-.16-.23-.25-.35-.15-.22-.31-.43-.45-.65-.07-.11-.13-.23-.19-.35.12.21.03.09.01.02-.03-.1-.05-.2-.08-.3.01.05,0,.25,0,0,0-.08,0-.16,0-.23,0-.16,0-.32,0-.48s0-.31.01-.47c0-.08.01-.15.02-.23.02-.24-.03.08,0-.05.02-.07.03-.14.05-.21,0-.04.07-.25.02-.1s.02-.04.04-.08c.03-.04.05-.08.08-.13-.12.19-.05.06,0,.02.04-.04.11-.09.15-.14-.13.15-.09.06-.01,0,.09-.06.17-.1.26-.16.05-.03.22-.1-.02,0,.06-.03.13-.05.19-.07.13-.04.26-.07.39-.1.08-.02.21,0-.04,0,.06,0,.13-.01.2-.01s.13,0,.2,0c.24,0-.11-.04.03,0,.15.04.3.07.45.13-.23-.09-.06-.02-.01,0,.09.06.18.11.27.17-.04-.03-.17-.16,0,0,.07.06.13.12.2.19.02.02.17.2.08.08s.09.13.09.13c.19.28.36.57.51.88.11.23.03.08.01.03.04.11.08.22.11.34.02.08.04.15.05.23-.04-.22,0,.06,0,.14.02.65.56,1.28,1.25,1.25s1.27-.55,1.25-1.25c-.05-1.9-1.35-3.92-3.14-4.6-1.63-.61-3.88.07-4.73,1.64-.45.83-.46,1.8-.46,2.72s.26,1.79.81,2.57c.48.68.94,1.42,1.63,1.89.77.53,1.71.49,2.59.35,1.02-.16,1.91-.68,2.45-1.56s.82-1.98.84-3.02c0-.65-.58-1.28-1.25-1.25s-1.24.55-1.25,1.25Z" fill="#787d6f"/>
      </g>
    </g>
  </g>
</svg>