<?xml version="1.0" encoding="UTF-8"?>
<svg id="_레이어_2" data-name="레이어_2" xmlns="http://www.w3.org/2000/svg" viewBox="0 0 85.07 84.61">
  <g id="GUIDE">
    <g>
      <polygon points="82.28 42.23 82.56 47.97 80.83 53.44 78.63 58.66 76.41 63.92 72.93 68.46 68.82 72.42 64.55 76.3 59.39 78.87 54 80.86 48.37 81.94 42.66 81.79 36.92 82.14 31.32 80.85 25.87 78.99 21.18 75.65 16.29 72.66 12.2 68.62 9.32 63.65 6.46 58.76 4.11 53.55 3.16 47.91 2.5 42.23 3.47 36.59 4.61 31.06 5.84 25.42 9.34 20.82 12.36 15.98 16.31 11.82 20.95 8.45 26.04 5.84 31.45 4.08 37 2.9 42.66 2.53 48.37 2.51 53.88 4 59.39 5.61 64.22 8.68 68.64 12.25 72.99 15.95 76.37 20.57 78.68 25.78 80.87 31.01 81.92 36.59 82.28 42.23" fill="#f9b341"/>
      <path d="M79.78,42.23c.05,1.08.1,2.16.16,3.24l.09,1.82c0,.17-.02.4.03.56.12.4.27-.78.06-.43-.58.97-.78,2.46-1.12,3.54-.16.52-.37,1.04-.49,1.56-.17.71.4-.88,0,.08-.86,2.03-1.72,4.05-2.57,6.08l-1.59,3.78c-.08.2-.17.39-.25.59-.21.5.15-.4.16-.4-.15,0-.72.93-.81,1.05-.81,1.06-1.62,2.11-2.44,3.17-.53.69.43-.38,0-.06-.47.36-.88.84-1.3,1.25-1.49,1.44-2.99,2.86-4.52,4.26-.2.18-2.46,1.97-2.4,2.18-.1-.31.84-.48.21-.24-.19.07-.38.19-.56.28l-2.06,1.03-1.64.82c-.17.08-.35.15-.5.25-.38.24.8-.28.38-.16-1.18.35-2.33.86-3.49,1.29-1.97.73-3.92,1.07-5.99,1.47-.44.08-.91.13-1.34.26-.23.07.79.04.46-.08-.17-.06-.46-.01-.64-.02l-4.1-.11c-1.99-.05-4,.17-5.99.29-.1,0-.44-.03-.54.03-.18.11.87.23.49.07-.48-.21-1.12-.26-1.63-.37-1.22-.28-2.45-.52-3.65-.84-.79-.21-1.57-.51-2.35-.78-1-.34-2.2-.98-3.25-1.11.16.02.73.46.38.11-.13-.12-.31-.22-.45-.32l-1.82-1.3c-.75-.53-1.49-1.1-2.26-1.6-.93-.61-1.9-1.17-2.85-1.75l-1.58-.97c-.11-.07-.27-.21-.4-.24-.04,0,.65.61.31.22-.82-.97-1.85-1.82-2.75-2.71-.34-.34-.67-.73-1.05-1.03-.4-.33.21.24.22.31-.02-.13-.2-.35-.27-.47-2.01-3.47-4.34-6.91-5.99-10.56-.54-1.19-1.07-2.39-1.62-3.58-.06-.13-.1-.28-.18-.39.11.17.19.82.21.38.02-.56-.21-1.23-.3-1.78-.2-1.17-.32-2.38-.6-3.54-.11-.45.09.82.06.46-.01-.17-.04-.34-.06-.5l-.25-2.13-.22-1.93c-.03-.23-.03-.49-.08-.72-.14-.57.06.06-.12.34.16-.24.14-.82.19-1.1l.37-2.18c.36-2.07.77-4.12,1.19-6.18s.87-4.08,1.32-6.12c.06-.26.33-.91.25-1.17.07.24-.48.71-.11.38.17-.16.31-.4.45-.59l2.46-3.23c1.21-1.59,2.24-3.36,3.25-5.07.48-.81-.36.29-.01-.02.44-.4.84-.88,1.25-1.31l1.41-1.48c.3-.31.88-.73,1.07-1.12.15-.32-.56.39-.35.25.14-.09.28-.2.41-.3l1.64-1.19c.83-.6,1.64-1.29,2.52-1.83s1.85-.95,2.76-1.42l1.72-.89c.16-.08.35-.16.5-.26.36-.24-.81.24-.38.16,1.91-.37,3.71-1.34,5.61-1.79,1.27-.3,2.56-.54,3.84-.81.41-.09.89-.13,1.29-.27.38-.14-.83.03-.43.06.2.01.43-.03.63-.04,2.01-.13,4.02-.31,6.04-.32l3.99-.02c.13,0,.41.05.54,0,.21-.08-.87-.24-.5-.06.47.22,1.1.3,1.6.43,1.95.53,3.9,1.06,5.85,1.63l2.06.6c.36.1.96.42,1.34.39.02,0-.71-.43-.41-.15.13.13.35.22.5.32l1.78,1.13,1.7,1.08c.18.11.36.24.54.35.47.25-.34-.29-.29-.25.85.79,1.83,1.48,2.73,2.21,1.6,1.29,3.16,2.62,4.73,3.95.36.3.71.7,1.11.95.43.26-.16-.26-.2-.33.09.15.21.29.32.44l2.36,3.22c1.2,1.64,1.85,3.59,2.67,5.44.09.19.17.39.26.58.19.38-.27-.64-.18-.44.19.46.38.92.58,1.37.49,1.17,1.03,2.33,1.47,3.52.67,1.82.65,3.88,1.15,5.75.11.43-.04-.85-.06-.46,0,.17.02.36.03.53l.13,1.95c.07,1.02.13,2.05.2,3.07.09,1.35,1.09,2.5,2.5,2.5,1.29,0,2.59-1.15,2.5-2.5-.14-2.13-.12-4.32-.47-6.43-.32-1.92-.47-4.14-1.23-5.93-.86-2.04-1.69-4.1-2.59-6.12s-1.61-3.95-2.89-5.7c-.78-1.07-1.55-2.14-2.34-3.2-.58-.79-1.3-1.34-2.04-1.98-1.63-1.39-3.27-2.76-4.93-4.11-1.8-1.46-3.58-2.74-5.54-3.99-.88-.56-1.76-1.26-2.76-1.61-1.15-.39-2.35-.68-3.51-1.02-2.05-.6-4.1-1.15-6.16-1.71-2.22-.6-4.44-.43-6.73-.42-4.28.02-8.45.57-12.61,1.59-3.9.96-7.92,2.56-11.33,4.69-1,.62-1.93,1.4-2.88,2.1-.79.57-1.67,1.12-2.38,1.8-1.53,1.48-3.28,3.09-4.44,4.89s-2.11,3.57-3.36,5.22l-2.56,3.36c-.57.74-.71,1.5-.9,2.4-.93,4.25-1.86,8.5-2.59,12.8C.37,39.94,0,41.15,0,42.24s.27,2.31.4,3.43c.27,2.28.62,4.52,1.01,6.78.72,4.27,3.26,8.18,5.42,11.88,1.03,1.77,1.99,3.59,3.09,5.32.51.8,1.21,1.41,1.88,2.07.89.88,1.76,1.82,2.7,2.66,1.57,1.4,3.68,2.27,5.43,3.43s3.39,2.87,5.34,3.6,3.78,1.42,5.71,1.91c1.32.34,2.65.61,3.98.92.87.2,1.68.41,2.57.35,2.09-.13,4.18-.34,6.27-.28,2.33.06,4.49.17,6.77-.26s4.15-.8,6.22-1.57c2.23-.82,4.32-1.69,6.45-2.74,1.03-.51,2.21-.93,3.09-1.68s1.66-1.51,2.49-2.26c1.59-1.44,3.13-2.92,4.68-4.41,1.66-1.6,2.98-3.47,4.38-5.3s2.01-4.03,2.86-6.06c.15-.36.55-1.28.06-.15.2-.48.41-.96.61-1.44.51-1.2,1.02-2.41,1.53-3.61.82-1.95,1.54-4.11,2.02-6.17.24-1.01.02-2.16-.03-3.18-.05-1.08-.1-2.16-.16-3.24-.16-3.2-5.16-3.22-5,0Z" fill="#f9b341"/>
    </g>
  </g>
</svg>