<?xml version="1.0" encoding="UTF-8"?>
<svg id="_레이어_2" data-name="레이어 2" xmlns="http://www.w3.org/2000/svg" viewBox="0 0 26.06 24.47">
  <g id="GUIDE">
    <g>
      <path d="M20.62,1.49c-2.54,2.47-5.07,4.92-7.65,7.35-1.1,1.04-2.2,2.06-3.33,3.06l-2.76,2.44c-.27.24-.56.46-.8.71-.18.19.61-.43,0-.01-1.73,1.22-3.45,2.47-5.17,3.7-.82.59-1.22,1.63-.67,2.57.48.81,1.74,1.27,2.57.67,1.58-1.13,3.16-2.26,4.74-3.39,1.38-.99,2.61-2.15,3.88-3.28,2.45-2.17,4.85-4.4,7.21-6.68,1.55-1.49,3.08-3,4.62-4.5,1.73-1.69-.92-4.34-2.65-2.65h0Z" fill="#22251c" stroke-width="0"/>
      <path d="M2.55,3.2c6.07,7.57,12.88,14.52,20.32,20.75.78.65,1.89.76,2.65,0,.67-.67.78-2,0-2.65C18.08,15.06,11.27,8.11,5.2.55,4.56-.24,3.21-.12,2.55.55c-.78.78-.64,1.86,0,2.65h0Z" fill="#22251c" stroke-width="0"/>
    </g>
  </g>
</svg>