<?xml version="1.0" encoding="UTF-8"?>
<svg id="_레이어_2" data-name="레이어_2" xmlns="http://www.w3.org/2000/svg" viewBox="0 0 41.43 41.99">
  <g id="_x3C_하단바_x3E_">
    <g>
      <g>
        <path d="M19.89,27.1c1.27.5,2.54,1.44,4.01,1.86,2.91-.45,2.35-1.02,5.23-2.8,1.51-.94,3.31-1.97,4.9-3.3,1.5-1.26,2.37-3.18,3.51-4.73,1.2-1.63,2.07-3.22,2.39-5.11s.32-3.68-.19-5.33c-.58-1.86-1.22-3.74-2.65-4.79s-3.4-1.81-5.43-1.62c-1.58.15-3.51.82-5.34,1.96-1.37.85-2.61,2.84-4.08,4.34-1.23-1.87-2.85-3.54-4.61-4.34-1.98-.9-4.17-1.67-6.09-1.26-2.05.43-3.99,1.9-5.07,3.74-.78,1.33-.97,3.31-.93,5.39.03,1.65.71,3.29,1.53,5.12" fill="#f5f9e1"/>
        <path d="M19.26,28.18c1.88.8,3.59,2.31,5.72,1.85,1.43-.31,2.34-1.05,3.47-1.9,1.76-1.33,3.77-2.31,5.53-3.64s2.76-2.84,3.89-4.6,2.46-3.45,3.06-5.56c.56-1.98.67-4.2.24-6.21-.4-1.85-1.14-3.94-2.4-5.39S35.34.32,33.39.07c-2.4-.31-4.81.48-6.9,1.62s-3.45,3.23-5.12,5l1.96.25c-1.7-2.51-3.73-4.31-6.56-5.43s-5.52-1.27-8.11.29c-2.33,1.41-3.83,3.62-4.2,6.32-.44,3.21.26,5.82,1.55,8.72.65,1.47,2.8.2,2.16-1.26-.98-2.22-1.54-4.21-1.3-6.65.21-2.13,1.2-3.84,3.05-4.97,4.04-2.45,8.97.86,11.25,4.24.44.64,1.38.87,1.96.25,1.16-1.23,2.11-2.73,3.4-3.83s3.26-1.85,4.95-2.08,3.67.32,5.01,1.45c1.2,1.01,1.7,2.76,2.11,4.21.47,1.69.4,3.57-.04,5.27s-1.54,3.16-2.54,4.66c-.94,1.4-1.71,2.9-3.04,3.98s-2.96,2.02-4.48,2.97c-1.1.69-2.09,1.79-3.29,2.3-.77.33-1.29.32-2.03-.02-.9-.42-1.74-.94-2.66-1.33-1.46-.62-2.74,1.53-1.26,2.16h0Z" fill="#787d6f"/>
      </g>
      <g>
        <g>
          <path d="M5.27,40.51c-1.57-.91-1.69-.7-3.26-1.6-.7-.4-.98-1.45-.57-2.15,1.25-2.17,1.38-2.09,2.63-4.26s1.29-2.14,2.55-4.31c.4-.7,1.27-1.07,1.97-.67,1.57.91,1.51,1.01,3.08,1.92.7.4.84,1.21.43,1.91-1.25,2.17-1.11,2.25-2.36,4.41s-1.25,2.17-2.5,4.34c-.4.7-1.26.81-1.96.41Z" fill="#787d6f"/>
          <path d="M5.9,39.43c-.47-.27-.95-.51-1.45-.73s-.76-.31-1.31-.6c-.28-.15-.62-.24-.64-.57-.03-.38.53-1.03.76-1.39,1.07-1.72,2.12-3.44,3.17-5.17.21-.35.42-.7.63-1.05.15-.26.31-.52.46-.78.08-.14.2-.47.39-.52s.8.43,1,.56c.37.24.73.49,1.1.73.25.16.93.42,1.06.64.09.15-.49.95-.59,1.14-.43.8-.81,1.62-1.25,2.42-.59,1.1-1.24,2.18-1.86,3.26-.25.44-.51.88-.76,1.33-.18.31-.29.95-.7.74-1.43-.73-2.7,1.42-1.26,2.16.72.37,1.51.53,2.29.27.94-.31,1.37-1.1,1.83-1.91.6-1.04,1.2-2.09,1.81-3.13.65-1.13,1.23-2.28,1.83-3.43.35-.66.83-1.31,1.05-2.03.26-.85.08-1.79-.51-2.46-.48-.54-1.2-.84-1.79-1.23-.51-.33-1-.67-1.52-.98-.75-.45-1.51-.72-2.38-.47-.93.26-1.48.97-1.95,1.77-1.28,2.2-2.57,4.39-3.95,6.52-.44.68-1.02,1.44-1.24,2.22-.24.85-.06,1.8.46,2.51s1.35,1.09,2.14,1.43c.69.3,1.2.51,1.94.93,1.4.8,2.66-1.36,1.26-2.16Z" fill="#787d6f"/>
        </g>
        <g>
          <path d="M6.93,16.74c1.44-2.72,4.18-4.58,7.47-4.58,2.37,0,4.44.99,5.99,2.55s2.54,3.62,2.54,5.99-1.02,4.4-2.58,5.96-3.58,2.78-5.96,2.78-4.56-1.07-6.11-2.63-2.57-3.74-2.57-6.11c0-1.45.38-2.86,1.01-4.06" fill="#f5f9e1"/>
          <path d="M8.01,17.37c1.36-2.48,3.81-4.05,6.67-3.96s5.72,2.26,6.64,5.06c1,3.05-.23,6.03-2.63,8.02-2.54,2.1-5.87,2.19-8.55.27-3.01-2.16-4.01-6.19-2.33-9.49.73-1.43-1.43-2.7-2.16-1.26-1.98,3.89-1.36,8.58,1.75,11.69s7.54,3.91,11.27,1.83c3.53-1.97,5.93-5.84,5.44-9.94s-3.55-7.47-7.46-8.41c-4.32-1.04-8.69,1.09-10.8,4.93-.77,1.41,1.38,2.67,2.16,1.26h0Z" fill="#787d6f"/>
        </g>
      </g>
    </g>
  </g>
</svg>