<?xml version="1.0" encoding="UTF-8"?>
<svg id="_레이어_2" data-name="레이어_2" xmlns="http://www.w3.org/2000/svg" viewBox="0 0 38.3 37.85">
  <g id="_x3C_하단바_x3E_">
    <g>
      <path d="M17.58,25.84c1.8.69,3.66,1.46,5.59,1.01,1.21-.28,2.1-.93,3.11-1.61,3.31-2.25,6.75-4.46,9.28-7.64,1.2-1.5,2.05-3.26,2.49-5.13s.23-3.77-.34-5.67C36.69,3.36,34.95.3,31.01.03c-2.02-.14-4.21.23-6.06,1.06s-3.94,2.05-5.45,3.52l1.96.25C18.42.48,12.61-1.16,7.8,1.37c-2.13,1.12-3.43,3.29-4.18,5.52-.98,2.92.14,5.43,1.33,8.08.66,1.47,2.81.2,2.16-1.26-.87-1.95-1.81-3.8-1.14-5.96.52-1.68,1.5-3.39,3.1-4.22,3.55-1.84,7.99-.65,10.23,2.6.46.66,1.35.85,1.96.25,1.33-1.29,3.32-2.46,5.05-3.16,1.58-.64,3.78-.98,5.46-.57,1.92.47,2.75,2.34,3.31,4.06.69,2.14,1,3.93.29,6.12-1.28,3.92-5.11,6.8-8.41,9.01-1.14.76-2.38,1.83-3.65,2.38-1.66.71-3.47-.17-5.05-.78s-2.16,1.84-.66,2.41h0Z" fill="#22251c"/>
      <g>
        <path d="M5.22,35.33c-.82-.47-1.65-.98-2.49-1.39-.14-.07-.24-.09-.28-.22.05.15.02,0,.08-.08.34-.49.61-1.06.9-1.58.8-1.45,1.53-2.94,2.32-4.39.27-.5.55-.99.83-1.48.11-.19.2-.4.31-.47-.03.02.21-.02.19-.03.32.06.75.4,1.09.59s.7.39,1.05.58c.2.11.51.24.66.37.13.11.07,0,.12.19,0,0,.02.13-.01.2-.1.24-.34.57-.49.83-.48.81-.96,1.62-1.46,2.42-.47.75-.94,1.5-1.4,2.26-.31.51-.61,1.03-.91,1.54-.13.22-.24.56-.45.71.1-.07.17.05-.05-.06-.6-.31-1.36-.16-1.71.45-.33.56-.15,1.4.45,1.71.78.4,1.64.51,2.44.11s1.15-1.11,1.57-1.83c.57-.98,1.16-1.95,1.77-2.92.56-.9,1.12-1.8,1.66-2.71.37-.62.85-1.27,1.02-1.98.18-.75.03-1.6-.4-2.23-.67-1-2.03-1.48-3.05-2.06-.64-.37-1.26-.69-2.02-.67s-1.54.37-2.04.95-.81,1.31-1.17,1.96c-.29.53-.58,1.06-.86,1.59-.46.89-.91,1.78-1.39,2.65-.79,1.44-2.15,3.07-1.15,4.74.42.7,1.2,1.05,1.89,1.43.57.31,1.15.63,1.71.95,1.4.8,2.66-1.36,1.26-2.16Z" fill="#22251c"/>
        <path d="M7.26,15.27c1.23-2.25,3.46-3.81,6.08-3.73,2.81.09,5.3,1.98,6.05,4.69s.01,5.71-2.26,7.36-5.59,1.66-7.91.16c-1.23-.79-2.15-2.13-2.58-3.51-.55-1.77-.23-3.36.61-4.97.74-1.43-1.42-2.69-2.16-1.26-.98,1.88-1.48,3.79-1.1,5.91.33,1.83,1.28,3.58,2.6,4.89,2.72,2.7,7.13,3.19,10.55,1.65s5.37-5.45,4.98-9.19-3.05-7.07-6.9-7.98c-4.08-.96-8.12,1.1-10.1,4.72-.77,1.41,1.38,2.67,2.16,1.26h0Z" fill="#22251c"/>
      </g>
    </g>
  </g>
</svg>