<?xml version="1.0" encoding="UTF-8"?>
<svg id="_레이어_2" data-name="레이어 2" xmlns="http://www.w3.org/2000/svg" viewBox="0 0 27.62 41.57">
  <g id="_하단바_" data-name="&amp;lt;하단바&amp;gt;">
    <g>
      <path d="M13.62,27.7c0,.21.01.43.01.64,0,.17.03.33.11.48.05.15.14.29.26.4.11.12.25.21.4.26.15.08.31.11.48.11l.33-.04c.21-.06.4-.17.55-.32l.2-.25c.11-.19.17-.41.17-.63,0-.21-.01-.43-.01-.64,0-.17-.03-.33-.11-.48-.05-.15-.14-.29-.26-.4-.11-.12-.25-.21-.4-.26-.15-.08-.31-.11-.48-.11l-.33.04c-.21.06-.4.17-.55.32l-.2.25c-.11.19-.17.41-.17.63h0Z" fill="#22251c" stroke-width="0"/>
      <path d="M10.96,32.56c.58.61,1.42.97,2.26.94s1.58-.36,2.29-.76c.27-.16.49-.44.57-.75s.05-.7-.13-.96c-.37-.57-1.11-.8-1.71-.45-.22.13-.45.25-.69.35l.3-.13c-.25.1-.5.18-.76.22l.33-.04c-.17.02-.33.02-.5,0l.33.04c-.16-.02-.32-.06-.47-.12l.3.13c-.13-.06-.26-.13-.38-.22l.25.2c-.08-.07-.16-.14-.23-.22-.45-.48-1.32-.49-1.77,0s-.48,1.26,0,1.77h0Z" fill="#22251c" stroke-width="0"/>
      <polygon points="17.09 9.18 9.44 18.92 12.75 21.02 18.4 18 22.16 17.71 18.56 8.98 17.09 9.18" fill="#f9b341" stroke="#f9b341" stroke-miterlimit="10" stroke-width=".5"/>
      <path d="M14.06,21.18c-.95-.95-1.75-1.92-2.96-2.5-1.38-.65-2.56-1.03-4.11-1.16-1.24-.1-2.8.35-3.87.98-.57.33-1.22.62-1.74,1.02-.73.56-.69,1.46-.82,2.3-.21,1.34-.65,2.81-.54,4.16s.45,2.67.87,3.98c.19.6.32,1.08.75,1.55.28.31.58.61.87.91.14.14.87,1.03.53.51.4.61.69,1.29,1.08,1.91.36.58.92.93,1.46,1.34.35.26.72.52,1.06.8-.49-.4.45.46.58.58.52.49,1.01.96,1.61,1.34,1.31.83,2.62,1.64,3.9,2.5.48.32,1.11.16,1.51-.2.58-.51,1.2-1,1.75-1.54s-.62.09.04-.02c.46-.08.93-.28,1.37-.42,1.3-.4,2.29-1.21,3.39-1.99.64-.45,1.36-.86,1.94-1.39s.99-1.43,1.41-2.13c.08-.13.15-.28.25-.4-.16.21-.2.21,0,.07.42-.28.8-.67,1.18-.99.6-.5.88-.91,1.18-1.64s.71-1.44.79-2.2,0-1.62.01-2.42c.04-1.45.12-2.79,0-4.23-.07-.82-.11-1.42-.66-2.07-.5-.59-1.01-1.39-1.64-1.85s-1.68-.53-2.42-.7-1.36-.14-2.11-.1c-1.43.06-3.29-.17-4.52.58-.7.43-1.5.86-2.1,1.42-.65.6-1.21,1.32-1.8,1.97-1.08,1.19.68,2.96,1.77,1.77l1.41-1.55c.13-.14.68-.68.23-.33.26-.2.56-.36.83-.54.32-.2.8-.41,1.06-.68.28-.31-.74-.02-.13.03.7.05,1.46-.09,2.16-.13.59-.03,1.18-.05,1.77-.08.17,0,.33-.02.5-.02.32-.01-.41-.08-.11-.02.38.07.76.18,1.13.27.31.07.75.27,1.07.26.48-.02-.46-.14-.36-.26,0,.01.22.25.25.29.41.6.98,1.14,1.46,1.69l-.37-.88c.15,1.74.14,3.32.09,5.06-.01.39,0,.77,0,1.16v.8c0,.11-.06.73.01.43.08-.33-.09.14-.12.21-.13.27-.22.55-.33.82-.1.24-.2.49-.3.73-.32.85.07-.1.11-.07-.07-.06-1.89,1.56-2.07,1.78-.19.23-1.47,2.27-1.43,2.31-.08-.07.75-.57.18-.24-.24.13-.46.33-.68.48-.37.27-.75.53-1.12.8-.68.48-1.34,1-2.05,1.44.34-.21.15-.07-.11,0-.32.09-.64.19-.96.29-.45.14-1,.23-1.41.46-.84.48-1.56,1.35-2.29,1.99l1.51-.2c-1.39-.93-2.81-1.78-4.21-2.69.02.01.26.24,0-.02-.17-.17-.36-.33-.54-.5-.35-.33-.69-.67-1.06-.98-.63-.54-1.41-1.3-2.15-1.63-.15-.07.35.59.26.21-.05-.2-.24-.42-.34-.6-.25-.44-.47-.91-.75-1.33-.44-.66-1.1-1.33-1.7-1.85s.31.17.04.24c0,0-.12-.36-.12-.39-.15-.58-.39-1.13-.55-1.71-.21-.77-.24-1.57-.4-2.35-.15-.69-.07.28-.03.21.08-.2.08-.52.11-.74.08-.51.16-1.03.24-1.54.14-.88.28-1.77.42-2.65l-.57.75,1.34-.79c.27-.16.54-.34.82-.48.06-.03-.38.08.13,0s1.42-.17,1.84-.43c.28-.18-.76-.15-.23,0,.34.09.73.11,1.07.16.29.04.6.12.9.13.35.02-.31-.18.11,0,.58.26,1.15.61,1.75.83.45.16-.16-.24.14.07.2.22.43.43.64.64l1.14,1.14c1.14,1.14,2.91-.63,1.77-1.77Z" fill="#22251c" stroke-width="0"/>
      <path d="M11.13,4.32l1.65,1.12.23.16c.14.09.3.14.46.15.17.04.33.03.5-.02.29-.08.6-.3.75-.57.15-.29.23-.64.13-.96l-.13-.3c-.11-.19-.26-.34-.45-.45l-1.65-1.12-.23-.16c-.14-.09-.3-.14-.46-.15-.17-.04-.33-.03-.5.02-.29.08-.6.3-.75.57-.15.29-.23.64-.13.96l.13.3c.11.19.26.34.45.45h0Z" fill="#22251c" stroke-width="0"/>
      <path d="M18.39,1.25l-.21,1.7-.03.24c0,.17.03.33.11.48.05.15.14.29.26.4.22.22.57.38.88.37s.66-.12.88-.37l.2-.25c.11-.19.17-.41.17-.63l.21-1.7.03-.24c0-.17-.03-.33-.11-.48-.05-.15-.14-.29-.26-.4-.22-.22-.57-.38-.88-.37s-.66.12-.88.37l-.2.25c-.11.19-.17.41-.17.63h0Z" fill="#22251c" stroke-width="0"/>
      <path d="M23.63,8.88l1.48-.38.21-.05c.3-.08.59-.31.75-.57.09-.14.14-.3.15-.46.04-.17.03-.33-.02-.5-.1-.3-.29-.59-.57-.75s-.63-.21-.96-.13l-1.48.38-.21.05c-.3.08-.59.31-.75.57-.09.14-.14.3-.15.46-.04.17-.03.33.02.5.1.3.29.59.57.75s.63.21.96.13h0Z" fill="#22251c" stroke-width="0"/>
      <path d="M17.09,28.97c.57,0,1.26.59,1.26,1.3s-.69.85-1.26.85-1.43-.14-1.43-.85.86-1.3,1.43-1.3Z" fill="#f9b341" stroke-width="0"/>
      <path d="M7.63,28.97c.57,0,1.26.59,1.26,1.3s-.69.85-1.26.85-1.43-.14-1.43-.85.86-1.3,1.43-1.3Z" fill="#f9b341" stroke-width="0"/>
      <path d="M8.18,27.7c0,.3.01.6.01.9,0,.17.03.33.11.48.05.15.14.29.26.4.11.12.25.21.4.26.15.08.31.11.48.11l.33-.04c.21-.06.4-.17.55-.32l.2-.25c.11-.19.17-.41.17-.63,0-.3-.01-.6-.01-.9,0-.17-.03-.33-.11-.48-.05-.15-.14-.29-.26-.4-.11-.12-.25-.21-.4-.26-.15-.08-.31-.11-.48-.11l-.33.04c-.21.06-.4.17-.55.32l-.2.25c-.11.19-.17.41-.17.63h0Z" fill="#22251c" stroke-width="0"/>
      <path d="M9.85,18.92l1.82-2.18c.47-.56,1.09-.97,1.66-1.42.65-.51,1.22-.9,1.62-1.63l1.37-2.5-.45.45,2.31-1.76-1.84-.75c.38.91.76,1.83,1.14,2.74.33.8.91,1.44,1.43,2.14.44.59.89,1.14,1.22,1.8l1.35,2.7c.72,1.44,2.88.17,2.16-1.26l-1.31-2.6c-.33-.66-.75-1.19-1.19-1.78l-1.02-1.36s-.25-.35-.26-.35c-.01,0,.17.42.09.23-.03-.08-.07-.16-.1-.23l-1.11-2.67c-.27-.65-1.12-1.29-1.84-.75s-1.44,1.1-2.16,1.65-1.11,1.5-1.56,2.32c-.14.25-.63.85-.63,1.15,0-.2.31-.29,0-.08-.19.13-.37.29-.55.44-.63.5-1.36.97-1.92,1.55-.72.75-1.35,1.61-2.02,2.41-.43.52-.51,1.26,0,1.77.45.45,1.33.52,1.77,0h0Z" fill="#22251c" stroke-width="0"/>
    </g>
  </g>
</svg>