<?xml version="1.0" encoding="UTF-8"?>
<svg id="_레이어_2" data-name="레이어_2" xmlns="http://www.w3.org/2000/svg" viewBox="0 0 32.79 38.19">
  <g id="_x3C_하단바_x3E_">
    <g>
      <path d="M25.67,35.67c-2.54,0-5.08,0-7.61-.05-2.39-.05-4.77-.21-7.17-.12-1.08.04-2.15.1-3.23.12-.18,0-.86.11-.98,0-.15-.13-.06-.62-.06-.8,0-.63-.02-1.25-.04-1.88-.1-2.37-.11-4.74-.24-7.1-.14-2.49.23-4.9.27-7.38,0-.27-.05-.56.1-.68.17-.12.9,0,1.13-.02.57-.02,1.14-.05,1.7-.1,1.16-.1,2.32-.18,3.49-.18,2.54,0,5.08-.02,7.61,0,1.01,0,2.02.04,3.02.05.33,0,1.82-.19,2.01.01.21.22.01,1.55.01,1.9,0,2.63-.02,5.24.22,7.87.14,1.53.09,3.08.08,4.62,0,.62.25,3.69-.32,3.75-1.58.17-1.6,2.67,0,2.5,1.8-.19,2.78-1.41,2.81-3.18.02-1.33.01-2.66.02-3.99,0-3.12-.33-6.2-.32-9.31,0-1.37.13-2.79-.01-4.15-.19-1.89-1.57-2.5-3.28-2.51-2.83-.01-5.65-.07-8.48-.07s-5.49.17-8.25.28c-1.53.06-3.31-.06-3.9,1.72-.26.78-.13,1.67-.18,2.48-.04.6-.11,1.19-.17,1.78-.31,3.03.06,6.1.1,9.14.01,1.31.1,2.61.12,3.92.02,1.55.13,3.34,1.97,3.77,1.45.34,3.2.01,4.68-.04,1.73-.07,3.47-.05,5.21.04,3.22.16,6.47.14,9.7.14,1.61,0,1.61-2.5,0-2.5Z" fill="#22251c"/>
      <g>
        <path d="M15.6,1.58c-2.34,2.14-2.21,2.28-4.54,4.43s-2.56,1.91-4.89,4.05-2.25,2.23-4.59,4.38c-.72.66-.19,2.18.79,2.18,3.5,0,3.5-.26,7-.26s3.5.18,7.01.18,3.51-.03,7.01-.03,3.51-.2,7.01-.2c.98,0,1.54-1.22.81-1.89-2.34-2.14-2.43-2.04-4.77-4.18s-2.25-2.24-4.59-4.39-2.26-2.22-4.6-4.37c-.41-.38-1.25-.28-1.66.1Z" fill="#f9b341"/>
        <path d="M14.72.69c-2.01,1.86-3.82,3.94-5.96,5.66-2.03,1.63-3.99,3.25-5.85,5.09-.86.85-2.17,1.7-2.68,2.79s-.1,2.57.93,3.25,2.76.38,3.98.3,2.38-.17,3.57-.18c5.54-.06,11.07.29,16.62.12,1.11-.03,2.21-.12,3.31-.15,1.35-.04,2.92.2,3.77-1.11,1.55-2.4-1.91-4.35-3.45-5.67-2.42-2.08-4.65-4.36-6.97-6.54-.95-.89-1.86-1.81-2.8-2.7-1.22-1.15-2.56-2.19-4.21-1.05-1.31.91-.06,3.08,1.26,2.16.51-.35,1.84,1.29,2.28,1.72.81.8,1.64,1.58,2.47,2.35,1.61,1.49,3.13,3.06,4.75,4.54.75.69,1.53,1.36,2.31,2.01.34.28.68.57,1.01.86.22.19.43.38.65.57.16.14.31.28.47.43.15.23.23.2.24-.09-.42.21-1.42.01-1.93.03-.45.01-.89.04-1.34.06-1.1.06-2.19.11-3.29.11-4.3.03-8.58-.03-12.87-.13-2.24-.05-4.45.12-6.68.21-.24,0-1.73.16-1.78.07-.12-.22.51-.61.71-.79.7-.65,1.37-1.33,2.05-1.99,1.74-1.7,3.62-3.14,5.48-4.68,2.03-1.69,3.78-3.68,5.72-5.47,1.18-1.09-.59-2.86-1.77-1.77Z" fill="#22251c"/>
      </g>
    </g>
  </g>
</svg>