<?xml version="1.0" encoding="UTF-8"?>
<svg id="_레이어_2" data-name="레이어_2" xmlns="http://www.w3.org/2000/svg" viewBox="0 0 43.36 46.17">
  <g id="_x3C_하단바_x3E_">
    <g>
      <g>
        <path d="M35.63,44.45c-3.57,0-3.57.46-7.15.46s-3.58-.03-7.15-.03-3.58-.16-7.16-.16-3.58.04-7.16.04c-.81,0-1.46-.67-1.46-1.48q0-3.72,0-7.43c0-3.72.26-3.72.26-7.44s-.02-3.72-.02-7.44c0-.81.4-1.47,1.21-1.47,3.57,0,3.57.32,7.15.32s3.58-.26,7.15-.26,3.58-.14,7.16-.14,3.58-.2,7.16-.2c.81,0,1.76.95,1.76,1.76,0,3.72-.09,3.72-.09,7.43s-.04,3.72-.04,7.44.05,3.72.05,7.44c0,.81-.86,1.16-1.67,1.16Z" fill="#f5f9e1"/>
        <path d="M35.63,43.2c-1.65,0-3.24.24-4.88.38-1.82.16-3.66.09-5.48.07-3.28-.02-6.55-.12-9.82-.17-1.74-.02-3.49,0-5.23.02-.77,0-1.55.01-2.32.02s-1.02.14-1.1-.69c-.05-.49,0-1.01,0-1.51,0-3.23-.05-6.45.16-9.67.22-3.4-.04-6.8.08-10.2,0-.18-.07-.6.05-.75-.13.16-.49.02.38.07.44.02.89.01,1.34.03.76.03,1.51.11,2.26.17,1.83.15,3.67.15,5.5.06,3.21-.16,6.41-.24,9.62-.32,1.83-.05,3.66-.01,5.49-.11,1-.05,4.05-.66,4.46.39.17.45,0,1.32,0,1.81,0,.43-.01.86-.02,1.29-.02.79-.04,1.57-.05,2.36-.03,1.98-.01,3.96-.04,5.93s-.03,4.03,0,6.05c0,.76.02,1.53.03,2.29,0,.43,0,.86,0,1.29,0,.21.05.6,0,.82-.07.32.13.34-.42.37-1.6.09-1.61,2.59,0,2.5.9-.05,1.81-.27,2.41-1,.69-.85.51-2.02.51-3.05,0-1.78-.04-3.55-.04-5.33,0-3.91,0-7.83.09-11.74.04-1.77.53-4.13-.79-5.54-1.41-1.51-3.65-1.07-5.51-.97-3.95.21-7.92.21-11.88.27-1.79.03-3.58.22-5.37.25-1.94.03-3.84-.14-5.77-.25s-4.43-.24-4.71,2.33c-.19,1.79-.02,3.69-.01,5.49.01,4.1-.26,8.19-.26,12.29,0,.72,0,1.44,0,2.16,0,1.08-.17,2.32.08,3.37.58,2.42,3.28,2.07,5.18,2.05,4.35-.04,8.69.12,13.04.13,2.18,0,4.37.06,6.55.02s4.3-.44,6.47-.46c1.61,0,1.61-2.51,0-2.5Z" fill="#787d6f"/>
      </g>
      <g>
        <path d="M19.78,1.92c-2.24,2.07-2.34,1.95-4.58,4.02s-1.92,2.41-4.16,4.48-2.22,2.09-4.47,4.16-2.29,2.01-4.53,4.08c-1.64,1.51-.58,4.54,1.65,4.54,3.58,0,3.58-.29,7.16-.29s3.58.24,7.16.24,3.58-.25,7.17-.25,3.59-.39,7.17-.39,3.59.61,7.17.61c2.23,0,3.48-3.16,1.85-4.68-2.24-2.07-2.62-1.66-4.85-3.72s-2.25-2.06-4.49-4.13-2.15-2.16-4.39-4.23-1.88-2.46-4.12-4.53c-.94-.87-2.8-.77-3.74.09Z" fill="#787d6f"/>
        <path d="M18.89,1.04c-1.28,1.18-2.64,2.27-3.94,3.43-1.36,1.23-2.44,2.62-3.68,3.95-2.46,2.65-5.32,5.08-8.04,7.46-1.28,1.13-2.9,2.21-3.19,4.01-.25,1.55.46,3.26,1.85,4.06,1.47.85,3.5.49,5.13.36,1.93-.15,3.86-.2,5.8-.13,3.49.13,6.9.12,10.38,0,1.9-.07,3.79-.04,5.68-.24s3.92-.3,5.85-.05c3.06.39,7.29,1.49,8.45-2.45s-3.49-5.51-5.79-7.6c-3.01-2.73-5.92-5.57-8.88-8.36-1.44-1.36-2.48-3.05-3.95-4.38-1.65-1.49-3.96-1.43-5.67-.06-1.25,1.01.52,2.77,1.77,1.77,1.47-1.18,2.89.72,3.7,1.75,1.02,1.29,2.1,2.4,3.29,3.54,2.12,2.02,4.22,4.06,6.38,6.04,1.24,1.14,2.45,2.32,3.86,3.26.93.61,2.81,1.47,2.97,2.68.41,3.14-5.26,1.36-6.87,1.24-1.74-.13-3.49-.04-5.23.14s-3.36.17-5.05.21c-3.07.08-6.09.32-9.16.12s-6.02.01-9.06.13c-1.18.05-3.26.28-3-1.58.1-.72.85-1.18,1.34-1.63s1.02-.91,1.53-1.36c2.65-2.34,5.52-4.73,7.88-7.37,1.15-1.28,2.19-2.56,3.47-3.72s2.65-2.25,3.94-3.43c1.19-1.09-.58-2.85-1.77-1.77Z" fill="#787d6f"/>
      </g>
    </g>
  </g>
</svg>