<?xml version="1.0" encoding="UTF-8"?>
<svg id="_레이어_2" data-name="레이어_2" xmlns="http://www.w3.org/2000/svg" viewBox="0 0 20 18.47">
  <g id="GUIDE">
    <path d="M10,0c1.81,0,3.48.35,5.02,1.06,1.54.7,2.75,1.66,3.64,2.87.89,1.21,1.34,2.53,1.34,3.96s-.45,2.75-1.34,3.97c-.89,1.21-2.11,2.17-3.64,2.88-1.53.7-3.21,1.06-5.02,1.06-.57,0-1.16-.04-1.77-.12-2.65,1.84-4.06,2.77-4.23,2.79-.08.03-.16.03-.23-.01-.03-.02-.05-.05-.07-.09-.01-.04-.02-.07-.02-.1v-.04c.04-.29.38-1.5,1.02-3.63-1.44-.71-2.58-1.66-3.42-2.84-.84-1.18-1.27-2.46-1.27-3.85s.45-2.75,1.34-3.96c.89-1.21,2.11-2.17,3.64-2.87,1.54-.7,3.21-1.06,5.02-1.06Z" fill="#787d6f"/>
  </g>
</svg>