<?xml version="1.0" encoding="UTF-8"?>
<svg id="_레이어_2" data-name="레이어_2" xmlns="http://www.w3.org/2000/svg" viewBox="0 0 45.07 11.93">
  <g id="_x3C_하단바_x3E_">
    <g>
      <g>
        <path d="M9.2,5.87c0,2.32-1.94,4.21-3.96,4.21s-3.36-1.88-3.36-4.21,1.35-4,3.36-4,3.96,1.67,3.96,4Z" fill="#f5f9e1"/>
        <path d="M7.32,5.87c0,.12-.01.24-.02.36-.01.26-.08-.06.02-.14-.06.05-.11.48-.14.57,0,0-.08.2-.08.22-.05-.13.18-.38.03-.08-.09.19-.2.36-.32.54-.21.33.23-.25.05-.07-.06.07-.12.14-.19.21-.1.1-.36.26-.41.38.01-.03.38-.26.12-.09-.08.05-.15.1-.23.15s-.16.09-.24.13l-.1.05c-.18.08-.13.06.15-.06-.15,0-.36.12-.51.15-.06.01-.15.02-.21.04.38-.15.34-.02.13-.03-.15,0-.33-.03-.47-.01.4-.06.34.06.1,0-.1-.02-.19-.06-.28-.08-.28-.08.15.06.18.08-.05-.05-.15-.08-.22-.11-.07-.04-.14-.09-.21-.13-.24-.15.13.09.15.12-.07-.12-.25-.24-.35-.34-.25-.25.19.31.07.1-.06-.1-.14-.2-.2-.3-.08-.14-.14-.28-.22-.42-.12-.22.16.46.05.1-.02-.07-.05-.14-.07-.21-.06-.18-.1-.36-.14-.55-.01-.06-.01-.17-.04-.23.04.3.05.35.03.15,0-.06,0-.12-.01-.18,0-.18-.01-.36,0-.55,0-.07.05-.29.03-.35.01.03-.09.48-.02.16.04-.18.07-.36.12-.54.02-.07.04-.14.07-.2.02-.07.05-.13.07-.2l-.11.26c.1-.11.16-.31.24-.44.04-.06.24-.31.02-.05s0,0,.04-.04c.1-.11.25-.21.35-.33-.02.02-.39.26-.15.12.08-.05.16-.1.24-.15.06-.03.35-.16.03-.03s-.01.01.05,0c.16-.05.33-.06.48-.11-.03.01-.49.03-.19.04.09,0,.17,0,.26,0s.18,0,.26.01c.38.01-.44-.1-.08,0,.15.04.47.19.61.18-.03,0-.43-.21-.15-.07.09.05.19.09.28.15.08.04.15.1.23.14.38.22-.25-.24,0,0,.13.12.27.24.39.37l.07.08c.12.15.09.11-.09-.12.02.09.14.2.18.27.04.06.07.13.11.19.03.06.07.13.1.2l-.1-.24c0,.17.15.48.2.65.08.3-.03-.1-.01-.15-.04.11.03.35.03.48.01.98.85,1.92,1.88,1.88s1.89-.82,1.88-1.88c-.04-2.54-1.65-4.73-4.04-5.57S2.31.35.98,2.33-.23,6.99.73,9.04c1.03,2.19,3.42,3.29,5.75,2.77,2.69-.6,4.56-3.25,4.6-5.93.01-.98-.87-1.92-1.88-1.88s-1.86.82-1.88,1.88Z" fill="#22251c"/>
      </g>
      <g>
        <path d="M26.2,5.87c0,2.32-1.94,4.21-3.96,4.21s-3.36-1.88-3.36-4.21,1.35-4,3.36-4,3.96,1.67,3.96,4Z" fill="#f5f9e1"/>
        <path d="M24.32,5.87c0,.12-.01.24-.02.36-.01.26-.08-.06.02-.14-.06.05-.11.48-.14.57,0,0-.08.2-.08.22-.05-.13.18-.38.03-.08-.09.19-.2.36-.32.54-.21.33.23-.25.05-.07-.06.07-.12.14-.19.21-.1.1-.36.26-.41.38.01-.03.38-.26.12-.09-.08.05-.15.1-.23.15s-.16.09-.24.13l-.1.05c-.18.08-.13.06.15-.06-.15,0-.36.12-.51.15-.06.01-.15.02-.21.04.38-.15.34-.02.13-.03-.15,0-.33-.03-.47-.01.4-.06.34.06.1,0-.1-.02-.19-.06-.28-.08-.28-.08.15.06.18.08-.05-.05-.15-.08-.22-.11-.07-.04-.14-.09-.21-.13-.24-.15.13.09.15.12-.07-.12-.25-.24-.35-.34-.25-.25.19.31.07.1-.06-.1-.14-.2-.2-.3-.08-.14-.14-.28-.22-.42-.12-.22.16.46.05.1-.02-.07-.05-.14-.07-.21-.06-.18-.1-.36-.14-.55-.01-.06-.01-.17-.04-.23.04.3.05.35.03.15,0-.06,0-.12-.01-.18,0-.18-.01-.36,0-.55,0-.07.05-.29.03-.35.01.03-.09.48-.02.16.04-.18.07-.36.12-.54.02-.07.04-.14.07-.2.02-.07.05-.13.07-.2l-.11.26c.1-.11.16-.31.24-.44.04-.06.24-.31.02-.05s0,0,.04-.04c.1-.11.25-.21.35-.33-.02.02-.39.26-.15.12.08-.05.16-.1.24-.15.06-.03.35-.16.03-.03s-.01.01.05,0c.16-.05.33-.06.48-.11-.03.01-.49.03-.19.04.09,0,.17,0,.26,0s.18,0,.26.01c.38.01-.44-.1-.08,0,.15.04.47.19.61.18-.03,0-.43-.21-.15-.07.09.05.19.09.28.15.08.04.15.1.23.14.38.22-.25-.24,0,0,.13.12.27.24.39.37l.07.08c.12.15.09.11-.09-.12.02.09.14.2.18.27.04.06.07.13.11.19.03.06.07.13.1.2l-.1-.24c0,.17.15.48.2.65.08.3-.03-.1-.01-.15-.04.11.03.35.03.48.01.98.85,1.92,1.88,1.88s1.89-.82,1.88-1.88c-.04-2.54-1.65-4.73-4.04-5.57s-4.72.06-6.05,2.03-1.21,4.66-.25,6.71c1.03,2.19,3.42,3.29,5.75,2.77,2.69-.6,4.56-3.25,4.6-5.93.01-.98-.87-1.92-1.88-1.88s-1.86.82-1.88,1.88Z" fill="#22251c"/>
      </g>
      <g>
        <path d="M43.2,5.87c0,2.32-1.94,4.21-3.96,4.21s-3.36-1.88-3.36-4.21,1.35-4,3.36-4,3.96,1.67,3.96,4Z" fill="#f5f9e1"/>
        <path d="M41.32,5.87c0,.12-.01.24-.02.36-.01.26-.08-.06.02-.14-.06.05-.11.48-.14.57,0,0-.08.2-.08.22-.05-.13.18-.38.03-.08-.09.19-.2.36-.32.54-.21.33.23-.25.05-.07-.06.07-.12.14-.19.21-.1.1-.36.26-.41.38.01-.03.38-.26.12-.09-.08.05-.15.1-.23.15s-.16.09-.24.13l-.1.05c-.18.08-.13.06.15-.06-.15,0-.36.12-.51.15-.06.01-.15.02-.21.04.38-.15.34-.02.13-.03-.15,0-.33-.03-.47-.01.4-.06.34.06.1,0-.1-.02-.19-.06-.28-.08-.28-.08.15.06.18.08-.05-.05-.15-.08-.22-.11-.07-.04-.14-.09-.21-.13-.24-.15.13.09.15.12-.07-.12-.25-.24-.35-.34-.25-.25.19.31.07.1-.06-.1-.14-.2-.2-.3-.08-.14-.14-.28-.22-.42-.12-.22.16.46.05.1-.02-.07-.05-.14-.07-.21-.06-.18-.1-.36-.14-.55-.01-.06-.01-.17-.04-.23.04.3.05.35.03.15,0-.06,0-.12-.01-.18,0-.18-.01-.36,0-.55,0-.07.05-.29.03-.35.01.03-.09.48-.02.16.04-.18.07-.36.12-.54.02-.07.04-.14.07-.2.02-.07.05-.13.07-.2l-.11.26c.1-.11.16-.31.24-.44.04-.06.24-.31.02-.05s0,0,.04-.04c.1-.11.25-.21.35-.33-.02.02-.39.26-.15.12.08-.05.16-.1.24-.15.06-.03.35-.16.03-.03s-.01.01.05,0c.16-.05.33-.06.48-.11-.03.01-.49.03-.19.04.09,0,.17,0,.26,0s.18,0,.26.01c.38.01-.44-.1-.08,0,.15.04.47.19.61.18-.03,0-.43-.21-.15-.07.09.05.19.09.28.15.08.04.15.1.23.14.38.22-.25-.24,0,0,.13.12.27.24.39.37l.07.08c.12.15.09.11-.09-.12.02.09.14.2.18.27.04.06.07.13.11.19.03.06.07.13.1.2l-.1-.24c0,.17.15.48.2.65.08.3-.03-.1-.01-.15-.04.11.03.35.03.48.01.98.85,1.92,1.88,1.88s1.89-.82,1.88-1.88c-.04-2.54-1.65-4.73-4.04-5.57s-4.72.06-6.05,2.03-1.21,4.66-.25,6.71c1.03,2.19,3.42,3.29,5.75,2.77,2.69-.6,4.56-3.25,4.6-5.93.01-.98-.87-1.92-1.88-1.88s-1.86.82-1.88,1.88Z" fill="#22251c"/>
      </g>
    </g>
  </g>
</svg>