<?xml version="1.0" encoding="UTF-8"?>
<svg id="_레이어_2" data-name="레이어_2" xmlns="http://www.w3.org/2000/svg" viewBox="0 0 36.49 9.21">
  <g id="_x3C_하단바_x3E_">
    <g>
      <g>
        <path d="M6.69,4.63c0,1.91-1.14,3.34-2.79,3.34s-2.63-1.43-2.63-3.34.97-3.16,2.63-3.16,2.79,1.25,2.79,3.16Z" fill="#787d6f"/>
        <path d="M5.44,4.63c0,.12.04.37-.02.48l.02-.15c0,.06-.02.12-.03.18-.01.06-.02.12-.04.18-.03.14-.08.28-.12.42-.08.28.13-.24,0,.01-.04.07-.07.15-.11.22-.03.06-.07.11-.11.17-.12.21-.04-.04.03-.03-.02,0-.24.27-.26.29,0,0-.12.09-.12.1,0-.07.23-.16,0-.01-.04.03-.09.05-.13.08-.03.02-.32.17-.13.07.19-.1-.03,0-.07.02-.06.02-.13.04-.19.05-.05.01-.16.01-.2.04.14-.11.24-.01.05-.02-.07,0-.14,0-.21,0-.08,0-.25-.07-.08,0,.18.08-.01,0-.07-.02-.07-.02-.15-.04-.22-.06-.23-.07-.05-.1.02.02,0-.02-.12-.06-.13-.07-.06-.04-.12-.08-.19-.12-.13-.08.05-.04.08.06-.02-.06-.22-.21-.26-.26-.18-.18.11.19.03.05-.04-.08-.1-.15-.15-.23-.03-.05-.05-.09-.08-.14-.13-.25-.03,0,0,0-.04,0-.13-.37-.13-.4-.04-.14-.07-.29-.09-.43-.02-.13-.07-.1,0,.06-.04-.08-.02-.24-.02-.33,0-.14,0-.29,0-.43,0-.09.01-.19.02-.28.01-.25-.02.05-.01.06-.03-.11.06-.31.09-.42.02-.08.04-.16.07-.24l.03-.08c.05-.13.04-.1-.04.08.05-.03.14-.28.18-.34.03-.05.07-.1.1-.15.08-.14-.21.23-.04.06.07-.07.21-.17.26-.25-.1.16-.19.13-.08.07.08-.05.16-.1.25-.14.12-.07.07.04-.1.04.06,0,.15-.05.21-.07.07-.02.42-.08.21-.05-.23.03.04,0,.07,0,.07,0,.14,0,.21,0s.14,0,.21,0c.27,0-.25-.06-.01,0,.07.02.38.15.45.12-.1.04-.25-.13-.06-.02.08.04.15.08.23.13,0,0,.1.08.12.08-.15-.12-.18-.14-.08-.06.04.03.07.07.11.1.04.03.07.07.1.11.18.2-.02.05,0-.02-.01.07.2.32.24.4.13.26.01,0,0,0,.01,0,.08.23.08.24.04.14.13.37.11.51,0-.02-.02-.3-.01-.06,0,.13.01.25.02.38,0,.65.57,1.28,1.25,1.25s1.26-.55,1.25-1.25c-.02-1.83-.9-3.51-2.66-4.18C3.63-.17,1.73.44.75,1.88s-.92,3.57-.24,5.13c.73,1.67,2.49,2.47,4.25,2.12,2.08-.41,3.16-2.53,3.18-4.49,0-.65-.58-1.28-1.25-1.25s-1.24.55-1.25,1.25Z" fill="#787d6f"/>
      </g>
      <g>
        <path d="M20.55,4.63c0,1.91-1,3.32-2.66,3.32s-2.98-1.41-2.98-3.32,1.32-2.99,2.98-2.99,2.66,1.08,2.66,2.99Z" fill="#787d6f"/>
        <path d="M19.3,4.63c0,.17-.02.34-.02.5,0,.19.06-.31,0-.03-.02.08-.03.17-.05.25-.03.13-.07.27-.11.4,0-.01-.06.15-.06.15.08-.18.09-.2.03-.08-.02.05-.05.09-.07.14-.04.08-.2.25-.2.32,0-.13.18-.2.04-.05-.04.04-.08.09-.12.13-.03.03-.14.1-.16.15,0-.02.26-.17.08-.07-.11.07-.27.13-.37.21.19-.16.18-.07.03-.02-.05.01-.1.03-.14.04l-.07.02c-.13.02-.1.02.11,0-.05-.01-.14.01-.2.02-.13,0-.27-.02-.4-.01-.17,0,.31.07.06,0-.09-.02-.18-.04-.27-.07-.03,0-.16-.07-.18-.06.08-.04.25.12.02,0-.12-.06-.22-.13-.33-.2-.19-.12.07.04.07.06,0-.01-.16-.14-.17-.16-.05-.05-.09-.09-.14-.14-.03-.03-.05-.06-.08-.09-.08-.1-.07-.08.05.06,0,0-.2-.32-.21-.34s-.12-.2-.11-.22c0,0,.11.3.03.07-.04-.14-.09-.27-.12-.41-.01-.05-.07-.21-.05-.26.02.18.03.21.01.06v-.09c-.02-.17-.02-.34,0-.51,0-.06,0-.17.02-.22l-.02.16c0-.06.02-.11.03-.17.03-.13.07-.26.11-.39.07-.21-.02.08-.04.08.03,0,.12-.23.14-.27.03-.04.06-.08.08-.13.14-.22-.2.21-.01.02.09-.09.17-.17.26-.26.19-.18-.24.15-.02.02.04-.03.08-.05.12-.08.06-.04.13-.07.19-.11.03-.02.07-.03.1-.05.09-.04.04-.02-.13.05.1,0,.26-.09.36-.11.07-.02.15-.03.23-.05.26-.06-.23,0-.06,0,.13,0,.27-.02.4-.02.07,0,.13,0,.2,0,.05,0,.1,0,.15.01-.19-.03-.24-.03-.15-.02.14.04.28.07.42.11s.12.12-.07-.04c.06.05.15.07.21.11.05.03.09.06.14.09.19.12-.21-.22-.02,0,.04.04.08.08.12.12.03.03.06.07.09.1-.12-.16-.15-.2-.09-.12.06.12.14.26.21.36.09.13-.1-.3-.03-.06.03.09.06.17.08.25.02.06.03.13.05.19.01.06.03.36.03.16,0-.21,0,.06,0,.09,0,.12.01.24.01.37,0,.65.57,1.28,1.25,1.25s1.26-.55,1.25-1.25c0-.86-.17-1.74-.61-2.49s-1.14-1.27-1.96-1.55c-1.51-.52-3.48-.07-4.53,1.16-1.24,1.45-1.34,3.62-.43,5.27s2.72,2.45,4.51,2.08c2.06-.43,3.02-2.55,3.03-4.47,0-.65-.58-1.28-1.25-1.25s-1.24.55-1.25,1.25Z" fill="#787d6f"/>
      </g>
      <g>
        <path d="M35.24,4.63c0,1.91-1.69,3.26-3.35,3.26s-3.22-1.34-3.22-3.26,1.56-3.39,3.22-3.39,3.35,1.47,3.35,3.39Z" fill="#787d6f"/>
        <path d="M33.99,4.63c0,.07.02.24-.01.29,0-.02.06-.3,0-.05-.03.15-.08.3-.12.45-.08.28.09-.16,0,0-.04.07-.07.13-.1.2-.03.05-.06.1-.09.15-.03.05-.07.1-.1.15.1-.12.12-.15.06-.08-.09.1-.17.2-.27.29-.05.04-.14.16-.2.18.15-.04.15-.1.04-.04-.12.08-.24.16-.37.23-.06.03-.14.06-.2.1-.09.04-.05.02.1-.04-.05.02-.11.04-.16.06-.14.05-.28.07-.42.11-.19.05.07,0,.08,0-.02.02-.18.01-.21.02-.13,0-.26,0-.39,0-.29,0,.28.07,0,0-.08-.02-.17-.04-.25-.06-.07-.02-.13-.04-.2-.06-.21-.06-.06.04.02.02-.07.02-.33-.17-.37-.2s-.09-.06-.14-.09c-.23-.14.12.14.02.01-.1-.12-.23-.21-.34-.33l-.06-.07c-.09-.1-.07-.09.04.05-.02,0-.09-.14-.1-.14-.06-.09-.2-.28-.21-.39.02.19.06.16.03.05-.03-.09-.06-.17-.08-.26-.02-.06-.03-.12-.04-.18-.07-.24.01.24-.01-.09-.01-.15-.01-.29,0-.44v-.1c.02-.14.02-.13,0,.05,0-.04.03-.16.04-.19,0-.02.13-.44.13-.44.02,0-.11.24,0,0,.05-.09.1-.19.15-.28.03-.05.07-.1.1-.15.15-.25-.13.14,0,0,.1-.11.19-.22.3-.32.04-.04.12-.13.16-.15-.12.02-.17.12-.05.04.15-.1.29-.18.45-.26.21-.12-.06.02-.06.02.03-.04.19-.07.24-.08.06-.02.38-.13.42-.09.01.01-.33.02-.08.02.07,0,.14,0,.21,0,.03,0,.21,0,.21.01-.18-.03-.21-.03-.12-.02.04,0,.09.01.13.02.1.02.43.06.5.15-.07-.08-.19-.09-.06-.02.09.05.18.09.27.15.06.04.13.08.19.12.04.02.07.05.11.08.07.05.05.03-.08-.06.13.04.3.28.39.38.03.03.09.09.12.14-.14-.28,0,.02.04.08s.08.13.12.2c.02.05.19.32.03.04.08.16.13.36.16.54.01.05.03.13.03.19,0-.35,0,.08,0,.15,0,.65.57,1.28,1.25,1.25s1.26-.55,1.25-1.25c-.03-1.99-1.33-3.69-3.17-4.38-1.68-.63-3.66-.03-4.78,1.35-1.24,1.51-1.52,3.71-.45,5.41s2.88,2.38,4.73,2.03c2.09-.4,3.64-2.3,3.67-4.4,0-.65-.58-1.28-1.25-1.25s-1.24.55-1.25,1.25Z" fill="#787d6f"/>
      </g>
    </g>
  </g>
</svg>