<?xml version="1.0" encoding="UTF-8"?>
<svg id="_레이어_2" data-name="레이어_2" xmlns="http://www.w3.org/2000/svg" viewBox="0 0 39.82 35.04">
  <g id="_x3C_하단바_x3E_">
    <path d="M39.55,32.19c-1.84-2.67-3.72-5.35-5.88-7.76-.93-1.04-1.78-2.61-1.54-4.03.27-1.61.39-3.1.29-4.74-.11-1.77.04-3.57-.17-5.33s-1.09-3.86-2.14-5.38c-1.14-1.66-2.7-2.44-4.53-3.15C23.65,1.06,21.83.09,19.72,0c-.68-.03-1.25.6-1.25,1.25,0,.22,0,.43,0,.65l1.25-1.25c-2.69.02-5.28.47-7.43,2.2-1.92,1.54-3.32,3.84-4.19,6.12s-.71,4.5-.75,6.79c-.02,1.16.06,2.33-.15,3.48-.2,1.04-.37,2.03-.39,3.09,0,.57.4,1.03.92,1.21.25.09.5.17.75.25l-.75-1.84c-1.28,1.86-2.56,3.71-3.87,5.55-1.14,1.61-3.23,3.16-3.82,5.06-.17.56.12,1.1.57,1.41.56.38,1.27.28,1.92.3.68.02,1.35.07,2.02.14,1.3.15,2.58.27,3.89.27l-1.25-1.25v.34c0,.67.57,1.26,1.25,1.25,1.93-.01,3.83-.36,5.76-.38s3.99-.27,5.99-.24,3.8.65,5.76.61,3.64-.9,5.55-.94l-1.25-1.25v.08c0,.68.57,1.24,1.25,1.25,1.67.02,3.21.44,4.85.63.84.1,2.01.34,2.75-.16.7-.47.85-1.4.56-2.15-.58-1.48-3-.84-2.41.66l.02.07.57-.75c-.12.06-1.15-.14-1.46-.18-.47-.06-.94-.18-1.4-.27-1.15-.24-2.3-.35-3.48-.36l1.25,1.25v-.08c0-.67-.57-1.26-1.25-1.25-1.86.03-3.51.86-5.34.93-2.03.08-3.95-.57-5.97-.6s-3.84.22-5.77.24-3.98.36-5.99.38l1.25,1.25v-.34c0-.68-.57-1.25-1.25-1.25-1.18,0-2.34-.09-3.52-.23-.44-.05-.89-.11-1.33-.14-.35-.03-.7-.04-1.06-.05h-.42c-.54-.05-.61-.03-.24.04l.57,1.41c.25-.8,1.3-1.68,1.86-2.31.71-.81,1.36-1.66,1.98-2.54,1.2-1.72,2.41-3.43,3.6-5.16.48-.71-.04-1.59-.75-1.84-.25-.09-.5-.17-.75-.25l.92,1.21c.03-1.83.52-3.59.53-5.44s-.16-3.9.21-5.7c.43-2.11,1.66-4.28,3.16-5.81,1.78-1.81,4.07-2.21,6.51-2.23.68,0,1.25-.57,1.25-1.25,0-.22,0-.43,0-.65l-1.25,1.25c1.92.08,3.81,1.15,5.57,1.85,1.97.79,2.94,2.03,3.78,3.95s.73,3.75.78,5.82c.03,1.43.25,2.88.12,4.3s-.57,2.55-.17,3.98,1.12,2.71,2.11,3.8c2.02,2.24,3.77,4.77,5.49,7.26.91,1.32,3.07.07,2.16-1.26Z" fill="#22251c"/>
  </g>
</svg>