<?xml version="1.0" encoding="UTF-8"?>
<svg id="_레이어_2" data-name="레이어_2" xmlns="http://www.w3.org/2000/svg" viewBox="0 0 16.91 13.78">
  <g id="_레이어_3" data-name="레이어_3">
    <g>
      <path d="M2.24,8.63c-.63,1.23-1.26,2.46-1.9,3.69l-.27.52c-.12.23-.11.49.05.69.14.18.42.31.66.22,1.11-.42,2.22-.84,3.34-1.26l.48-.18c.37-.14.6-.55.37-.92-.55-.92-1.11-1.84-1.66-2.76-.17-.29-.56-.4-.86-.22s-.4.56-.22.86c.55.92,1.11,1.84,1.66,2.76l.37-.92c-1.11.42-2.22.84-3.34,1.26l-.48.18.71.92c.63-1.23,1.26-2.46,1.9-3.69l.27-.52c.15-.3.08-.68-.22-.86-.28-.16-.7-.08-.86.22Z" fill="#787d6f"/>
      <path d="M5.23,12.41l2.28-2.04c.11-.1.22-.21.34-.3-.22.18.06-.02.16-.09l1.5-.94c.39-.24.78-.49,1.17-.73-.24.15,0,0,.11-.05.26-.11.52-.22.77-.33.83-.35,1.84-.61,2.57-1.14.89-.65,1.73-1.36,2.6-2.04.23-.18.2-.53.1-.76l-1.71-3.69c-.14-.3-.59-.39-.86-.22-1.59,1.03-3.18,2.05-4.77,3.09-.73.47-1.4.9-2.18,1.26-.84.39-1.85.7-2.59,1.27-.92.7-1.83,1.42-2.75,2.13-.63.49.26,1.37.88.88l2.48-1.93c.11-.09.22-.19.34-.26-.28.17.14-.03.23-.07l1.68-.78c1.54-.72,2.91-1.68,4.34-2.6.98-.64,1.97-1.27,2.95-1.91l-.86-.22,1.71,3.69.1-.76-2.4,1.88c-.43.34,0,0,.02.04-.01-.01-.41.17-.43.18l-1.74.73c-.77.32-1.43.64-2.13,1.08-.76.47-1.61.9-2.29,1.48-.85.74-1.68,1.5-2.52,2.26-.6.54.29,1.42.88.88h0Z" fill="#787d6f"/>
    </g>
  </g>
</svg>