<?xml version="1.0" encoding="UTF-8"?>
<svg id="_레이어_2" data-name="레이어_2" xmlns="http://www.w3.org/2000/svg" viewBox="0 0 35.08 35">
  <g id="GUIDE">
    <g>
      <path d="M31.88,15.52h-12.4V3.12c0-1.09-.89-1.98-1.98-1.98s-1.98.89-1.98,1.98v12.4H3.12c-1.09,0-1.98.89-1.98,1.98s.89,1.98,1.98,1.98h12.4v12.4c0,1.09.89,1.98,1.98,1.98s1.98-.89,1.98-1.98v-12.4h12.4c1.09,0,1.98-.89,1.98-1.98s-.89-1.98-1.98-1.98Z" fill="#fff"/>
      <path d="M31.88,14.27h-12.4l1.25,1.25c0-4.09.15-8.21,0-12.3s-6.11-4.4-6.45-.26c-.15,1.89-.01,3.85-.01,5.74v6.82l1.25-1.25c-4.09,0-8.21-.15-12.3,0s-4.4,6.11-.26,6.45c1.89.15,3.85.01,5.74.01h6.82l-1.25-1.25c0,4.09-.15,8.21,0,12.3s6.11,4.4,6.45.26c.15-1.89.01-3.85.01-5.74v-6.82l-1.25,1.25h9.93c1.25,0,2.88.23,4.01-.39,3-1.66,1.6-5.81-1.54-6.07-1.6-.13-1.6,2.37,0,2.5,1.02.08.85,1.31-.04,1.46-.3.05-.65,0-.95,0h-11.41c-.68,0-1.25.57-1.25,1.25v11.34c0,.44.13,1.23-.21,1.58-.85.85-1.25-.42-1.25-1.06v-11.85c0-.68-.57-1.25-1.25-1.25H4.18c-.44,0-1.23.13-1.58-.21-.85-.85.42-1.25,1.06-1.25h11.85c.68,0,1.25-.57,1.25-1.25V4.18c0-.44-.13-1.23.21-1.58.85-.85,1.25.42,1.25,1.06v11.85c0,.68.57,1.25,1.25,1.25h12.4c1.61,0,1.61-2.5,0-2.5Z" fill="#fff"/>
    </g>
  </g>
</svg>