<?xml version="1.0" encoding="UTF-8"?>
<svg id="_레이어_2" data-name="레이어 2" xmlns="http://www.w3.org/2000/svg" viewBox="0 0 155.95 203.18">
  <g id="GUIDE">
    <g>
      <g>
        <g>
          <polygon points="79.51 3.81 75.83 4.38 72.09 4.2 68.39 4.65 64.67 4.99 60.94 4.42 57.22 4.7 53.52 5.36 49.8 5.42 46.1 5.72 42.33 5.56 38.69 6.43 34.99 6.96 31.33 7.82 28.01 9.63 24.47 10.93 21.61 13.4 18.63 15.66 16.14 18.46 13.93 21.5 12.43 24.94 11.25 28.48 9.82 31.97 9.96 35.79 9.35 39.45 8.97 43.19 9.52 46.9 10.05 50.57 10.13 54.4 11.39 57.99 13.57 61.11 15.68 64.27 18.57 66.73 21.87 68.55 25.01 70.63 28.56 71.87 32.09 73.18 35.84 73.52 39.5 74.38 43.19 75.22 46.97 74.96 50.72 75.19 54.45 74.49 58.25 75 61.97 74.45 65.65 73.63 67.57 77.26 69.1 81.06 70.84 84.77 72.45 88.83 75.08 86.2 76.94 83.28 79.34 80.84 81.87 78.52 84.31 76.28 87.86 75.81 91.64 76.68 95.46 76.61 99.29 76.6 103.07 75.77 106.92 76.22 110.65 75.14 114.51 75.18 118.15 73.9 122.01 73.67 125.63 72.43 129.17 70.99 132.91 70.09 136.34 68.37 139.44 66.12 142.77 64.23 145.68 61.73 148.22 58.83 150.19 55.53 151.57 51.97 152.5 48.3 153.49 44.61 153.06 40.79 153.54 36.96 153.3 33.11 151.81 29.52 150.53 25.97 148.93 22.56 147.08 19.28 145.14 15.94 142.31 13.33 139.05 11.32 135.95 9.03 132.49 7.36 128.88 6.02 125.13 5.2 121.42 4.27 117.6 3.94 113.8 3.67 110.02 3.12 106.21 2.93 102.39 2.48 98.57 2.89 94.74 2.62 90.92 2.67 87.13 3.33 83.35 4.01 79.51 3.81" fill="#787d6f" stroke-width="0"/>
          <path d="M78.85,1.4l-1.96.3c-.43.06-.85.13-1.28.19-.8.12.05-.07.14-.02-.57-.27-1.76-.08-2.39-.11-.48-.02-.96-.07-1.44-.04-1.28.07-2.55.33-3.83.45-.79.08-1.59.15-2.38.22-.22.02-.76-.03-.96.09-.27.17.85.15.51.08-.18-.03-.37-.06-.55-.08-1.43-.22-2.95-.62-4.4-.51s-2.93.17-4.38.43l-2.45.44c-.15.03-.3.05-.45.08-.44.1.25-.22.47-.06-.12-.08-.65.01-.8.01-1.31.02-2.62.03-3.93.13s-2.61.21-3.95.16c-1.57-.06-2.86-.08-4.39.28-2.59.62-5.23.9-7.82,1.51-1.52.36-2.72.8-4.1,1.55-.13.07-1.74.97-1.75.95-.08-.13.88-.32.41-.18-.15.04-.29.11-.43.16l-1.29.47c-.72.26-1.59.47-2.25.86s-1.27,1.05-1.84,1.54l-1.04.9c-.25.21-1,.72,0,.04-.61.41-1.18.9-1.76,1.34-2.37,1.8-4.16,4.02-5.91,6.42-1.64,2.26-2.55,4.96-3.42,7.6-.4,1.19-.87,2.34-1.34,3.51-.27.66-.55,1.21-.57,1.93-.02.81.06,1.63.09,2.44.01.34-.05.79.04,1.12.14.52.18-.95.05-.19-.15.85-.28,1.71-.43,2.56-.24,1.45-.37,2.92-.52,4.38s.22,2.94.43,4.39c.19,1.29.37,2.58.56,3.87.03.18.02.43.09.6-.33-.88-.08-.57-.07,0,.02.93.02,1.87.06,2.8.07,1.46.71,2.84,1.2,4.21s1.47,2.55,2.32,3.78c.75,1.08,1.46,2.2,2.21,3.28,1.68,2.43,4.51,3.86,7,5.29,1.12.65,2.13,1.48,3.25,2.13,1.23.71,2.74,1.04,4.07,1.51,1.2.43,2.37.96,3.59,1.32,1.34.4,3.02.43,4.41.48.56.02-.96-.22-.2,0,.39.11.79.18,1.18.28.72.17,1.44.34,2.16.5,1.23.29,2.47.63,3.71.85,1.45.26,2.98-.17,4.44-.17s2.96.38,4.42.14c1.25-.2,2.48-.47,3.73-.71h-1.33c1.07.14,2.14.29,3.21.43,1.19.16,2.25.03,3.42-.14,2-.29,3.94-.71,5.91-1.15l-2.82-1.15c.34.64.68,1.28,1.01,1.92l.62,1.18c.07.12.12.27.2.38.24.35-.17-.37-.17-.44.04.68.65,1.6.9,2.22.29.72.57,1.45.89,2.17.29.66.61,1.31.92,1.96l.57,1.21c.18.38.33,1,.02-.02.42,1.36,1.06,2.69,1.59,4.02.67,1.7,2.74,2.54,4.18,1.1,1.06-1.06,2.29-2.06,3.13-3.3.52-.76,1.01-1.55,1.49-2.34.06-.11.18-.23.22-.34.09-.32-.57.51-.28.37.3-.15.65-.66.88-.9,2.06-2.1,4.26-4.05,6.42-6.04l-1.77.73,2.48-.32c.14-.02.94-.02,1.01-.13-.01.02-.88-.19-.45-.06.2.06.41.09.62.14,1.79.41,3.38.78,5.21.75,1.68-.03,3.36-.04,5.04-.05s3.4-.43,5.09-.83c.11-.03.24-.03.35-.08.26-.1-.8-.09-.47.09.29.15.89.1,1.22.14.82.1,1.69.29,2.51.29.87,0,1.83-.42,2.65-.66.46-.13.94-.25,1.4-.41.8-.27-.69-.08-.09,0,1.54.18,3.48.24,4.96-.28.89-.32,1.94-.54,2.77-.98.55-.29-.9.02-.17,0,.51-.02,1.01-.06,1.52-.09.88-.05,1.86,0,2.72-.22s1.67-.57,2.49-.85c1.48-.51,2.9-1.16,4.37-1.71,1.3-.48,2.71-.59,4.03-1.01,1.43-.46,3.03-1.32,4.27-2.15,1.34-.91,2.57-1.91,3.98-2.71,1.61-.91,2.94-1.84,4.34-3.05,2.48-2.13,4.38-4.64,5.99-7.49,1.48-2.61,2.09-5.64,2.85-8.51.46-1.72,1.06-3.3.86-5.08-.1-.87-.3-1.79-.3-2.67,0-.68.17-1.4.25-2.08.21-1.64.14-3.08.04-4.75-.11-1.74-.81-3.14-1.47-4.75-1.13-2.77-2.01-5.59-3.44-8.23-.75-1.37-1.54-2.72-2.32-4.07-.43-.75-.83-1.55-1.31-2.27s-1.19-1.25-1.82-1.83c-2.39-2.2-5.26-3.76-7.87-5.69-1.13-.84-2.56-1.37-3.84-1.95-1.36-.62-2.85-1.21-4.29-1.62s-2.84-.6-4.24-.95c-1.73-.43-3.38-.84-5.16-1-1.63-.14-3.26-.27-4.89-.38-.41-.03-.83-.08-1.24-.09-.43,0,.99.15.03.01s-2.01-.3-3.02-.44c-1.59-.23-3.18-.19-4.78-.32-1.35-.11-2.74-.5-4.1-.42-1.53.09-3,.42-4.53.31-1.64-.12-3.23-.2-4.87-.17-3.24.04-6.49.77-9.66,1.39-.84.16.63.08.09-.04-.38-.08-.83-.04-1.22-.06l-2.4-.12c-3.22-.16-3.21,4.84,0,5,1.64.08,3.3.31,4.93.03s3.34-.6,5.01-.89l1.54-.27c.17-.03.35-.05.52-.09.18-.05-.9.02-.41.07,1.03.11,2.15-.03,3.18-.04,1.44-.01,2.88.29,4.31.26,1.54-.03,3.04-.5,4.59-.32,1.78.21,3.52.38,5.31.47.45.02.91.08,1.36.07.52-.02-.64-.11-.41-.07.18.03.37.05.56.08,1.02.15,2.04.3,3.06.45,1.6.23,3.22.26,4.83.39,1.04.09,2.07.19,3.11.27.96.07-.48-.19-.06,0,.47.2,1.06.27,1.56.39,1.71.43,3.42.81,5.14,1.19.6.13,1.15.34,1.73.55l1.53.57c.22.08.44.17.67.25.58.2-.3-.05-.31-.14.04.28,2.25,1.09,2.55,1.23.57.28,1.03.53,1.53.9,1.41,1.04,2.8,2.03,4.3,2.95.39.24.78.51,1.19.73.65.36-.67-.65.05.05s1.49,1.49,2.3,2.12c.56.44-.34-.68-.04-.06.24.49.55.95.82,1.43.35.61.7,1.22,1.05,1.83.85,1.48,1.69,2.95,2.41,4.5l.68,1.46c.08.16.14.35.23.5.12.19-.3-.85-.16-.36.3,1,.71,1.98,1.07,2.96.22.6.47,1.19.72,1.78l.62,1.5c.06.15.13.46.24.58.29.33,0-.6-.02-.43-.11,1.59.32,3.16.12,4.76-.12.92-.35,1.89-.36,2.82,0,.79.18,1.62.26,2.4.04.38.01.91.14,1.27s.13-.49.09-.42c-.09.14-.1.39-.15.54-.27,1-.54,1.99-.8,2.99-.36,1.39-.61,2.84-1.12,4.18-.37.99-.8,1.96-1.15,2.96-.15.42.48-.86-.03-.06-.31.48-.59.99-.89,1.48-.24.4-.5.79-.72,1.2-.33.63.6-.64-.04.06-.7.77-1.35,1.59-2.06,2.36-.45.48-.97.88-1.46,1.31l-1.18,1.02c-.12.1-.25.2-.36.31-.24.24.73-.41.26-.22-1.55.6-3.08,1.73-4.42,2.71-1.53,1.11-3,1.92-4.7,2.78-.15.08-.32.14-.46.23-.36.22.7-.14.41-.18-.37-.05-.97.23-1.34.32-.78.19-1.6.32-2.36.57-1.54.5-2.99,1.25-4.53,1.78l-1.6.55c-.21.07-.44.13-.65.22-.69.28.06-.19.28.04-.08-.09-.87.05-.98.06l-1.85.11c-.77.05-1.5.09-2.23.35-.88.31-2.15.51-2.92,1.03-.34.23.22-.18.46-.03-.08-.05-.29,0-.38,0-.58-.03-1.16-.01-1.74-.02-.84-.01-1.69-.08-2.51.12-1,.24-1.99.58-2.98.87-.13.04-.36.06-.47.14-.3.22.66.06.47-.06-.28-.18-1.05-.12-1.38-.16-1.01-.12-2.06-.37-3.07-.19-.87.15-1.73.38-2.58.57-.36.08-.78.11-1.12.25-.3.12.88,0,.46-.07-.22-.03-.49,0-.72,0-.98,0-1.97,0-2.95,0-.85,0-1.7.03-2.55.05-.33,0-.9-.1-1.22.02-.28.11.83.23.46.06-.18-.09-.46-.11-.66-.15-.98-.22-1.95-.48-2.93-.67-.93-.18-1.83.04-2.76.16-1.2.16-2.42.17-3.37,1-.76.66-1.48,1.36-2.22,2.04-1.06.97-2.15,1.91-3.16,2.94-.64.65-1.32,1.27-1.92,1.95-.7.79-1.2,1.79-1.77,2.67-.11.18-.24.35-.34.54-.29.52.21-.3.24-.27,0,0-.67.67-.72.72-.63.63-1.27,1.27-1.9,1.9l4.18,1.1c-.53-1.35-1.05-2.7-1.6-4.04-.3-.73-.64-1.43-.97-2.14s-.58-1.53-1.01-2.15c.48.69.22.52,0,0l-.5-1.23c-.27-.67-.54-1.34-.82-2.01-.6-1.46-1.43-2.83-2.16-4.23-.53-1.01-1.77-1.38-2.82-1.15-2.47.55-4.9,1-7.41,1.37h1.33c-1.81-.25-3.77-.76-5.58-.43-1.04.19-2.19.28-3.19.61-.19.06.8.02.46-.08-.14-.04-.35-.02-.51-.03l-1.85-.11c-.72-.04-1.39-.07-2.11-.02l-1.66.12c-.27.02-.55.02-.82.06-.3.04-.62-.09-.13.07.7.24-.48-.14-.7-.19l-1.85-.42c-.65-.15-1.3-.3-1.95-.45-2.02-.47-3.94-.75-6.01-.94-.21-.02-.43-.04-.64-.06-.68-.05.35.04.34.05,0-.04-1.12-.41-1.18-.43-.79-.29-1.58-.59-2.38-.88-.96-.35-1.94-.68-2.9-1.02-.16-.06-.35-.15-.52-.18-.31-.06.7.45.41.15-.32-.34-.87-.58-1.26-.83-1.54-1.02-3.12-2.08-4.81-2.85-.67-.31.59.56,0,.05-.43-.38-.87-.74-1.31-1.11-.38-.32-.78-.8-1.22-1.03-.37-.2.19.15.23.35-.03-.15-.25-.37-.33-.49-1.05-1.57-2.11-3.13-3.19-4.69-.14-.2-.48-.92-.71-1.02-.01,0,.27.81.16.39-.06-.25-.17-.49-.26-.73l-.59-1.69c-.07-.21-.14-.43-.22-.64-.32-.75.2.25-.04.28.25-.03-.23-4.87-.32-5.5-.27-1.85-.54-3.69-.81-5.54-.03-.22-.06-.43-.1-.65-.07-.47,0,.49.07.44.16-.12.11-1.14.13-1.34l.17-1.72c.02-.18.05-.37.06-.55,0-.24-.16.92-.05.41.4-1.89.68-3.77.61-5.69l-.06-1.73c0-.11.04-.4-.02-.5.09.17-.26.85.02.33.5-.9.83-1.97,1.2-2.93.28-.71.5-1.44.74-2.17.15-.46.32-.91.45-1.37.15-.53-.03.08-.15.29.09-.15.14-.32.21-.48.41-.94.76-1.97,1.26-2.87.39-.7.95-1.34,1.42-1.99.25-.35.55-.69.77-1.06-.52.85-.15.22.21-.18l1.17-1.31c.16-.17.32-.34.47-.53.2-.24.48-.33.05-.14-.46.2-.19.14-.02.01.2-.15.39-.3.59-.45l1.49-1.13c.64-.49,1.27-.98,1.88-1.51.71-.62,1.43-1.23,2.14-1.85l-1.1.64c1.88-.69,3.72-1.32,5.47-2.28.53-.29,1.06-.56,1.58-.86.03-.02.38-.21.38-.21.06.09-.99.28-.21.16,1.09-.17,2.15-.55,3.24-.76,1.66-.32,3.34-.44,4.99-.84l1.79-.43c.16-.04.39-.05.54-.13-.02.01-.9,0-.28.08,1.09.14,2.28.15,3.39.14,1.61-.02,3.21-.28,4.82-.31,2.28-.04,4.36-.29,6.6-.72,1.01-.19-.66.02.08-.01.64-.03,1.28-.1,1.92-.14.34-.03,1.11.07,1.42-.11.25-.14-.92-.15-.41-.07.25.04.51.08.76.12,1.12.17,2.34.5,3.48.51,1.01.02,2.07-.19,3.08-.28,1.88-.17,3.71-.53,5.6-.44,1.16.05,2.27.15,3.43-.02s2.26-.35,3.39-.52c1.34-.2,2.07-1.88,1.75-3.08-.39-1.43-1.74-1.95-3.08-1.75Z" fill="#787d6f" stroke-width="0"/>
        </g>
        <g>
          <path d="M42.01,39.35c-.87.91-2.19,1.32-3.95,1.26-1.61.05-2.89-.34-3.85-1.18-.96-.84-1.36-1.96-1.21-3.36.07-1.56.47-2.75,1.22-3.58.75-.83,1.78-1.26,3.1-1.29,1.91,0,3.36.44,4.34,1.32.98.88,1.46,2.07,1.42,3.55.15,1.29-.21,2.38-1.08,3.29ZM43.29,42.81c.02.25.08.45.18.6.1.14.32.28.66.42,1.29.64,2.4,1.18,3.34,1.6.94.42,1.96.9,3.06,1.42.37.3.44.68.2,1.12-.24.41-.65.48-1.24.23-1.02-.36-2.08-.81-3.19-1.37-1.11-.56-2.1-1.02-2.96-1.4-.36-.12-.62-.17-.81-.15-.19.02-.43.08-.74.2-.88.58-1.84,1.15-2.88,1.71-1.04.57-2.04,1.1-3.01,1.61-.52.25-.95.18-1.27-.23-.25-.47-.15-.91.3-1.29,1.12-.61,2.23-1.22,3.33-1.84,1.1-.62,1.99-1.15,2.67-1.59.22-.12.37-.25.45-.38.08-.14.11-.3.11-.51v-.61c0-.27.24-.44.71-.51.61-.05.96.1,1.04.46l.05.51ZM35.57,38.17c.64.52,1.41.79,2.29.79,1.36-.02,2.28-.29,2.78-.83.5-.53.72-1.22.67-2.07-.07-1.35-.46-2.23-1.19-2.64-.73-.41-1.62-.62-2.67-.63-.56-.02-1.13.23-1.73.74-.59.51-.92,1.34-.99,2.49-.08.91.2,1.63.84,2.16ZM51.54,34.48c.68.07,1,.36.96.89,0,.59-.31.85-.94.79-.88.03-1.67.03-2.36,0v.86c0,2.3,0,3.98.03,5.03.09.71-.19,1.11-.84,1.19-.62.02-.97-.33-1.04-1.04-.05-1.15-.06-2.86-.04-5.13.03-2.27-.04-4.11-.19-5.54.07-.44.16-.69.28-.76.12-.07.3-.12.53-.15.51-.03.86.23,1.04.79.09.86.15,1.89.2,3.07h2.36Z" fill="#fff" stroke-width="0"/>
          <path d="M55.69,46.89c.26-.33.64-.5,1.13-.5.46,0,.85.14,1.18.41.33.27.49.63.49,1.09,0,.51-.12.9-.37,1.17-.25.27-.57.41-.98.41-.44,0-.86-.11-1.26-.33-.4-.22-.6-.58-.6-1.07,0-.46.13-.85.39-1.18ZM55.81,31.69c.07-.68.37-1.02.89-1.02.8,0,1.21.44,1.24,1.31.04.87.05,1.64.05,2.3,0,2-.06,3.92-.18,5.76-.05.98-.12,1.79-.2,2.42-.08.63-.28.93-.58.88-.47,0-.75-.27-.82-.83-.08-.55-.14-1.38-.19-2.48-.08-.8-.15-1.9-.19-3.3-.04-1.4-.06-2.33-.06-2.77-.03-.85-.02-1.61.05-2.29Z" fill="#fff" stroke-width="0"/>
          <path d="M78.51,41.75c.02.32.04.6.05.84.04.44.09,1.11.18,2.01.02.63-.21.98-.69,1.07-.56.07-.92-.23-1.09-.89-.07-.61-.12-1.26-.15-1.96-.02-.37-.03-.72-.05-1.04-2.61.05-4.99.08-7.16.08-.59,0-.9-.26-.91-.79.07-.59.39-.87.96-.84,2.44.02,5.02,0,7.76-.08,2.73-.07,5.39-.15,7.96-.25.71-.1,1.08.18,1.12.84,0,.59-.4.85-1.19.79-1.95.12-4.21.19-6.78.23ZM77.47,32.66l.05,1.09c.02.17.04.27.08.29.04.03.12.06.25.11,1,.3,2.09.59,3.26.85,1.18.26,2.21.55,3.08.88.42.17.57.56.43,1.17-.19.37-.48.52-.89.43-.95-.25-2.01-.52-3.2-.81-1.18-.29-2.35-.61-3.5-.96-.1-.02-.19-.03-.27-.04-.08,0-.15.01-.22.06-.76.34-1.6.73-2.51,1.18-.91.45-1.89.92-2.95,1.41-.44.08-.78-.08-1.02-.51-.24-.58-.06-.98.53-1.22.96-.47,1.79-.89,2.48-1.24s1.43-.69,2.22-1.02c.12-.05.2-.11.24-.18.04-.07.06-.18.06-.33l-.05-1.17c-1.59.02-3.28.03-5.08.03-.25,0-.45-.06-.58-.19-.13-.13-.2-.36-.2-.7,0-.25.09-.45.28-.6.19-.14.42-.22.69-.22h12.7c.24,0,.45.06.63.18.19.12.28.31.28.58.04.24-.02.44-.16.6-.14.16-.38.24-.7.24-1.79.03-3.77.06-5.94.08ZM70.18,44.41c.07-.37.19-.61.37-.71s.39-.15.65-.15c.61.05.91.36.89.94-.05.59-.08.95-.09,1.08,0,.13,0,.41.01.85-.02.36.07.61.25.75.19.14.47.21.86.19.88.03,1.67.03,2.38-.01.7-.04,1.82-.1,3.36-.17,2.12-.03,3.4-.05,3.85-.06.45,0,1.03,0,1.74.04.42-.02.78-.04,1.07-.06.29-.03.54-.03.76-.01.54,0,.81.3.81.89,0,.52-.26.82-.77.89-.52.07-1.11.1-1.77.1-.88.03-1.59.02-2.13-.04-.54-.06-1.53-.05-2.97.04-1.37.07-2.47.11-3.29.14-.82.03-1.87.05-3.14.06-.93,0-1.65-.17-2.17-.52-.52-.35-.79-.93-.83-1.74-.03-.66.02-1.49.15-2.49Z" fill="#fff" stroke-width="0"/>
          <path d="M99.02,39.33v-.74c-.02-2.18-.04-3.83-.08-4.95-.02-.52.2-.86.63-1.02.68-.03,1.03.18,1.07.63.09,1.17.11,2.16.08,2.97.07,3.37.12,6.26.15,8.68.12.12.19.3.2.56,0,.63-.23.95-.69.96-.34.07-1.17.17-2.5.29-1.33.13-2.45.2-3.37.22-.52.02-1.11.03-1.75.05-.64.02-1.17,0-1.57-.08-.54-.03-.96-.18-1.27-.44-.3-.26-.46-.79-.46-1.59-.03-2.3-.05-4.43-.05-6.4s.03-3.31.08-4.04c0-.37.06-.64.18-.81.12-.17.41-.25.86-.25.53.05.77.37.74.96-.03.81-.05,2.33-.05,4.54-.02.3-.03.6-.03.89,2.54-.05,5.15-.2,7.82-.46ZM91.2,41.44c0,1.17.02,2.22.05,3.15.02.19.06.35.13.5.07.14.24.22.51.24.42.03.85.04,1.28.01s.88-.04,1.33-.04c.88,0,1.83-.05,2.84-.15.61-.07,1.2-.14,1.78-.2-.03-1.34-.05-2.65-.05-3.94-2.88.24-5.5.38-7.87.43ZM104.42,42.82c-.06-1.26-.05-3.35.01-6.26.02-.95.07-1.97.15-3.07-.02-.34.04-.62.18-.85.14-.23.36-.34.66-.34.24-.02.46.05.66.19.2.14.31.44.33.9-.08,1.1-.13,2.13-.15,3.1-.07,2.66-.08,4.68-.04,6.08.04,1.4.07,2.65.09,3.75-.07.64-.4.95-.99.91-.62-.12-.91-.48-.86-1.09.04-.95.02-2.05-.04-3.31Z" fill="#fff" stroke-width="0"/>
          <path d="M117.25,38.86c2.34,0,4.76.04,7.26.14.25,0,.52.08.79.23.27.15.41.36.41.63-.03.56-.31.84-.84.84-1.78-.08-3.45-.15-5.03-.2.02.46.05.9.1,1.32,1.07.03,1.88.12,2.44.25,1.69.29,2.87.75,3.53,1.38s.98,1.37.96,2.2c0,.9-.33,1.69-1,2.37-.67.69-1.61,1.07-2.83,1.16-1.39.19-2.92.24-4.6.15-.71,0-1.54-.04-2.47-.13-.94-.08-1.85-.21-2.73-.38-.98-.19-1.7-.52-2.16-.99-.46-.47-.7-1.11-.74-1.9,0-1.17.31-2.04.94-2.62.63-.58,1.33-.91,2.11-.99h.18c.05-.02.11-.04.18-.08.86-.2,1.69-.34,2.46-.41.63-.03,1.27-.05,1.93-.05-.03-.47-.07-.92-.1-1.35h-.79c-2.3-.02-4.58-.02-6.83,0-.61.07-.95-.2-1.02-.81.02-.34.11-.55.27-.65.16-.09.4-.14.72-.14,2.23.02,4.52.02,6.86.01ZM118.42,33.09l.03.69c.02.19.05.3.1.34.05.04.14.09.28.14,1.24.34,2.32.67,3.25.99.93.32,1.75.62,2.46.89.63.25.86.64.71,1.17-.19.42-.52.58-1.02.48-1.05-.24-1.94-.53-2.67-.89-1.47-.44-2.61-.73-3.4-.86-.13-.02-.26-.03-.38-.03s-.22.03-.3.08c-.76.24-1.41.51-1.96.81-.37.17-.8.35-1.29.55-.49.19-1.02.39-1.6.6-.37.2-.74.11-1.12-.28-.25-.44-.13-.88.38-1.32.68-.36,1.39-.68,2.13-.96.75-.29,1.48-.55,2.21-.79.12-.05.2-.12.23-.2.04-.08.05-.21.05-.38l-.03-.94c-1.76.08-3.56.2-5.41.36-.24,0-.44-.06-.61-.19-.17-.13-.27-.37-.3-.72-.02-.25.08-.46.29-.61.21-.15.45-.23.72-.23,2.27-.25,4.46-.38,6.58-.37,2.12,0,4.03.01,5.74.01.25-.02.47.03.65.13s.28.3.29.58c.05.22.01.42-.11.6s-.35.28-.67.29c-1.71-.02-3.45,0-5.23.08ZM113.44,43.95c-.25.07-.51.25-.76.56-.34.39-.52.79-.53,1.19.02.49.32.88.91,1.18.59.3,1.37.48,2.34.55.88.1,1.52.15,1.9.15s.91.03,1.57.08c1.59.02,2.89-.06,3.88-.23.85-.08,1.44-.27,1.78-.57.34-.3.51-.7.51-1.21,0-.41-.26-.79-.79-1.14-.52-.36-1.22-.6-2.08-.74-.51-.1-1.02-.18-1.54-.23-.52-.05-1.21-.08-2.07-.08-.59.02-1.3.06-2.13.11-.83.06-1.54.17-2.13.32-.36.1-.64.12-.86.05Z" fill="#fff" stroke-width="0"/>
        </g>
      </g>
      <g>
        <g>
          <path d="M67.31,118.06c-1.08-1.61-1.99-2.95-3.21-4.36s-2.82-2.65-4.21-3.89-2.81-2.66-4.36-3.71-3.36-1.89-5.04-2.73-3.53-1.49-5.31-2.09-3.57-1.56-5.41-1.92-3.85-.5-5.72-.59-3.82.48-5.69.66-3.82.28-5.64.77-3.71,1.03-5.41,1.83-3.36,1.85-4.89,2.96-3.16,2.22-4.45,3.63-2.39,3-3.37,4.67c-.9,1.52-1.8,3.22-2.48,5.05-.62,1.67-.98,3.55-1.38,5.44-.38,1.75-.19,3.66-.35,5.57-.15,1.8-.45,3.63-.39,5.54.06,1.81.64,3.6.92,5.48s.42,3.62.89,5.46.45,3.71,1.1,5.49,1.54,3.36,2.36,5.07,1.94,3.12,2.91,4.76,1.81,3.19,2.92,4.74,1.83,3.24,3.06,4.7,2.78,2.45,4.11,3.81,2.63,2.55,4.05,3.82,2.96,2.16,4.46,3.34,2.65,2.58,4.21,3.66,3.3,1.65,4.91,2.65,2.85,2.39,4.51,3.31,3.37,1.48,5.07,2.33,3.3,1.62,5.03,2.4,3.28,1.68,5.04,2.39,3.36,1.55,5.14,2.2,3.75.4,5.56.99c1.57.51,3.02,1.59,4.64,1.69s3.27-.47,4.88-.79,3.01-1.05,4.49-1.8,2.96-1.63,4.7-2.57c1.47-.8,3.2-1.38,4.84-2.33,1.48-.85,2.91-1.96,4.5-2.93,1.48-.91,3.08-1.71,4.63-2.72s3.26-1.52,4.75-2.56,2.81-2.2,4.27-3.29,2.58-2.5,3.98-3.63,2.78-2.24,4.13-3.42,2.94-2.1,4.23-3.34,2.74-2.36,3.96-3.67,2.43-2.69,3.56-4.06,2.17-2.9,3.19-4.36,2.15-2.94,3.04-4.47,1.25-3.43,1.98-5.04,1.32-3.33,1.85-5.02,1.4-3.36,1.7-5.12.56-3.69.66-5.49.09-3.73,0-5.53-.58-3.67-.89-5.45-1.22-3.48-1.76-5.2-.71-3.67-1.49-5.29-1.56-3.4-2.59-4.89-2.57-2.67-3.83-3.98-2.35-2.93-3.83-3.99-3.39-1.46-5.06-2.24-3.25-1.65-5.06-2.1-3.55-.77-5.43-.9c-1.77-.12-3.58.32-5.47.5-1.76.17-3.66-.1-5.51.35-1.71.42-3.42,1.16-5.21,1.83-1.65.62-3.44,1.14-5.15,1.99-1.58.79-3.07,1.92-4.69,2.91-1.51.92-2.88,2.15-4.42,3.26-1.44,1.04-3.06,1.93-4.52,3.13-1.37,1.13-2.62,2.48-4.02,3.76-1.31,1.21-2.67,1.97-3.99,3.31Z" fill="#dee8c4" stroke-width="0"/>
          <path d="M57.94,151.58c.27.14.48.21.77.24s.53.02.82-.04c.42-.08.86-.34,1.15-.65.24-.26.36-.49.49-.81.02-.06.04-.11.05-.17.03-.16.06-.34.06-.5,0-.23-.03-.47-.11-.68-.06-.15-.12-.3-.19-.44-.06-.1-.13-.19-.2-.28-.18-.24-.38-.43-.64-.58-.33-.19-.63-.25-1-.29-.17,0-.33.03-.48.11-.15.05-.29.14-.4.26-.22.22-.38.57-.37.88s.12.66.37.88l.25.2c.19.11.41.17.63.17h.02c-.11-.01-.22-.03-.33-.04.08.01.16.03.24.07l-.3-.13c.08.03.14.08.21.12l-.25-.2c.07.06.14.12.19.19l-.2-.25c.06.08.11.16.15.26l-.13-.3c.03.08.06.17.07.26l-.04-.33c.01.08.01.16,0,.24l.04-.33c-.01.08-.03.16-.06.23l.13-.3c-.03.07-.07.14-.12.2l.2-.25c-.05.07-.11.13-.18.18l.25-.2c-.08.06-.16.1-.24.14l.3-.13c-.09.04-.19.07-.29.08l.33-.04c-.09.01-.17.01-.25,0l.33.04c-.09-.01-.17-.03-.25-.07l.3.13s-.04-.02-.06-.03c-.3-.15-.63-.22-.96-.13-.29.08-.6.3-.75.57-.15.29-.23.64-.13.96.1.3.28.6.57.75h0Z" fill="#787d6f" stroke-width="0"/>
          <path d="M80.51,146.6c-.08,0-.17.01-.25.02s-.17.01-.25.04c-.1.04-.22.09-.32.14-.01,0-.03.01-.04.02-.01,0-.02.02-.03.02-.1.07-.19.14-.28.22-.02.02-.04.04-.06.07-.07.09-.15.18-.21.28,0,.01-.02.03-.03.04,0,.01-.01.02-.02.04-.05.11-.1.22-.14.33-.01.03-.02.06-.03.09-.02.13-.05.27-.05.41,0,.01,0,.03,0,.04,0,.12.03.25.05.37,0,.02,0,.03.01.05.03.11.09.23.14.32.03.06.06.09.11.16l.1.13.25.2.3.13h.02c.09.04.19.06.28.08.19.04.39.06.59.08.31.03.64-.02.94-.08.16-.04.3-.11.43-.22.14-.09.24-.21.32-.35.09-.14.14-.3.15-.46.04-.17.03-.33-.02-.5l-.13-.3c-.11-.19-.26-.34-.45-.45l-.3-.13c-.22-.06-.44-.06-.66,0-.04,0-.08.02-.13.02l.33-.04c-.2.03-.4.03-.6,0l.33.04c-.15-.02-.3-.06-.44-.1l.75.57s-.01-.03-.02-.04l.13.3s-.02-.06-.02-.09l.04.33s0-.06,0-.1l-.04.33s.02-.08.03-.12l-.13.3s.04-.08.07-.12l-.2.25s.06-.06.09-.09l-.25.2s.06-.04.1-.06l-.3.13s.06-.02.09-.03l-.33.04s.06,0,.08,0c.17,0,.33-.03.48-.11.15-.05.29-.14.4-.26.12-.11.21-.25.26-.4.08-.15.11-.31.11-.48l-.04-.33c-.06-.21-.17-.4-.32-.55l-.25-.2c-.19-.11-.41-.17-.63-.17h0Z" fill="#787d6f" stroke-width="0"/>
          <path d="M70.89,150.15c-.51-.38-1.28-.29-1.76.08-.43.33-.64.79-.75,1.31-.19.86-.27,1.72-.09,2.59.34,1.6,2.06,3.23,3.75,2.32,1.36-.73,1.56-2.58,1.47-3.95-.05-.77-.19-1.54-.45-2.27-.28-.77-.63-1.54-1.37-1.97-.54-.32-1.24-.33-1.79-.02-.49.27-.8.75-.97,1.26-.29.88-.21,1.93.04,2.81.18.63.89,1.08,1.54.87s1.07-.87.87-1.54c-.03-.11-.06-.22-.08-.33-.02-.09-.03-.33-.02-.11-.01-.27-.02-.52,0-.79-.01.2,0,0,.02-.09,0-.04.03-.08.03-.13.02-.13-.04.08-.05.1.1-.18-.17.1,0-.01-.28.19-.46.26-.78.16-.15-.04-.06-.02,0,0l-.12-.09.06.06s.1.17.01,0c-.08-.15-.01,0,0,.02.04.08.08.15.12.23,0,.02.08.18.02.05s.03.08.04.11c.17.45.27.91.36,1.38.03.15,0-.04,0-.06,0,.05.01.11.02.16.01.11.02.22.02.33.01.24,0,.48,0,.72,0,.13-.02.26-.03.38-.01.17.01-.09.01-.09,0,0-.02.1-.02.12-.02.08-.04.16-.06.24-.01.04-.03.08-.04.12-.05.2.02-.08.04-.07,0,0-.1.19-.11.21-.09.18.16-.14.01-.01-.13.11.05-.05.09-.05-.02,0-.07.05-.09.06-.13.04.15-.06.13-.06-.16.06.06-.01.11,0,.02,0,.21.06.08.01s.05.03.06.04c-.04-.02-.09-.06-.13-.08-.15-.06.08.03.06.06,0,0-.18-.17-.2-.19-.03-.03-.1-.14-.02-.01.09.14-.01-.03-.03-.06-.03-.05-.06-.11-.09-.16-.09-.14.06.2.02.05-.03-.1-.07-.2-.1-.31-.01-.04-.02-.09-.03-.14-.05-.15,0,.22,0,.03,0-.13-.02-.26-.02-.39s.02-.26.02-.39c0-.15,0,.03,0,.05.01-.09.03-.19.05-.28.02-.13.05-.26.08-.39.01-.04.04-.1.04-.14.03-.1.01-.07-.07.1-.18.4-.57.51-1.16.31.53.39,1.42.1,1.71-.45.35-.65.11-1.29-.45-1.71h0Z" fill="#787d6f" stroke-width="0"/>
        </g>
        <path d="M112.33,126.47c.14,1.52.04,3.07.43,4.56.36,1.38,1.24,2.69,2.52,3.38s2.83.65,4.01-.26c.99-.76,1.51-1.99,1.78-3.18.37-1.64.48-3.36.69-5.02.08-.65-.63-1.28-1.25-1.25-.75.03-1.16.55-1.25,1.25s-.18,1.39-.26,2.08c-.04.32-.08.65-.12.97,0,.07-.02.15-.03.22,0,.02-.03.27,0,.08s0,.04-.01.08c-.01.07-.02.13-.03.2-.07.46-.17.92-.31,1.37-.04.11-.08.22-.12.34-.04.14.02-.05.03-.07-.03.06-.05.12-.08.18-.1.21-.22.39-.35.58.12-.18.04-.05-.04.04-.03.03-.27.26-.15.15.12-.11-.14.09-.18.11-.04.02-.09.04-.13.07-.12.08.18-.04.03-.02-.1.02-.38.08-.13.06-.1.01-.21,0-.31.01-.23,0-.03,0,.02.01-.05,0-.1-.02-.15-.03s-.1-.03-.15-.04c-.03,0-.3-.12-.15-.05.12.06-.14-.08-.18-.1-.11-.06-.22-.13-.32-.21.17.13-.03-.04-.08-.09-.11-.1-.21-.21-.31-.32,0-.01-.12-.16-.04-.05.09.12-.05-.07-.07-.1-.06-.09-.12-.19-.17-.29-.04-.07-.17-.37-.09-.15-.06-.16-.12-.33-.16-.49-.08-.27-.17-.72-.19-.9s-.06-.64-.07-.93c-.04-.73-.05-1.47-.12-2.2-.06-.65-.53-1.28-1.25-1.25-.63.03-1.31.55-1.25,1.25h0Z" fill="#787d6f" stroke-width="0"/>
      </g>
    </g>
  </g>
</svg>