<?xml version="1.0" encoding="UTF-8"?>
<svg id="_레이어_2" data-name="레이어_2" xmlns="http://www.w3.org/2000/svg" viewBox="0 0 38.63 38.43">
  <g id="_x3C_하단바_x3E_">
    <g>
      <path d="M24.21,18.48c-.38.74-.77,1.47-1.15,2.21-.06.11-.21.3-.23.43-.03.19.31-.36.09-.1-.29.35-.58.71-.87,1.06-.26.31-.6.63-.8.99-.14.24.37-.15.1-.07-.17.05-.33.15-.49.22l-2.26,1.04h1.26c-.9-.51-1.84-.97-2.71-1.52s-1.61-1.17-2.4-1.75l.62,1.08-.13-1.36-.1-1.02c0-.1.02-.49-.06-.56.01.01-.1.45-.03.24.03-.09.05-.19.07-.29l.23-.95.34-1.43-.32.55.95-1.09.65-.75c.07-.08.17-.17.23-.27.13-.2,0,.18-.17.11.08.03.45-.19.52-.22l.94-.4,1.36-.58-.96.13,3.02.89-.75-.57c.57.82,1.24,1.62,1.74,2.48s.87,1.84,1.3,2.75c.29.61,1.16.77,1.71.45.63-.37.74-1.1.45-1.71-.49-1.04-.89-2.18-1.56-3.12-.45-.65-.9-1.29-1.36-1.94-.25-.35-.47-.61-.89-.76-.28-.1-.58-.17-.86-.26-.69-.21-1.39-.46-2.09-.62s-1.55.35-2.2.62c-.59.25-1.42.44-1.9.89s-.89,1.03-1.33,1.53-.82.91-.97,1.56c-.18.75-.38,1.5-.54,2.25-.12.58,0,1.16.05,1.75.07.71,0,2,.53,2.54.48.48,1.15.85,1.7,1.24.39.29.78.59,1.2.83l2.16,1.21c.3.17.59.34.94.34.38,0,.77-.24,1.12-.39.76-.35,1.59-.64,2.32-1.06.63-.36,1.09-1.19,1.54-1.75.4-.49.76-.95,1.06-1.52.37-.71.73-1.41,1.1-2.12.74-1.43-1.41-2.69-2.16-1.26Z" fill="#22251c"/>
      <path d="M13.37,1.31l-.02,3.2.37-.88-2.24,2.34.88-.37-1.66.17c-.32.03-.66.05-.98.1-.28.04-.62,0-.16.08-1.1-.18-2.19-.55-3.27-.82-.57-.14-1.09.11-1.41.57-.49.71-1,1.41-1.48,2.14-.34.51.09-.08-.15.22-.31.38-.61.75-.92,1.13-.96,1.18-1.53,2.4-2.18,3.78-.29.61-.18,1.35.45,1.71.53.31,1.05.66,1.6.94.65.33.04-.05.01-.12.1.27.38.55.55.79.2.29.39.61.61.87.3.36-.03-.31.11.17.1.36.24.71.35,1.06.03.09.1.45.18.53.23.23.09-.51.02-.47-.26.13-.57,1.58-.67,1.88-.17.49.07-.04-.08.16-.19.26-.37.53-.55.79-.2.29-.41.57-.61.86-.32.46.15-.05-.15.13-.53.33-1.01.78-1.5,1.16-.46.36-.41,1.05-.2,1.51.64,1.39,1.26,2.71,2.05,4.01s1.84,2.38,2.95,3.52c.3.31.8.45,1.22.32l1.54-.47c.35-.11.71-.21,1.06-.33.27-.09.69-.08.17-.1,1.09.04,2.22.29,3.3.44l-1.08-.62.85,1.39.53.87c.19.31.24.68.23.2-.02-.67-.04.01-.03.19.03.37.07.74.11,1.11l.16,1.61c.06.6.53,1.34,1.25,1.25l2.54-.33c.17-.02.33-.04.5-.06-.4.05-.31-.04-.11,0,.52.09,1.03.2,1.55.3,1.61.31,3.03.19,4.67.07.66-.05,1.27-.53,1.25-1.25,0-.33.05-3.21-.07-3.24.13.03-.41.97.04.22.17-.28.31-.57.46-.85l.78-1.45-.75.57c.63-.23,1.34-.39,1.93-.69.06-.03.31-.07.34-.12.05-.1-.7-.21-.48.01.2.19.81.28,1.07.37.33.12.66.24,1,.35.27.08.04,0-.09-.05.12.05.23.11.35.16.58.28,1.17.54,1.75.82s1.37.19,1.71-.45c.38-.7.81-1.4,1.14-2.12.28-.62-.22.14.23-.37.31-.36.62-.73.93-1.09.94-1.1,1.63-2.3,2.37-3.55.35-.58.13-1.37-.45-1.71l-2.21-1.3.57.75c-.48-1.35-.9-2.63-1.22-4.02-.02-.09-.04-.41-.11-.47s-.2.76.02.45c.17-.24.24-.79.32-1.06l.64-2.13-.57.75,3.38-1.85c.73-.4.78-1.39.25-1.96l-1.72-1.88c-.14-.15-.29-.29-.41-.45-.16-.21.2.34.09.1-.2-.44-.41-.87-.62-1.3-.69-1.45-1.57-2.61-2.53-3.91-.43-.58-1.04-.77-1.71-.45-.77.38-1.54.79-2.33,1.13.6-.26-.59.18-.75.24l-1.25.43.96.13-2.16-1.19.57.75c-.5-1.8-.88-3.51-1.16-5.36-.09-.59-.7-.85-1.21-.92-1.63-.21-3.1-.41-4.74-.31s-3.13.07-4.72.03-1.61,2.46,0,2.5,3.14.07,4.72-.03,3.11.09,4.74.31l-1.21-.92c.17,1.11.29,2.23.59,3.31.18.65.31,1.36.55,1.99.29.72.82.93,1.46,1.28.54.3,1.28.88,1.92.88s1.41-.41,2.01-.62c1.13-.38,2.17-.95,3.24-1.47l-1.71-.45c1.02,1.37,1.9,2.59,2.63,4.12s1.81,2.58,2.94,3.82l.25-1.96c-1.11.61-2.55,1.11-3.5,1.95-.57.51-.7,1.49-.91,2.19-.2.65-.57,1.42-.58,2.11-.02,1.31.66,2.85,1.09,4.07.25.7.41,1.27,1.07,1.69s1.34.79,2.01,1.18l-.45-1.71-1.19,2c-.09.15-.17.3-.26.44.09-.14.25-.31.04-.07-.29.34-.58.68-.87,1.02-.99,1.16-1.65,2.37-2.38,3.72l1.71-.45c-1.15-.54-2.28-1.07-3.48-1.48-.67-.23-1.32-.58-2.04-.42s-1.49.49-2.16.78c-1.13.47-1.84,2.2-2.3,3.28s-.14,2.72-.11,3.91l1.25-1.25-2.54.18c-.17.01-.33.03-.5.04.45-.03.29.04.11,0-.52-.09-1.03-.2-1.55-.3-.7-.14-1.33-.3-2.04-.24-.88.08-1.75.23-2.63.34l1.25,1.25c-.11-1.18.01-2.76-.48-3.85-.25-.55-.66-1.08-.98-1.59s-.64-1.32-1.17-1.63c-.5-.29-1.38-.27-1.94-.34-.64-.08-1.35-.28-1.99-.26-1.12.03-2.37.66-3.43.99l1.22.32-1.65-1.71c-.12-.13-.25-.25-.37-.38.12.14.22.31.06.05-.23-.4-.49-.79-.73-1.19-.75-1.22-1.32-2.49-1.93-3.8l-.2,1.51c.53-.41,1.17-.79,1.64-1.27.42-.43.74-1,1.08-1.49.7-.99,1.41-2.34,1.54-3.56s-.81-2.78-1.5-3.76c-.38-.54-.7-1.11-1.25-1.49-.59-.41-1.26-.74-1.88-1.1l.45,1.71c.35-.75.79-1.5,1.08-2.28.2-.55-.12.04.09-.24.29-.39.61-.75.92-1.13.95-1.16,1.79-2.39,2.64-3.62l-1.41.57c1.16.29,2.45.84,3.65.88.58.02,1.21-.13,1.78-.19.65-.07,1.5-.04,2.05-.41.47-.31.86-.86,1.25-1.27.41-.43,1.02-.89,1.32-1.42s.18-1.39.18-1.99v-1.84c.03-1.61-2.47-1.61-2.49,0Z" fill="#22251c"/>
    </g>
  </g>
</svg>