<?xml version="1.0" encoding="UTF-8"?>
<svg id="_레이어_2" data-name="레이어_2" xmlns="http://www.w3.org/2000/svg" viewBox="0 0 34.52 34.31">
  <g id="_x3C_하단바_x3E_">
    <g>
      <path d="M29.79,31.77c-7.06,0-14.12-.12-21.19-.07-.96,0-1.92,0-2.89,0-1.03,0-2.19.1-2.86-.87-.56-.82-.3-2.11-.3-3.04,0-.88,0-1.76-.02-2.63-.04-3.59-.19-7.21.05-10.79.1-1.45.31-2.88.43-4.32.08-.89.12-1.79.14-2.68.02-.98-.18-2.24.44-3.09s1.85-.54,2.74-.53,1.79.02,2.69.04c1.46.03,2.92.09,4.39.11,3.73.07,7.47.04,11.2.08.75,0,1.5.02,2.24.02,1.13,0,2.51-.22,3.59.12,2.17.68,1.53,3.45,1.4,5.2-.12,1.64-.41,3.26-.54,4.9-.19,2.37-.19,4.79-.02,7.16.11,1.59.37,3.16.5,4.75.16,1.97.88,5.48-2.01,5.64-1.6.09-1.61,2.59,0,2.5,2.1-.11,4.19-1.48,4.58-3.67.35-2-.02-4.32-.26-6.33-.48-4.01-.58-8.05-.07-12.06.46-3.65,1.68-9.32-3.08-10.54-1.14-.29-2.38-.16-3.55-.16-.97,0-1.95-.01-2.92-.02-1.84-.02-3.68-.05-5.52-.05-4.14-.01-8.28-.15-12.42-.18-2.25-.02-4.33-.01-5.38,2.32-.9,1.98-.46,4.49-.65,6.62C.15,14.23-.03,18.19,0,22.25c.02,1.73.04,3.45.05,5.18,0,2.3-.19,4.62,2,6.03,1.98,1.28,4.87.75,7.12.73,2-.01,4-.04,6-.04,4.87-.01,9.74.12,14.61.12,1.61,0,1.61-2.5,0-2.5Z" fill="#22251c"/>
      <path d="M4.13,11.31c2.01,0,3.98-.25,5.99-.38,2.31-.15,4.63-.07,6.95-.16s4.55-.2,6.8.03c2.07.2,4.05.61,6.14.62,1.61.01,1.61-2.49,0-2.5-2.04-.01-3.97-.39-5.99-.61-2.3-.24-4.64-.13-6.95-.04s-4.53,0-6.79.15c-2.05.13-4.07.38-6.14.39-1.61,0-1.61,2.51,0,2.5h0Z" fill="#22251c"/>
      <path d="M6.5,1.25c0,.47-.02.94-.08,1.41l.04-.33c-.06.44-.16.87-.24,1.3-.12.68-.18,1.37-.18,2.07,0,.65.58,1.28,1.25,1.25s1.25-.55,1.25-1.25c0-.47.02-.94.08-1.41l-.04.33c.06-.44.16-.87.24-1.3.12-.68.18-1.37.18-2.07,0-.65-.58-1.28-1.25-1.25s-1.25.55-1.25,1.25h0Z" fill="#22251c"/>
      <path d="M25.09,1.25c0,1.48.04,2.96.04,4.45,0,.65.57,1.28,1.25,1.25s1.25-.55,1.25-1.25c0-1.48-.04-2.96-.04-4.45,0-.65-.57-1.28-1.25-1.25s-1.25.55-1.25,1.25h0Z" fill="#22251c"/>
      <path d="M17.86,16.59c-1.12-1.61-2.81-2.77-4.81-2.88s-3.58,1.01-4.41,2.69c-1.85,3.75.49,8.15,3.85,10.15.87.52,1.83.91,2.78,1.26.44.16.88.31,1.33.44.67.21,1.23.21,1.91.04,1.56-.38,2.2-1.42,3.18-2.55,1.23-1.42,2.93-2.31,3.99-3.9s1.03-3.75.18-5.42-2.65-2.84-4.56-2.84c-2.13,0-3.97,1.31-5.41,2.75-1.14,1.14.63,2.91,1.77,1.77,1.05-1.05,2.56-2.28,4.09-1.98s2.48,1.98,2.19,3.51c-.34,1.77-2.51,2.78-3.67,3.97-.5.51-.95,1.2-1.36,1.67-.45.51-1,.63-1.76.74h.66c-1.66-.48-3.46-1.03-4.83-2.13-1.19-.95-2.3-2.55-2.53-4.08-.19-1.23.33-3,1.6-3.49,1.34-.52,2.89.46,3.63,1.53.91,1.31,3.08.06,2.16-1.26Z" fill="#22251c"/>
    </g>
  </g>
</svg>