<?xml version="1.0" encoding="UTF-8"?>
<svg id="_레이어_2" data-name="레이어_2" xmlns="http://www.w3.org/2000/svg" viewBox="0 0 39.87 39.79">
  <g id="_x3C_하단바_x3E_">
    <g>
      <g>
        <path d="M35.25,38.08c-5.06,0-5.06.47-10.13.47s-5.07-.58-10.14-.58-5.07.29-10.14.29c-1.68,0-3.08-1.42-3.08-3.1,0-4.85.23-4.85.23-9.7s.22-4.85.22-9.7-.88-4.85-.88-9.7c0-1.68,1.82-2.71,3.5-2.71,5.06,0,5.06-.45,10.13-.45s5.07-.22,10.14-.22,5.07-.1,10.14-.1c1.68,0,3.14,1.79,3.14,3.47,0,4.85.22,4.85.22,9.7s-.17,4.85-.17,9.7-.53,4.85-.53,9.7c0,1.68-.99,2.91-2.67,2.91Z" fill="#f5f9e1"/>
        <path d="M35.25,36.83c-4.47.01-8.88.71-13.36.37-1.86-.14-3.7-.41-5.57-.46-2.26-.06-4.52.03-6.78.15-.87.05-1.73.09-2.6.11-1.14.02-2.67.34-3.49-.65-.76-.91-.43-2.49-.41-3.58.02-.9.06-1.79.1-2.69.19-4.07.24-8.17.31-12.24.04-2.32,0-4.6-.4-6.89-.14-.82-.3-1.64-.37-2.48-.09-1.08-.48-2.69.55-3.4s2.39-.45,3.53-.49c1.01-.03,2.02-.1,3.03-.19,2.18-.19,4.34-.22,6.53-.24,4.29-.04,8.58-.18,12.86-.25,1.96-.03,4.13-.33,6.07-.07,2.63.36,1.89,4.22,1.96,6.08.18,4.5.06,8.98,0,13.48-.03,2.45-.06,4.85-.32,7.28-.12,1.12-.19,2.24-.21,3.37s.14,2.7-1.43,2.77-1.61,2.58,0,2.5c2.69-.13,3.88-2.12,3.92-4.63.03-2.19.32-4.33.46-6.51.15-2.52.07-5.06.16-7.58s.12-5.05.05-7.58c-.06-2.17-.16-4.33-.19-6.5-.04-2.59-1.61-5.03-4.39-5.19-2.24-.13-4.52.05-6.76.08-2.61.03-5.22,0-7.83.1-2.47.1-4.94.09-7.42.16-2.11.06-4.2.33-6.3.4-2.43.08-5.54-.03-6.6,2.73-.77,1.99-.06,4.76.3,6.81.81,4.67.13,9.61.11,14.33,0,2.17-.14,4.33-.2,6.5-.07,2.54-.24,5.3,2.4,6.62,1.36.68,3.03.46,4.5.42,1.11-.03,2.22-.1,3.33-.16,2.79-.14,5.61-.19,8.39.1s5.56.46,8.39.34c2.57-.11,5.11-.42,7.68-.43,1.61,0,1.61-2.5,0-2.5Z" fill="#787d6f"/>
      </g>
      <path d="M4.87,12.78c5.03-.01,10.02-.39,15.06-.24,2.64.08,5.29,0,7.93.15,2.39.13,4.74.4,7.14.41,1.61,0,1.61-2.49,0-2.5-2.35,0-4.65-.26-6.99-.4-2.69-.16-5.39-.08-8.08-.16-5.04-.16-10.03.23-15.06.24-1.61,0-1.61,2.5,0,2.5h0Z" fill="#787d6f"/>
      <path d="M8.12,1.25c0,1.73-.26,3.45-.26,5.18,0,.65.58,1.28,1.25,1.25s1.25-.55,1.25-1.25c0-1.73.26-3.45.26-5.18,0-.65-.58-1.28-1.25-1.25s-1.25.55-1.25,1.25h0Z" fill="#787d6f"/>
      <path d="M29.86,1.25c0,1.73-.25,3.45-.25,5.18,0,.65.58,1.28,1.25,1.25s1.25-.55,1.25-1.25c0-1.73.25-3.45.25-5.18,0-.65-.58-1.28-1.25-1.25s-1.25.55-1.25,1.25h0Z" fill="#787d6f"/>
      <g>
        <path d="M19.57,19.65c-1.02-1.54-2.49-2.72-3.98-2.91-1.72-.21-3.79.67-4.63,2.12-.74,1.27-.75,3.64.23,5.84.66,1.47,1.76,3.21,3.73,4.51,1.37.9,3.32,1.56,5.5,2.19,3.1-.38,2.83-1.37,5.28-3.42,1.64-1.37,3.57-3.04,3.9-5.01.3-1.79-.32-3.8-1.27-4.94s-2.8-1.38-4.68-.83c-1.23.36-2.64.97-4.08,2.45Z" fill="#787d6f"/>
        <path d="M20.65,19.02c-1.28-1.88-3.16-3.54-5.56-3.56-1.99-.02-4.19,1.01-5.21,2.77-1.11,1.92-.8,4.51-.03,6.48s2.01,3.72,3.67,5.01c.91.71,1.9,1.23,2.97,1.67s2.41,1.04,3.6,1.21c1.69.24,3.46-.71,4.6-1.89,1.42-1.47,3.12-2.68,4.44-4.24,1.54-1.83,2.13-3.89,1.6-6.25-.57-2.53-2.26-4.44-4.95-4.55s-5.25,1.29-7.08,3.1c-1.14,1.14.62,2.9,1.77,1.77s2.64-2.03,4.31-2.31,2.85.42,3.39,2.07.29,3.1-.8,4.4-2.47,2.23-3.65,3.41c-.72.73-1.3,1.54-2.32,1.83-.27.08-.71.24-1,.2-.06,0-.67-.27-.91-.34-.86-.27-1.73-.55-2.55-.93-2.9-1.33-5.23-4.31-5.25-7.6,0-1.66.84-2.78,2.47-3.21,1.85-.48,3.35.75,4.35,2.2.9,1.32,3.07.07,2.16-1.26Z" fill="#787d6f"/>
      </g>
    </g>
  </g>
</svg>