<?xml version="1.0" encoding="UTF-8"?>
<svg id="_레이어_2" data-name="레이어_2" xmlns="http://www.w3.org/2000/svg" viewBox="0 0 39.87 39.79">
  <g id="_x3C_하단바_x3E_">
    <g>
      <g>
        <path d="M35.25,38.08c-5.06,0-5.06.47-10.13.47s-5.07-.58-10.14-.58-5.07.29-10.14.29c-1.68,0-3.08-1.42-3.08-3.1,0-4.85.23-4.85.23-9.7s.22-4.85.22-9.7-.88-4.85-.88-9.7c0-1.68,1.82-2.71,3.5-2.71,5.06,0,5.06-.45,10.13-.45s5.07-.22,10.14-.22,5.07-.1,10.14-.1c1.68,0,3.14,1.79,3.14,3.47,0,4.85.22,4.85.22,9.7s-.17,4.85-.17,9.7-.53,4.85-.53,9.7c0,1.68-.99,2.91-2.67,2.91Z" fill="#f5f9e1"/>
        <path d="M35.25,36.83c-4.47.01-8.88.71-13.36.37-1.86-.14-3.7-.41-5.57-.46-2.26-.06-4.52.03-6.78.15-.87.05-1.73.09-2.6.11-1.14.02-2.67.34-3.49-.65-.76-.91-.43-2.49-.41-3.58.02-.9.06-1.79.1-2.69.19-4.07.24-8.17.31-12.24.04-2.32,0-4.6-.4-6.89-.14-.82-.3-1.64-.37-2.48-.09-1.08-.48-2.69.55-3.4s2.39-.45,3.53-.49c1.01-.03,2.02-.1,3.03-.19,2.18-.19,4.34-.22,6.53-.24,4.29-.04,8.58-.18,12.86-.25,1.96-.03,4.13-.33,6.07-.07,2.63.36,1.89,4.22,1.96,6.08.18,4.5.06,8.98,0,13.48-.03,2.45-.06,4.85-.32,7.28-.12,1.12-.19,2.24-.21,3.37s.14,2.7-1.43,2.77-1.61,2.58,0,2.5c2.69-.13,3.88-2.12,3.92-4.63.03-2.19.32-4.33.46-6.51.15-2.52.07-5.06.16-7.58s.12-5.05.05-7.58c-.06-2.17-.16-4.33-.19-6.5-.04-2.59-1.61-5.03-4.39-5.19-2.24-.13-4.52.05-6.76.08-2.61.03-5.22,0-7.83.1-2.47.1-4.94.09-7.42.16-2.11.06-4.2.33-6.3.4-2.43.08-5.54-.03-6.6,2.73-.77,1.99-.06,4.76.3,6.81.81,4.67.13,9.61.11,14.33,0,2.17-.14,4.33-.2,6.5-.07,2.54-.24,5.3,2.4,6.62,1.36.68,3.03.46,4.5.42,1.11-.03,2.22-.1,3.33-.16,2.79-.14,5.61-.19,8.39.1s5.56.46,8.39.34c2.57-.11,5.11-.42,7.68-.43,1.61,0,1.61-2.5,0-2.5Z" fill="#f9b341"/>
      </g>
      <path d="M4.87,12.78c5.03-.01,10.02-.39,15.06-.24,2.64.08,5.29,0,7.93.15,2.39.13,4.74.4,7.14.41,1.61,0,1.61-2.49,0-2.5-2.35,0-4.65-.26-6.99-.4-2.69-.16-5.39-.08-8.08-.16-5.04-.16-10.03.23-15.06.24-1.61,0-1.61,2.5,0,2.5h0Z" fill="#f9b341"/>
      <path d="M8.12,1.25c0,1.73-.26,3.45-.26,5.18,0,.65.58,1.28,1.25,1.25s1.25-.55,1.25-1.25c0-1.73.26-3.45.26-5.18,0-.65-.58-1.28-1.25-1.25s-1.25.55-1.25,1.25h0Z" fill="#f9b341"/>
      <path d="M29.86,1.25c0,1.73-.25,3.45-.25,5.18,0,.65.58,1.28,1.25,1.25s1.25-.55,1.25-1.25c0-1.73.25-3.45.25-5.18,0-.65-.58-1.28-1.25-1.25s-1.25.55-1.25,1.25h0Z" fill="#f9b341"/>
      <g>
        <path d="M19.57,19.64c-1.02-1.54-2.51-2.5-4.01-2.69-1.72-.21-3.54.58-4.39,2.03-.74,1.27-1.22,3.62-.23,5.82.66,1.47,2.03,3.07,3.99,4.37,1.37.9,3.33,1.84,5.51,2.46,3.1-.38,2.92-1.47,5.37-3.52,1.64-1.37,2.72-3.3,3.05-5.27.3-1.79.13-3.44-.83-4.57s-2.44-1.36-4.32-.81c-1.23.36-2.72.7-4.15,2.18Z" fill="#f9b341"/>
        <path d="M20.65,19c-1.29-1.87-3.25-3.32-5.61-3.34-2.02-.02-4.09,1.05-5.05,2.87-1.06,2.01-1.13,4.52-.26,6.6.81,1.96,2.35,3.52,4.05,4.75.84.61,1.75,1.12,2.69,1.57.57.27,1.15.52,1.74.74.68.26,1.49.66,2.23.68,1.62.05,3.21-.85,4.29-1.97,1.44-1.48,3.13-2.76,4.17-4.58,1.1-1.91,1.63-4.3,1.2-6.49-.46-2.31-2.34-4.01-4.73-3.93s-4.99,1.17-6.69,2.84c-1.15,1.13.62,2.9,1.77,1.77s2.63-1.68,4.18-2c1.33-.28,2.49.08,2.93,1.47.5,1.55.07,3.44-.68,4.84s-1.98,2.32-3.1,3.46c-.69.7-1.28,1.53-2.24,1.86-.28.09-.6.18-.89.21s-.46-.09-.85-.22c-.9-.3-1.77-.66-2.61-1.09-2.75-1.4-5.73-3.81-5.56-7.21.08-1.6.81-3.09,2.45-3.54,1.76-.48,3.42.56,4.39,1.98.91,1.32,3.08.07,2.16-1.26Z" fill="#f9b341"/>
      </g>
    </g>
  </g>
</svg>